<?xml version="1.0" encoding="UTF-8" standalone="no"?>
<svg xmlns:xlink="http://www.w3.org/1999/xlink" height="156.8px" width="149.3px" xmlns="http://www.w3.org/2000/svg">
  <g transform="matrix(1.0, 0.0, 0.0, 1.0, 0.0, 0.0)">
    <path d="M141.8 132.0 L136.95 132.8 133.65 133.7 130.35 134.6 128.65 134.35 127.25 133.6 125.25 133.4 123.3 133.8 Q121.7 134.05 116.8 133.95 114.45 133.9 112.0 134.6 L107.45 136.0 102.15 136.9 96.75 137.15 92.85 137.15 91.7 137.25 90.5 137.3 88.95 136.75 Q87.4 136.8 84.7 138.05 81.7 139.45 80.4 139.65 L75.7 140.55 70.95 141.3 66.4 141.2 61.95 141.35 Q61.1 141.5 59.3 142.3 57.55 143.1 56.5 143.25 54.65 143.5 50.0 143.4 L44.15 143.3 42.05 143.75 Q41.55 144.0 40.2 144.75 38.4 145.6 35.75 146.1 L31.15 146.85 21.75 147.2 Q20.35 147.1 18.75 146.3 16.8 145.35 16.55 144.15 16.35 143.1 17.7 142.35 L20.2 141.25 Q34.45 133.2 56.2 128.0 77.25 122.9 94.65 121.25 100.1 120.75 108.35 121.0 L122.1 121.5 128.0 121.6 145.25 129.35 Q145.0 131.15 141.8 132.0" fill="url(#gradient0)" fill-rule="evenodd" stroke="none"/>
    <path d="M56.85 8.85 Q58.55 9.5 59.6 9.15 60.6 8.85 61.05 7.9 L61.65 5.85 Q62.85 6.55 63.8 8.35 64.75 10.2 64.6 11.6 L55.8 21.05 55.2 23.1 54.5 25.1 53.15 26.7 Q52.2 27.7 51.85 28.45 51.25 29.75 50.55 32.05 L49.4 35.75 Q48.55 38.0 46.1 40.9 42.85 44.75 42.2 45.75 40.65 48.2 39.55 52.25 38.9 54.55 37.8 59.15 L36.65 63.05 Q35.95 65.15 34.95 66.7 L33.35 69.65 Q32.8 71.05 32.5 72.85 L31.4 79.5 30.0 86.1 Q28.85 90.25 28.5 95.9 L28.15 105.8 27.75 113.05 Q27.45 117.55 27.5 120.3 L27.7 129.6 Q27.85 135.15 27.65 138.85 L27.7 142.55 Q27.65 144.85 26.95 146.05 L25.3 147.9 23.4 149.5 21.95 149.85 20.35 149.8 Q18.6 149.65 16.4 148.95 L12.65 147.7 Q9.4 146.7 6.05 143.2 2.2 139.2 0.0 138.05 L5.15 139.6 10.55 140.45 Q16.45 140.7 18.05 138.7 19.55 136.75 18.7 128.35 L18.4 125.75 Q18.05 124.3 17.3 123.4 16.35 122.2 15.15 121.45 L13.3 120.75 Q12.0 120.35 11.55 119.95 12.3 119.65 14.1 119.3 15.75 119.0 16.65 118.55 19.7 117.1 20.85 114.4 21.55 112.7 21.7 110.1 L21.6 105.65 Q21.55 103.9 21.0 101.7 L20.05 97.9 19.65 95.9 Q19.35 95.0 18.5 94.4 17.4 93.7 14.45 93.45 L10.05 92.75 10.95 92.55 12.05 92.5 Q13.9 92.15 15.35 91.2 L17.75 89.75 Q19.1 88.85 19.75 87.95 20.9 86.4 20.8 83.0 L20.45 77.6 Q20.4 75.55 21.45 72.2 22.5 68.85 22.45 66.95 22.4 65.65 23.5 62.2 24.35 59.45 23.45 57.35 L21.2 57.05 25.55 54.85 Q27.95 53.45 29.55 52.05 31.35 50.45 31.8 48.95 32.15 47.7 31.9 45.05 L31.8 41.8 Q31.75 39.85 31.1 38.7 30.35 37.25 27.8 36.6 24.35 35.75 23.5 35.25 25.25 34.45 28.55 34.35 L33.9 34.15 Q36.15 33.9 37.15 32.1 L38.8 28.2 Q38.8 33.25 39.85 33.95 40.95 34.7 42.4 33.6 L44.1 31.55 Q44.75 30.2 45.1 27.9 45.55 24.9 45.75 24.2 46.0 23.2 46.7 22.2 L48.2 20.45 49.75 18.15 50.7 15.55 Q51.0 14.4 51.4 13.95 L52.9 12.8 Q54.4 11.7 54.4 10.75 54.1 9.45 54.15 8.25 55.0 8.1 56.85 8.85" fill="url(#gradient1)" fill-rule="evenodd" stroke="none"/>
    <path d="M51.85 129.95 L63.45 128.65 82.65 126.7 101.95 125.65 122.65 127.95 Q123.05 130.5 122.2 131.9 L119.95 134.75 Q118.25 137.05 112.95 137.65 106.0 138.4 104.75 138.9 L102.4 140.05 Q100.9 140.75 99.85 140.7 L97.8 140.15 95.6 140.0 Q94.35 140.35 92.3 141.8 L89.2 143.95 83.4 147.0 Q79.7 148.65 76.95 148.35 77.4 146.2 72.95 146.25 L66.4 146.7 55.25 146.1 50.35 146.55 45.55 146.85 Q43.0 146.45 38.3 143.25 35.1 141.15 36.45 138.05 37.6 135.4 40.95 133.45 45.2 131.05 51.85 129.95" fill="url(#gradient2)" fill-rule="evenodd" stroke="none"/>
    <path d="M101.25 20.8 Q102.6 20.65 103.85 21.6 L105.95 23.4 111.7 27.7 Q115.4 30.35 117.35 32.2 118.6 33.35 119.9 35.55 L122.0 39.2 Q127.9 48.35 129.75 56.75 131.3 63.85 131.55 73.7 L131.55 90.8 Q131.65 103.7 130.85 113.6 130.7 115.3 131.1 120.15 131.4 124.35 130.9 126.65 130.55 128.3 128.6 129.5 L124.9 131.15 121.0 132.5 116.8 132.95 114.25 132.85 Q112.25 132.7 111.8 132.25 110.95 131.45 111.3 129.5 L112.05 126.6 Q112.4 124.7 112.3 121.9 L112.05 117.15 Q111.95 111.3 110.9 97.3 L108.7 70.6 Q107.2 55.25 105.1 44.0 104.15 39.9 103.9 37.8 L103.65 32.85 Q103.55 29.7 103.1 27.9 102.95 27.05 101.65 24.5 100.6 22.45 100.75 21.05 L101.25 20.8" fill="#594020" fill-rule="evenodd" stroke="none"/>
    <path d="M105.95 23.4 L111.7 27.7 Q115.4 30.35 117.35 32.2 118.6 33.35 119.9 35.55 L122.0 39.2 Q127.9 48.35 129.75 56.75 131.3 63.85 131.55 73.7 L131.55 90.8 Q131.65 103.7 130.85 113.6 130.7 115.35 130.9 118.25 L131.2 123.0 127.9 129.85 126.7 130.45 126.7 123.8 Q126.6 127.15 123.5 130.35 123.1 128.75 123.4 126.6 L124.05 122.85 Q124.4 120.35 126.2 113.35 127.7 107.4 127.9 103.85 128.05 101.8 127.7 98.8 L127.15 93.8 Q127.0 96.65 125.3 98.65 125.15 96.15 125.25 91.15 L124.95 92.25 Q124.05 89.2 124.5 83.75 L124.95 75.2 Q123.55 79.0 123.0 81.75 122.4 84.7 122.4 88.45 122.4 92.85 123.05 102.45 L123.55 115.85 123.3 113.55 122.75 110.7 Q122.5 109.4 122.5 107.45 L122.45 104.15 Q122.3 102.25 121.4 97.65 120.6 93.5 120.6 91.15 L120.8 76.75 121.45 69.4 Q121.6 64.95 119.7 62.35 L118.65 64.15 118.8 55.4 Q118.55 50.45 117.05 46.9 115.8 47.15 115.05 46.1 114.45 45.25 114.4 43.9 L114.15 44.8 113.6 45.35 Q112.4 43.7 112.05 41.15 112.35 47.05 112.15 56.3 L111.9 71.3 111.9 71.5 112.2 72.75 113.55 71.4 114.75 70.0 Q115.1 73.95 114.05 78.9 L111.85 87.5 Q111.0 91.1 112.05 94.7 L112.35 92.1 Q112.45 90.4 112.7 89.5 113.15 91.0 113.25 93.3 L113.35 97.15 Q114.3 94.55 114.5 90.25 114.65 85.4 114.9 83.15 115.55 84.9 115.3 88.0 L114.85 93.0 115.0 98.75 Q115.15 102.3 114.85 104.45 L114.35 107.05 Q114.05 108.45 114.1 109.65 114.2 111.8 115.25 116.35 116.25 120.7 116.25 123.1 L116.45 118.3 Q118.4 119.65 118.85 123.2 119.1 125.05 118.9 129.2 L119.2 128.1 Q120.05 129.6 120.25 132.7 L116.8 132.95 114.25 132.85 Q112.25 132.7 111.8 132.25 110.95 131.45 111.3 129.5 L112.05 126.6 Q112.4 124.7 112.3 121.9 L112.05 117.15 Q111.95 111.3 110.9 97.3 L108.7 70.6 Q107.2 55.25 105.1 44.0 104.15 39.9 103.9 37.8 L103.65 32.85 Q103.55 29.7 103.1 27.9 102.95 27.05 101.65 24.5 100.6 22.45 100.75 21.05 L101.25 20.8 Q102.6 20.65 103.85 21.6 L105.95 23.4" fill="#4b2d02" fill-rule="evenodd" stroke="none"/>
    <path d="M123.15 131.8 L120.4 132.65 Q120.2 128.5 120.75 126.25 L123.15 131.8" fill="#4b2d02" fill-rule="evenodd" stroke="none"/>
    <path d="M113.35 40.3 L111.5 31.75 Q113.5 36.35 114.4 39.5 115.7 43.85 115.75 47.55 L115.85 53.15 115.8 58.75 115.6 65.45 Q115.45 69.35 114.75 72.0 114.25 70.3 114.35 67.5 L114.5 62.9 114.45 56.0 Q114.45 53.55 113.85 48.15 113.25 43.05 113.35 40.3" fill="#4b2d02" fill-rule="evenodd" stroke="none"/>
    <path d="M120.0 72.8 Q120.7 74.95 120.7 78.45 L120.55 84.15 120.65 106.15 Q120.65 108.75 121.0 117.3 L121.05 128.45 Q119.5 128.1 119.3 121.75 L119.4 114.4 119.45 106.4 119.35 98.5 Q119.2 95.25 119.35 89.8 L119.5 81.1 119.5 73.85 119.6 70.55 119.6 70.45 120.0 72.8" fill="#4b2d02" fill-rule="evenodd" stroke="none"/>
    <path d="M126.85 92.5 L126.9 101.25 127.6 107.1 Q128.0 111.15 127.2 112.6 126.15 111.4 125.95 109.55 L125.85 106.2 126.05 89.45 126.85 92.5" fill="#4b2d02" fill-rule="evenodd" stroke="none"/>
    <path d="M112.55 41.75 Q113.35 40.9 113.45 39.45 114.85 41.35 115.25 43.1 L115.5 46.85 115.9 44.75 116.3 42.65 Q116.85 43.2 117.2 44.25 L117.75 45.95 118.9 48.2 119.9 50.4 Q120.3 51.7 120.25 55.45 120.2 58.7 121.0 60.15 L121.3 58.5 121.75 63.0 122.05 67.55 121.85 83.55 Q122.2 82.7 122.35 79.05 122.45 76.25 124.0 74.85 125.55 75.4 126.15 78.3 L126.55 82.65 126.55 86.7 Q126.55 89.4 127.25 90.4 L127.85 89.5 128.5 94.35 Q129.1 97.85 130.3 98.3 L131.1 65.75 Q131.6 70.95 131.65 78.3 L131.55 90.8 Q131.65 103.7 130.85 113.6 130.7 115.3 131.1 120.15 131.4 124.35 130.9 126.65 130.55 128.3 128.6 129.5 L124.9 131.15 121.0 132.5 116.8 132.95 114.25 132.85 Q112.25 132.7 111.8 132.25 110.95 131.45 111.3 129.5 L112.05 126.6 Q112.4 124.7 112.3 121.9 L112.05 117.15 Q111.95 111.3 110.9 97.3 L110.0 85.75 110.1 85.75 Q111.85 85.6 112.5 82.6 L112.95 78.2 Q113.0 77.6 113.95 74.45 114.6 72.15 114.05 70.5 L113.15 72.65 Q112.5 74.0 112.45 74.9 112.45 72.25 111.65 67.85 L110.55 60.9 Q110.15 58.7 110.3 57.65 110.35 57.1 110.7 56.55 L111.25 55.55 111.9 52.65 Q112.2 50.9 112.1 49.65 111.25 52.55 109.5 53.85 109.35 52.1 109.8 48.85 110.3 45.35 110.25 43.85 109.85 41.15 109.8 39.6 109.75 36.8 111.2 35.85 111.9 36.5 112.1 38.65 112.35 41.2 112.55 41.75" fill="#594020" fill-rule="evenodd" stroke="none"/>
    <path d="M114.85 84.05 Q115.8 86.1 114.3 90.1 112.55 94.65 112.75 96.3 112.85 97.3 113.8 99.1 114.75 100.95 114.9 102.05 114.85 96.25 114.95 94.6 115.2 90.35 116.4 87.4 116.85 88.8 116.7 91.05 L116.25 94.7 Q115.85 98.5 115.6 106.1 L115.45 107.8 115.4 109.45 Q115.55 111.05 116.25 113.3 L117.5 117.05 Q117.45 114.15 117.55 112.75 117.95 114.2 118.15 117.8 118.35 121.0 118.95 122.65 119.5 120.4 119.15 116.55 L118.55 110.4 118.5 96.65 118.4 90.05 Q118.35 86.15 118.65 83.45 L118.85 80.8 Q119.05 79.1 119.5 78.35 120.6 80.95 120.15 85.95 L119.35 93.7 Q119.05 100.0 119.9 105.6 L120.6 115.2 Q120.95 121.15 122.35 124.5 122.65 122.8 122.6 119.4 122.55 115.9 122.8 114.25 124.0 116.15 123.65 120.45 123.15 125.95 123.3 127.05 123.6 129.2 124.15 128.4 L125.2 125.85 125.5 127.6 Q125.75 128.5 126.7 128.8 125.65 123.15 125.9 119.15 125.95 117.6 126.65 115.25 L127.7 111.35 127.65 106.55 Q127.5 103.35 128.25 102.05 130.05 103.45 131.3 106.3 L130.85 113.6 Q130.7 115.3 131.1 120.15 131.4 124.35 130.9 126.65 130.55 128.3 128.6 129.5 L124.9 131.15 121.0 132.5 116.8 132.95 114.25 132.85 Q112.25 132.7 111.8 132.25 110.95 131.45 111.3 129.5 L112.05 126.6 Q112.4 124.7 112.3 121.9 L112.05 117.15 Q111.95 111.3 110.9 97.3 L109.7 82.05 111.55 77.25 Q112.7 74.5 114.0 72.7 L113.6 79.2 Q113.3 83.25 114.1 85.6 L114.45 84.8 114.85 84.05" fill="#432802" fill-rule="evenodd" stroke="none"/>
    <path d="M105.0 22.55 L105.95 23.4 111.7 27.7 Q115.4 30.35 117.35 32.2 118.6 33.35 119.9 35.55 L122.0 39.2 Q127.9 48.35 129.75 56.75 131.3 63.85 131.55 73.75 L131.55 90.9 131.5 98.45 130.8 98.5 Q130.85 95.2 129.7 91.75 L127.2 85.55 Q125.85 82.45 125.45 79.2 125.15 76.8 125.25 72.5 L124.65 74.0 Q123.65 72.25 123.6 69.05 L123.65 63.85 123.5 60.65 Q123.3 58.8 122.65 57.75 L122.05 57.2 121.3 56.5 Q121.1 56.1 121.05 55.6 L120.9 54.7 119.7 51.15 118.6 47.65 118.3 44.1 Q118.1 42.0 116.95 40.95 L116.7 41.6 Q116.2 41.1 116.2 39.9 116.2 38.55 115.9 38.1 L115.05 37.4 Q114.35 37.1 114.05 36.8 L113.05 35.4 111.85 34.2 Q111.45 34.05 110.7 34.45 L109.4 34.5 Q108.6 36.1 108.7 39.65 L108.95 45.05 108.7 48.25 108.45 51.3 Q108.45 52.65 109.5 53.25 110.55 53.9 111.0 52.35 111.25 53.1 110.55 54.1 L109.3 55.6 108.25 56.65 Q107.7 57.05 107.15 57.05 106.4 50.85 105.1 44.0 104.15 39.9 103.9 37.8 L103.65 32.85 Q103.55 29.7 103.1 27.9 L102.25 25.7 101.2 23.55 Q102.55 22.8 105.0 22.55" fill="#322310" fill-rule="evenodd" stroke="none"/>
    <path d="M110.05 66.15 Q110.8 66.55 111.1 69.75 111.35 72.6 112.9 72.5 114.05 72.4 114.1 69.8 L114.05 66.25 114.7 69.35 Q115.0 71.5 114.8 72.5 L114.15 73.8 113.2 74.95 Q111.3 75.8 110.0 72.05 L108.75 66.9 110.05 66.15" fill="#322310" fill-rule="evenodd" stroke="none"/>
    <path d="M113.05 85.95 Q113.4 88.55 113.25 90.6 L112.85 93.2 112.2 94.65 Q111.7 95.75 111.7 96.0 L111.45 89.1 111.0 84.45 Q110.7 81.45 111.4 79.95 112.2 80.85 112.6 82.8 L113.05 85.95" fill="#322310" fill-rule="evenodd" stroke="none"/>
    <path d="M117.6 123.65 Q118.9 123.7 118.65 125.2 119.55 124.75 119.45 122.85 119.95 124.35 119.65 126.3 119.3 128.7 117.55 128.2 116.6 127.95 116.25 126.05 L116.0 123.3 115.45 127.55 Q115.15 130.2 116.8 130.95 118.6 131.8 119.75 130.7 120.7 129.85 121.0 127.95 122.0 128.15 122.05 129.8 122.15 131.5 122.95 131.9 119.55 133.15 116.8 132.95 L114.25 132.85 Q112.25 132.7 111.8 132.25 110.95 131.45 111.3 129.5 L112.05 126.6 Q112.4 124.7 112.3 121.9 L112.05 117.15 Q112.0 110.9 111.15 100.6 L114.1 104.35 114.5 101.3 114.9 98.25 Q115.4 99.85 115.25 102.75 L115.15 107.35 115.6 110.45 115.95 113.5 116.5 119.25 Q116.55 119.95 117.1 121.45 L117.6 123.65" fill="#322310" fill-rule="evenodd" stroke="none"/>
    <path d="M123.7 131.6 Q124.3 129.5 124.6 129.05 125.8 129.3 126.15 130.65 L123.7 131.6" fill="#322310" fill-rule="evenodd" stroke="none"/>
    <path d="M117.05 49.15 Q117.1 51.65 118.25 56.7 119.45 61.7 119.45 64.3 L119.9 70.75 Q120.1 75.25 119.05 77.0 118.9 75.7 118.9 73.75 L118.95 70.5 Q118.95 68.9 118.5 67.45 L117.4 64.5 Q116.4 61.4 116.25 56.9 L116.25 49.15 117.05 49.15" fill="#6a4e29" fill-rule="evenodd" stroke="none"/>
    <path d="M116.6 72.0 L116.9 78.8 Q116.8 84.15 115.1 84.0 114.9 81.45 115.35 77.1 L115.8 70.25 116.6 72.0" fill="#6a4e29" fill-rule="evenodd" stroke="none"/>
    <path d="M113.2 71.2 L112.7 71.2 Q112.45 67.1 112.55 65.1 112.65 61.6 114.2 59.5 L114.3 66.15 Q114.15 71.85 113.2 71.2" fill="#6a4e29" fill-rule="evenodd" stroke="none"/>
    <path d="M123.45 83.9 Q124.15 85.5 124.0 89.05 123.8 92.7 124.45 94.25 L125.75 97.8 Q126.2 99.85 125.55 101.45 L124.6 101.45 Q124.45 99.85 123.75 97.4 L122.75 93.45 Q122.35 90.9 122.55 86.8 L122.9 80.15 123.45 83.9" fill="#6a4e29" fill-rule="evenodd" stroke="none"/>
    <path d="M121.4 103.2 Q121.4 108.5 122.25 112.0 L123.15 115.8 Q123.5 118.55 122.0 118.7 L122.05 114.7 Q122.1 112.2 121.75 110.7 L121.3 109.25 120.9 107.7 Q120.75 106.65 120.9 103.45 L120.85 100.35 121.4 103.2" fill="#6a4e29" fill-rule="evenodd" stroke="none"/>
    <path d="M116.7 97.35 L116.65 102.55 Q116.65 105.55 117.05 107.7 117.35 109.25 117.2 110.9 117.0 112.6 116.25 110.15 115.95 109.05 116.15 106.9 L116.45 103.6 116.4 94.85 116.7 97.35" fill="#6a4e29" fill-rule="evenodd" stroke="none"/>
    <path d="M125.35 107.75 L126.5 114.05 Q127.0 118.55 125.4 119.85 124.55 119.2 124.4 117.6 L124.3 115.05 124.3 104.25 125.35 107.75" fill="#6a4e29" fill-rule="evenodd" stroke="none"/>
    <path d="M110.35 62.9 Q110.6 63.95 110.95 64.35 111.5 64.95 112.0 64.95 112.55 64.95 112.65 64.1 112.7 65.3 112.35 67.35 112.0 69.5 112.0 70.6 L112.05 74.7 112.3 79.15 Q112.4 81.75 111.85 83.65 111.5 84.8 110.9 84.9 110.4 85.05 109.5 84.35 107.9 81.9 106.75 78.95 104.75 74.15 103.5 68.65 102.05 62.25 101.95 55.45 101.95 51.65 102.5 50.8 L108.25 54.25 Q108.3 58.05 109.85 61.3 L110.35 62.9" fill="#322310" fill-rule="evenodd" stroke="none"/>
    <path d="M111.85 86.1 Q112.65 87.35 112.45 90.6 L112.3 95.35 Q112.55 98.25 113.65 98.0 114.3 97.9 114.45 96.4 L114.65 94.3 Q114.95 97.0 114.7 98.7 L114.25 100.2 Q113.9 101.1 113.85 101.65 L113.75 104.6 113.5 107.5 113.25 108.3 113.15 109.25 Q113.05 110.7 114.1 113.6 L114.45 114.3 114.5 115.0 Q112.7 115.4 111.9 112.9 L111.2 109.05 Q110.05 102.55 109.9 93.6 L109.9 78.05 111.85 86.1" fill="#322310" fill-rule="evenodd" stroke="none"/>
    <path d="M107.45 45.25 L107.8 52.55 Q107.9 57.3 108.2 59.75 108.35 61.15 109.2 63.05 L110.55 66.25 111.0 69.45 111.05 72.7 111.25 81.25 111.45 89.75 112.2 103.55 Q112.6 112.2 113.1 117.35 113.65 122.85 113.65 129.6 113.65 132.2 112.65 133.5 111.7 134.8 109.05 135.9 106.15 137.05 100.85 136.95 L92.3 136.55 90.65 136.6 88.95 136.5 Q87.15 136.2 86.85 134.8 L86.85 131.6 86.5 108.05 Q86.05 86.4 83.6 64.25 82.8 56.75 82.6 42.45 82.35 27.55 81.7 20.65 81.25 16.2 81.45 14.4 81.5 14.0 87.3 15.45 L93.9 17.25 99.1 19.25 Q102.0 20.6 103.55 22.4 104.85 23.9 105.4 26.1 105.8 27.55 106.05 30.15 L106.7 37.7 107.45 45.25" fill="#594020" fill-rule="evenodd" stroke="none"/>
    <path d="M96.55 76.6 L97.0 73.25 Q97.2 75.7 96.55 76.6" fill="#453219" fill-rule="evenodd" stroke="none"/>
    <path d="M103.55 22.4 Q104.85 23.9 105.4 26.1 105.8 27.55 106.05 30.15 L106.85 39.45 106.6 38.05 106.5 38.9 Q105.0 37.95 104.25 34.5 L103.95 36.05 Q103.05 35.3 102.3 32.15 102.7 38.35 102.6 47.5 L102.5 60.0 102.4 54.95 Q102.25 50.4 101.6 47.1 L101.05 42.45 Q100.75 39.55 100.25 37.8 L99.4 34.8 Q98.8 32.9 97.95 32.05 97.65 35.75 97.9 38.55 98.3 43.3 100.25 43.7 100.55 44.45 100.2 45.15 98.0 45.55 96.85 41.35 L95.45 35.75 Q94.75 32.85 94.75 30.85 L94.45 39.7 Q94.25 45.6 94.65 49.2 90.4 48.55 89.1 46.75 L89.1 50.45 Q89.15 53.5 90.25 57.85 90.9 57.0 91.75 54.8 92.55 52.6 93.25 51.7 94.9 53.5 94.8 59.15 94.8 62.2 94.4 66.8 L94.45 76.7 96.55 76.6 Q96.25 78.3 96.3 79.95 L97.3 80.05 Q97.65 81.5 96.55 81.6 95.45 81.65 94.95 80.4 L95.05 84.9 Q95.5 87.75 97.7 86.4 100.75 84.55 100.9 76.2 L100.75 71.6 Q100.6 68.6 101.0 66.95 102.45 70.2 102.5 75.65 L102.5 84.6 102.65 86.6 Q102.85 87.6 103.65 88.3 103.65 88.15 103.8 88.15 L103.8 90.65 102.85 90.35 Q102.65 94.3 103.0 99.5 L103.7 108.65 Q104.4 106.25 106.8 104.3 107.15 115.3 103.8 111.35 102.05 109.35 101.75 105.2 101.4 100.3 100.75 98.85 102.25 108.4 102.15 118.75 L101.9 124.2 102.15 124.7 Q102.35 125.0 102.2 125.25 100.85 127.7 99.25 121.5 L99.8 124.75 100.15 128.0 100.05 129.4 Q100.0 130.4 100.35 130.75 100.8 131.25 102.05 131.4 L103.85 131.25 Q104.5 132.05 104.35 133.25 105.1 132.6 105.2 130.8 L105.25 127.95 105.15 120.55 Q105.1 116.05 106.1 113.35 108.05 116.5 107.9 123.15 107.75 132.15 107.95 133.55 L109.7 133.9 Q110.15 130.2 110.65 128.5 112.2 130.15 112.2 134.05 111.25 135.0 109.05 135.9 106.15 137.05 100.85 136.95 L92.3 136.55 90.65 136.6 88.95 136.5 Q87.15 136.2 86.85 134.8 L86.85 131.6 86.5 108.05 Q86.05 86.4 83.6 64.25 82.8 56.75 82.6 42.45 82.35 27.55 81.7 20.65 81.25 16.2 81.45 14.4 81.5 14.0 87.3 15.45 L93.9 17.25 99.1 19.25 Q102.0 20.6 103.55 22.4 M89.1 46.75 Q88.9 44.65 88.35 43.55 88.2 45.55 89.1 46.75" fill="#453219" fill-rule="evenodd" stroke="none"/>
    <path d="M98.55 24.25 L96.55 23.6 Q96.1 24.85 96.15 27.25 L96.35 31.0 96.35 33.85 95.55 31.15 94.65 27.05 93.5 23.05 Q92.55 24.25 92.5 26.75 L92.7 30.9 Q92.4 29.2 91.0 26.0 89.55 22.8 89.25 21.1 L89.2 27.25 89.05 33.45 89.2 35.85 89.1 38.2 88.55 38.85 Q88.1 39.2 88.0 39.5 87.8 40.2 88.05 42.05 87.55 39.8 87.5 36.7 L87.2 38.3 86.7 40.25 Q86.55 41.6 87.0 44.75 L87.55 55.05 Q88.15 63.15 89.65 63.1 L89.95 65.0 90.0 66.9 Q91.5 67.15 91.55 66.1 91.7 68.6 91.05 69.15 90.4 69.6 89.95 69.45 89.55 69.35 89.45 68.65 L89.8 77.3 Q90.0 82.5 89.8 85.95 L89.55 88.4 Q89.4 89.85 89.6 90.9 L90.35 97.25 90.5 98.55 Q90.7 99.5 91.4 98.95 91.85 98.6 91.9 96.95 L92.0 94.75 Q92.35 95.15 92.7 96.8 93.05 98.25 93.75 98.55 95.15 99.1 95.45 97.15 L95.6 94.05 Q96.05 95.6 95.55 98.65 94.95 101.95 93.3 99.6 93.0 101.35 93.0 105.0 93.0 108.75 92.65 110.5 L92.2 112.9 Q92.05 114.35 92.5 115.3 93.8 115.0 94.3 114.6 L94.25 116.35 94.1 118.05 Q94.85 118.5 95.35 118.5 L95.85 114.5 96.25 118.4 Q96.4 121.1 96.95 121.95 L98.45 120.2 Q99.25 121.8 97.95 123.6 96.6 125.4 95.45 123.4 95.25 126.5 95.7 129.65 L96.8 135.6 98.2 135.5 99.5 135.4 Q99.95 134.45 99.9 133.45 L100.65 134.25 101.55 133.95 102.45 133.75 Q102.4 134.8 103.05 135.7 105.25 134.2 105.65 131.65 L105.9 126.75 Q106.85 127.8 107.05 131.6 107.25 135.1 108.7 136.05 105.8 137.1 100.65 136.95 L92.3 136.55 90.65 136.6 88.95 136.5 Q87.15 136.2 86.85 134.8 L86.85 131.6 86.5 108.05 Q86.05 86.4 83.6 64.25 82.8 56.75 82.6 42.45 82.35 27.55 81.7 20.65 81.25 16.2 81.45 14.4 81.5 14.0 87.3 15.45 L93.9 17.25 99.1 19.25 Q102.0 20.6 103.55 22.4 104.85 23.9 105.4 26.1 105.8 27.55 106.05 30.15 L106.5 35.05 105.25 30.65 104.95 29.35 104.5 28.15 Q104.25 27.75 103.4 27.45 102.6 27.2 102.3 26.6 101.65 27.3 101.7 29.3 L101.8 32.4 Q101.2 31.4 101.1 28.75 100.95 26.15 100.4 25.3 100.0 24.7 98.55 24.25" fill="#322310" fill-rule="evenodd" stroke="none"/>
    <path d="M110.1 133.35 Q110.55 133.85 110.8 135.05 L109.4 135.75 109.6 134.55 Q109.75 133.8 110.1 133.35" fill="#322310" fill-rule="evenodd" stroke="none"/>
    <path d="M94.5 84.4 Q94.15 83.4 94.2 82.25 L94.45 78.0 94.4 83.1 94.5 84.4 Q94.95 85.85 96.25 86.9 98.55 88.75 100.45 86.1 100.95 88.9 98.75 89.85 96.55 90.8 95.3 88.0 94.7 86.55 94.5 84.4" fill="#322310" fill-rule="evenodd" stroke="none"/>
    <path d="M102.35 97.65 Q102.35 100.95 102.5 102.25 102.8 105.4 103.85 106.7 104.85 107.95 105.4 107.3 L106.5 105.35 Q106.65 106.8 106.4 108.0 105.95 109.65 104.75 109.75 103.65 109.85 102.75 108.25 L101.65 105.65 Q100.6 103.3 101.35 98.85 101.8 96.05 101.7 94.2 L102.35 97.65" fill="#322310" fill-rule="evenodd" stroke="none"/>
    <path d="M99.35 116.85 Q99.2 118.75 99.35 119.35 L99.95 120.85 100.85 122.2 101.7 122.85 Q102.4 123.5 102.2 123.95 101.85 124.75 101.2 124.35 L100.15 123.4 Q98.2 121.25 98.15 115.75 L98.45 107.65 99.0 114.4 Q99.4 115.25 99.35 116.85" fill="#322310" fill-rule="evenodd" stroke="none"/>
    <path d="M101.4 132.5 L99.8 132.35 99.1 131.15 Q98.45 129.75 98.2 126.85 L97.75 122.4 99.85 127.7 Q99.25 128.8 99.65 129.65 99.95 130.2 100.95 130.95 L102.55 131.5 Q103.3 131.9 101.4 132.5" fill="#322310" fill-rule="evenodd" stroke="none"/>
    <path d="M94.1 53.9 L94.3 59.65 94.35 65.4 Q92.45 65.95 92.8 59.55 93.45 52.6 93.3 51.6 L94.1 53.9" fill="#322310" fill-rule="evenodd" stroke="none"/>
    <path d="M92.45 33.5 Q93.3 35.1 93.05 38.8 92.75 43.15 93.0 44.35 L93.45 46.05 93.5 47.8 Q91.45 48.25 91.2 39.15 L91.35 29.0 92.45 33.5" fill="#322310" fill-rule="evenodd" stroke="none"/>
    <path d="M93.65 73.7 Q93.45 75.1 94.2 76.35 95.05 77.8 96.25 76.6 97.1 77.75 95.85 78.55 94.85 79.2 93.45 79.2 92.7 76.95 92.5 73.3 L92.05 67.2 93.65 73.7" fill="#322310" fill-rule="evenodd" stroke="none"/>
    <path d="M95.25 90.8 L95.0 95.2 Q94.55 98.45 93.45 96.35 92.85 95.1 93.05 91.55 L93.4 86.55 Q93.65 87.8 94.45 89.3 L95.8 91.8 95.25 90.8" fill="#594020" fill-rule="evenodd" stroke="none"/>
    <path d="M98.7 94.6 Q99.0 100.05 98.7 107.0 L97.95 119.35 Q95.95 118.95 95.95 112.45 L96.35 104.45 Q96.45 102.65 97.05 98.3 97.65 94.45 97.6 92.1 L98.7 94.6" fill="#594020" fill-rule="evenodd" stroke="none"/>
    <path d="M94.3 105.8 L94.55 109.6 Q94.65 112.25 94.05 113.1 93.35 111.9 93.5 108.7 L93.75 104.05 94.3 105.8" fill="#594020" fill-rule="evenodd" stroke="none"/>
    <path d="M106.05 45.0 Q106.1 47.1 106.65 50.5 L107.4 56.0 107.4 58.2 107.5 60.35 108.5 64.65 Q109.2 67.4 109.3 69.0 L109.65 73.9 Q109.8 77.25 109.0 78.55 108.3 77.25 108.15 74.1 L107.9 69.35 Q107.9 66.9 107.35 65.85 L106.6 65.2 105.85 64.55 Q105.35 63.8 105.0 62.35 L104.55 59.95 Q103.9 56.55 104.0 51.25 L104.2 42.45 106.05 45.0" fill="#6a4e29" fill-rule="evenodd" stroke="none"/>
    <path d="M100.6 46.7 Q100.95 47.65 100.95 49.2 L100.85 51.75 Q100.85 54.4 101.65 58.75 L102.2 60.6 Q102.5 61.8 102.4 62.45 102.3 63.2 101.85 63.6 101.3 64.05 101.1 64.55 100.85 65.2 100.85 66.65 L100.85 68.9 Q100.75 71.15 101.4 78.4 101.25 84.65 97.15 85.35 97.05 84.45 97.55 82.65 L98.1 79.9 98.1 74.85 97.8 68.4 Q97.65 64.45 98.1 62.0 L98.85 62.0 Q99.35 60.75 99.15 58.4 L98.8 54.7 98.75 45.9 100.6 46.7" fill="#6a4e29" fill-rule="evenodd" stroke="none"/>
    <path d="M98.45 35.6 L98.95 32.85 Q98.85 33.95 100.05 37.7 101.1 40.9 100.25 42.4 99.45 41.35 98.85 39.25 98.25 37.05 98.45 35.6" fill="#6a4e29" fill-rule="evenodd" stroke="none"/>
    <path d="M105.9 68.85 Q106.3 69.1 106.25 72.3 L106.15 76.2 106.15 80.6 Q106.1 83.3 106.2 85.0 106.3 87.85 107.25 89.25 L108.4 90.65 Q108.8 91.2 108.85 92.35 L108.75 94.4 108.55 96.4 Q104.1 90.85 103.55 80.8 L103.8 64.05 105.9 68.85" fill="#6a4e29" fill-rule="evenodd" stroke="none"/>
    <path d="M104.4 93.7 Q106.55 96.55 106.0 105.95 103.95 106.2 103.55 99.4 L103.6 91.65 104.4 93.7" fill="#6a4e29" fill-rule="evenodd" stroke="none"/>
    <path d="M109.9 99.5 Q110.3 101.35 110.5 104.9 L111.0 110.3 111.3 114.95 111.35 119.6 Q111.55 122.45 110.8 128.65 L110.85 131.05 Q110.9 132.55 110.55 133.35 110.0 132.0 109.85 129.65 L109.55 125.7 Q109.25 123.3 108.9 114.9 L108.55 106.85 108.35 98.75 109.9 99.5" fill="#6a4e29" fill-rule="evenodd" stroke="none"/>
    <path d="M97.2 114.9 Q96.35 112.9 96.6 109.1 96.8 105.2 97.9 103.6 99.1 104.6 99.15 109.65 99.2 114.35 98.5 115.9 L97.2 114.9" fill="#6a4e29" fill-rule="evenodd" stroke="none"/>
    <path d="M104.1 113.55 Q105.25 115.0 105.4 121.1 105.6 127.55 103.8 128.75 103.35 125.8 103.15 120.05 103.15 119.4 104.1 113.55" fill="#6a4e29" fill-rule="evenodd" stroke="none"/>
    <path d="M102.2 126.95 Q102.8 129.0 102.2 130.0 101.65 128.8 101.65 125.2 L102.2 126.95" fill="#6a4e29" fill-rule="evenodd" stroke="none"/>
    <path d="M93.95 90.8 Q94.7 91.05 94.85 93.2 94.95 95.4 94.25 95.3 93.6 95.25 93.6 92.15 L93.7 88.5 93.95 90.8" fill="#6a4e29" fill-rule="evenodd" stroke="none"/>
    <path d="M92.45 54.6 Q92.35 57.75 90.85 56.05 90.1 55.15 91.05 52.9 92.0 50.65 91.8 50.35 92.6 51.5 92.45 54.6" fill="#6a4e29" fill-rule="evenodd" stroke="none"/>
    <path d="M83.3 21.0 L82.65 29.3 Q82.7 35.8 84.0 42.9 84.6 46.25 84.7 51.25 L84.65 59.55 Q84.65 70.75 85.5 77.5 85.85 80.45 85.9 85.5 85.9 91.45 86.05 93.45 L86.35 100.05 Q86.55 103.95 86.95 106.6 88.3 115.15 88.9 126.25 L89.2 132.3 89.55 134.25 Q89.85 135.5 89.6 136.05 89.05 137.3 85.7 138.65 83.25 139.65 81.0 140.1 L76.0 140.55 Q68.6 140.75 65.45 140.35 61.4 139.8 60.7 139.1 60.1 138.55 60.05 137.25 L60.15 135.25 60.1 127.5 Q60.05 117.4 59.4 100.8 L58.5 74.05 Q58.35 66.9 57.4 50.35 56.5 35.1 56.45 26.6 L56.4 23.0 Q56.45 20.95 57.9 19.75 L61.35 17.55 62.85 16.6 Q63.5 16.3 64.85 16.15 L72.55 15.45 73.6 15.45 82.3 13.05 Q83.6 15.7 83.3 21.0" fill="#594020" fill-rule="evenodd" stroke="none"/>
    <path d="M83.3 21.0 L82.65 29.3 82.7 31.2 81.95 26.85 Q81.75 28.9 80.95 29.45 80.15 28.8 79.75 27.3 L79.15 24.75 79.35 29.15 Q79.5 32.2 78.35 32.95 77.35 31.95 76.7 29.45 L75.45 25.65 Q74.65 28.8 74.4 34.1 L73.9 42.7 Q73.2 42.25 72.5 40.45 L71.55 37.8 67.95 27.65 Q67.75 29.45 67.85 33.45 67.95 37.2 67.65 39.25 L67.15 41.45 Q66.8 43.0 67.05 43.65 L67.75 42.5 Q69.95 44.9 70.45 50.35 L70.7 58.85 Q71.4 57.25 71.55 54.85 L71.65 50.7 Q72.75 52.95 72.75 57.75 L73.05 61.2 Q73.2 63.8 72.75 64.5 L71.85 64.8 Q71.15 64.9 70.95 65.15 70.55 65.65 70.5 66.2 L70.45 67.4 70.25 70.25 Q70.2 72.4 70.95 72.9 72.05 73.65 74.2 70.95 76.1 68.5 76.4 67.05 L76.45 71.75 Q76.2 75.2 74.6 75.7 L74.15 75.05 Q74.05 76.4 74.2 77.15 74.4 78.05 75.15 79.0 76.75 81.0 77.9 80.85 79.05 80.7 79.4 78.2 79.7 79.1 79.7 80.9 79.65 83.0 79.0 83.5 78.2 84.15 77.55 83.8 76.95 83.5 76.7 82.35 75.2 82.9 75.0 84.5 L74.85 87.5 Q72.4 87.35 71.75 87.95 71.05 88.55 71.25 91.85 L71.6 95.95 71.55 100.6 71.65 105.25 Q73.05 105.4 73.65 104.1 L74.3 101.65 74.65 104.35 Q74.6 106.1 73.5 106.3 72.9 108.75 73.65 110.2 74.45 111.85 76.3 109.3 L76.35 115.05 73.25 114.5 73.25 119.4 Q73.55 122.05 75.1 123.8 77.25 126.25 78.05 123.4 78.55 119.55 79.05 118.7 79.65 120.6 79.8 123.45 79.95 126.45 79.5 128.4 L78.75 129.9 Q78.45 130.8 80.1 131.15 82.1 131.55 82.2 128.8 L82.65 131.7 Q82.8 133.95 82.4 134.7 81.7 135.95 79.8 135.6 77.9 135.3 77.8 133.8 L77.7 137.35 Q78.25 137.75 79.15 137.75 L80.6 137.85 81.1 138.45 81.4 138.9 82.6 139.35 Q83.0 139.4 83.5 138.5 84.0 137.65 83.8 134.95 L83.45 131.4 83.4 126.5 Q83.35 123.5 83.8 121.7 85.6 124.2 85.8 129.65 86.05 135.7 86.95 137.65 L87.2 137.05 87.45 137.9 Q84.55 139.4 81.0 140.1 L76.0 140.55 Q68.6 140.75 65.45 140.35 61.4 139.8 60.7 139.1 60.1 138.55 60.05 137.25 L60.15 135.25 60.1 127.5 Q60.05 117.4 59.4 100.8 L58.5 74.05 Q58.35 66.9 57.4 50.35 56.5 35.1 56.45 26.6 L56.4 23.0 Q56.45 20.95 57.9 19.75 L61.35 17.55 62.85 16.6 Q63.5 16.3 64.85 16.15 L72.55 15.45 73.6 15.45 82.3 13.05 Q83.6 15.7 83.3 21.0" fill="#453219" fill-rule="evenodd" stroke="none"/>
    <path d="M74.75 44.1 Q75.05 44.9 74.85 49.3 75.05 53.2 77.4 52.7 77.65 53.9 77.25 54.55 76.8 55.3 75.6 55.15 74.25 53.55 74.25 50.9 74.25 40.05 73.9 30.55 L74.75 44.1" fill="#453219" fill-rule="evenodd" stroke="none"/>
    <path d="M75.15 80.75 Q75.95 88.9 76.05 102.35 76.05 105.55 76.45 106.25 77.15 107.4 79.4 105.4 79.75 106.8 79.0 107.55 78.3 108.3 76.85 108.05 75.45 107.8 75.05 106.6 L74.75 103.9 Q74.45 101.1 74.45 94.1 74.45 90.3 73.4 83.05 72.3 75.6 72.25 71.95 L75.15 80.75" fill="#453219" fill-rule="evenodd" stroke="none"/>
    <path d="M79.6 85.55 L79.35 89.8 Q79.25 92.6 80.15 93.65 L81.0 93.25 80.8 95.2 Q80.45 96.15 79.2 95.8 78.7 94.7 78.6 91.4 L78.6 86.95 Q78.55 82.75 77.5 77.6 L79.6 85.55" fill="#453219" fill-rule="evenodd" stroke="none"/>
    <path d="M76.55 51.55 L76.8 41.4 78.7 51.7 Q77.95 53.15 78.0 56.8 78.0 59.9 78.45 62.25 L79.05 63.4 Q79.45 63.95 79.25 64.65 L78.25 64.7 77.75 63.2 77.2 61.7 Q76.45 57.75 76.55 51.55" fill="#453219" fill-rule="evenodd" stroke="none"/>
    <path d="M80.95 102.4 L80.95 92.85 81.5 102.15 Q81.95 103.3 81.75 105.6 81.6 108.05 81.85 109.1 82.0 109.65 83.05 111.4 83.85 113.0 83.35 113.7 82.2 115.2 81.55 111.9 80.9 108.3 80.95 102.4" fill="#453219" fill-rule="evenodd" stroke="none"/>
    <path d="M78.0 22.45 Q77.4 21.6 76.45 21.25 L73.2 21.45 Q70.75 22.3 71.05 28.2 L72.05 28.25 73.1 28.3 Q73.15 29.65 72.1 29.75 71.15 29.8 70.5 28.75 69.85 27.65 69.75 25.3 L69.65 21.7 Q69.1 21.8 68.15 22.85 67.4 23.7 66.35 23.45 66.55 24.4 66.05 25.05 L65.0 26.4 Q64.55 27.3 64.0 29.95 63.8 31.0 63.95 32.95 L64.0 35.9 Q62.75 36.05 62.4 37.75 62.2 38.6 62.25 40.45 63.9 40.05 63.75 41.25 63.6 42.4 62.0 41.95 62.35 40.7 61.5 40.0 60.85 40.95 61.2 43.25 L61.75 46.7 Q61.85 48.8 61.45 52.7 61.15 54.8 61.75 59.25 L61.9 61.9 Q62.05 63.65 62.95 64.2 64.15 63.35 64.75 61.4 65.3 62.85 64.45 64.75 L63.05 68.0 62.85 70.4 62.9 72.75 62.85 75.35 62.95 77.95 Q63.05 79.05 63.75 80.2 L64.85 82.25 Q66.15 80.65 66.65 79.5 67.3 81.5 66.55 82.9 65.9 84.05 64.9 84.15 63.85 84.2 63.45 82.65 L63.5 91.3 63.25 95.85 Q63.15 98.95 63.75 100.2 L64.55 99.6 65.2 98.85 Q65.8 99.65 65.65 100.85 L65.2 102.9 Q64.6 105.45 64.65 108.35 L64.6 113.95 Q64.95 117.8 67.5 117.15 L67.6 116.0 Q68.1 117.6 67.25 118.35 65.9 119.5 65.65 120.1 65.2 121.4 65.95 123.75 66.65 126.15 67.75 126.9 68.0 125.0 69.2 125.9 71.15 127.3 71.95 127.25 L72.3 126.0 Q72.55 126.7 72.4 127.8 L72.2 129.5 Q72.2 131.15 72.9 132.05 73.75 133.25 75.1 131.6 75.25 133.35 74.65 133.85 L72.15 134.7 71.05 132.95 Q70.35 131.85 69.65 131.45 68.5 132.75 69.75 134.95 71.0 137.1 72.75 136.3 L73.2 138.05 73.35 139.9 73.85 139.45 74.2 138.8 Q74.9 140.3 76.2 140.05 76.3 138.4 78.1 138.65 L80.9 139.45 82.55 139.7 81.0 140.1 76.0 140.55 Q68.6 140.75 65.45 140.35 61.4 139.8 60.7 139.1 60.1 138.55 60.05 137.25 L60.15 135.25 60.1 127.5 Q60.05 117.4 59.4 100.8 L58.5 74.05 Q58.35 66.9 57.4 50.35 56.5 35.1 56.45 26.6 L56.4 23.0 Q56.45 20.95 57.9 19.75 L61.35 17.55 62.85 16.6 Q63.5 16.3 64.85 16.15 L72.55 15.45 73.6 15.45 82.3 13.05 Q83.65 15.7 83.3 20.9 82.5 20.1 80.95 19.9 L78.1 19.8 78.0 22.45" fill="#322310" fill-rule="evenodd" stroke="none"/>
    <path d="M85.65 135.0 Q86.9 134.9 88.45 137.3 86.75 138.4 83.7 139.35 85.05 138.6 85.65 135.0" fill="#322310" fill-rule="evenodd" stroke="none"/>
    <path d="M65.65 46.0 Q66.25 47.35 66.35 49.4 L66.5 52.85 Q66.75 54.95 67.25 55.6 67.95 56.55 69.85 56.4 70.2 58.1 67.3 58.1 65.6 58.1 65.2 57.35 64.95 56.9 64.9 54.8 L64.9 45.65 65.05 36.45 65.65 46.0" fill="#322310" fill-rule="evenodd" stroke="none"/>
    <path d="M67.95 65.25 Q67.5 66.55 67.35 70.0 67.1 73.8 67.75 74.75 L69.75 75.5 Q71.0 76.0 69.6 77.05 L67.75 77.1 Q66.9 76.6 66.45 75.7 66.0 74.75 66.1 71.9 L66.25 68.2 66.25 60.6 67.95 65.25" fill="#322310" fill-rule="evenodd" stroke="none"/>
    <path d="M68.15 87.15 L68.15 90.55 Q68.2 92.6 68.5 93.95 L69.0 95.05 Q69.35 95.75 69.2 96.4 67.35 96.8 67.15 90.0 L67.35 82.4 68.15 87.15" fill="#322310" fill-rule="evenodd" stroke="none"/>
    <path d="M72.25 81.7 L71.5 80.2 72.3 78.7 72.25 81.7 72.6 82.35 Q73.25 83.65 74.4 83.55 L74.4 84.45 Q72.55 85.0 72.25 82.45 L72.25 81.7" fill="#322310" fill-rule="evenodd" stroke="none"/>
    <path d="M69.5 105.05 L69.25 98.7 69.8 105.7 69.9 112.7 Q72.25 112.45 72.15 114.0 72.05 115.7 70.6 115.3 69.9 115.1 69.8 113.55 L69.85 111.4 69.5 105.05" fill="#322310" fill-rule="evenodd" stroke="none"/>
    <path d="M69.6 119.2 L70.15 120.35 70.65 121.35 71.75 121.75 72.45 122.3 Q72.8 122.65 71.9 123.3 69.4 125.1 68.1 120.0 67.15 116.35 67.25 113.7 L69.6 119.2" fill="#322310" fill-rule="evenodd" stroke="none"/>
    <path d="M74.85 127.15 L74.05 125.3 74.85 124.8 74.85 127.15 75.1 127.75 Q75.7 129.35 76.7 127.65 77.05 128.2 76.9 129.0 75.2 129.65 74.85 127.8 L74.85 127.15" fill="#322310" fill-rule="evenodd" stroke="none"/>
    <path d="M79.8 131.9 L80.9 131.65 Q81.45 132.55 80.6 133.55 79.75 134.5 78.7 134.05 77.85 133.7 77.85 131.05 L78.0 127.6 79.8 131.9" fill="#322310" fill-rule="evenodd" stroke="none"/>
    <path d="M69.2 50.45 Q69.25 53.8 68.55 54.35 L67.25 54.05 67.1 49.9 Q67.15 46.6 68.25 46.8 69.15 47.0 69.2 50.45" fill="#594020" fill-rule="evenodd" stroke="none"/>
    <path d="M64.6 53.05 Q64.7 53.8 65.4 55.35 L66.15 57.65 Q66.35 59.35 65.3 59.6 64.25 59.9 63.55 58.4 62.4 56.15 63.05 52.1 L64.1 45.8 Q63.95 49.65 64.6 53.05" fill="#594020" fill-rule="evenodd" stroke="none"/>
    <path d="M65.2 73.7 Q65.2 74.95 65.55 75.65 L66.85 77.0 Q67.55 77.7 66.9 78.7 66.1 79.95 65.3 79.4 64.65 78.95 64.3 77.75 63.7 75.75 63.85 72.2 63.95 69.1 64.45 66.8 L65.25 71.6 65.2 73.7" fill="#594020" fill-rule="evenodd" stroke="none"/>
    <path d="M70.75 78.7 L70.8 82.85 71.3 84.6 Q71.65 85.9 71.25 86.4 69.7 88.65 69.3 84.2 L69.2 78.9 70.75 78.7" fill="#594020" fill-rule="evenodd" stroke="none"/>
    <path d="M67.15 95.65 Q68.45 96.0 68.6 104.35 68.75 112.65 67.65 113.9 66.1 113.5 66.0 110.1 L66.2 105.35 66.1 94.0 Q66.1 87.4 66.6 82.65 L67.15 95.65" fill="#594020" fill-rule="evenodd" stroke="none"/>
    <path d="M73.8 127.55 Q74.85 128.1 75.7 129.3 76.7 130.8 75.65 131.4 74.55 132.1 74.1 130.45 L73.55 128.05 73.8 127.55" fill="#594020" fill-rule="evenodd" stroke="none"/>
    <path d="M81.5 33.65 Q81.5 36.0 82.05 40.5 82.6 45.05 82.6 47.35 L82.35 59.95 Q82.1 67.8 82.2 72.5 81.55 68.65 81.5 60.7 81.4 52.95 80.7 49.0 79.4 42.2 79.4 39.45 L79.6 36.25 79.65 33.1 81.5 33.65" fill="#6a4e29" fill-rule="evenodd" stroke="none"/>
    <path d="M76.55 37.1 Q77.0 38.4 77.1 40.2 L77.1 43.4 77.35 46.75 Q77.55 49.3 77.15 49.85 76.25 51.1 75.95 49.05 L75.75 46.1 Q75.55 43.1 75.45 31.05 L76.55 37.1" fill="#6a4e29" fill-rule="evenodd" stroke="none"/>
    <path d="M72.4 43.35 Q73.45 43.9 73.55 45.95 L73.45 49.1 Q71.6 49.5 70.95 44.4 L70.55 38.05 72.4 43.35" fill="#6a4e29" fill-rule="evenodd" stroke="none"/>
    <path d="M83.9 71.2 Q84.2 72.1 84.7 72.55 L84.95 71.9 85.5 77.5 Q85.85 80.45 85.9 85.5 85.9 91.45 86.05 93.45 L86.05 93.85 Q85.75 93.0 85.7 91.0 L85.5 88.4 Q85.0 86.25 83.8 84.55 L83.75 87.65 83.25 86.2 Q82.9 87.3 82.9 89.4 L82.7 92.65 Q80.05 90.25 79.8 83.65 L80.05 73.9 Q82.2 79.5 84.25 81.05 84.55 78.75 84.1 75.35 L83.35 69.65 83.9 71.2" fill="#6a4e29" fill-rule="evenodd" stroke="none"/>
    <path d="M83.85 97.9 Q84.75 100.8 84.95 104.15 85.2 108.0 84.35 110.4 L83.4 110.45 Q81.7 107.5 82.35 102.75 83.2 96.2 83.05 94.9 L83.85 97.9" fill="#6a4e29" fill-rule="evenodd" stroke="none"/>
    <path d="M84.45 113.95 Q86.6 116.3 87.2 121.2 87.5 123.95 87.35 129.2 86.0 129.4 85.0 121.9 L83.9 112.7 84.45 113.95" fill="#6a4e29" fill-rule="evenodd" stroke="none"/>
    <path d="M80.95 111.05 L81.3 117.4 Q82.7 119.8 83.45 123.95 84.45 129.4 81.4 129.4 80.65 127.65 80.8 124.0 L81.05 118.45 80.95 111.05" fill="#6a4e29" fill-rule="evenodd" stroke="none"/>
    <path d="M76.35 116.05 Q78.9 117.3 78.8 120.7 78.7 124.05 75.6 122.9 74.4 122.45 73.55 120.25 72.75 118.2 73.0 116.75 73.2 115.1 74.95 113.35 75.4 113.6 75.3 114.05 L76.35 116.05" fill="#6a4e29" fill-rule="evenodd" stroke="none"/>
    <path d="M77.6 98.35 L77.5 93.95 Q77.5 90.9 78.3 90.1 L78.4 93.4 78.6 96.75 79.2 100.2 Q79.5 102.3 78.65 103.45 77.3 102.65 77.6 98.35" fill="#6a4e29" fill-rule="evenodd" stroke="none"/>
    <path d="M71.75 95.55 Q71.7 91.2 73.4 89.55 74.55 90.7 74.75 96.4 74.95 102.25 73.45 103.25 L72.15 102.25 71.75 95.55" fill="#6a4e29" fill-rule="evenodd" stroke="none"/>
    <path d="M78.65 70.8 Q79.05 72.95 79.0 75.1 78.9 78.25 77.5 76.55 76.25 75.0 76.8 71.95 77.1 70.45 78.2 67.5 78.25 68.5 78.65 70.8" fill="#6a4e29" fill-rule="evenodd" stroke="none"/>
    <path d="M75.6 55.75 Q75.4 57.2 76.15 62.35 76.55 67.0 74.3 67.8 72.25 68.55 72.55 67.2 L73.6 64.65 Q74.35 62.85 74.85 60.25 L75.6 55.75" fill="#6a4e29" fill-rule="evenodd" stroke="none"/>
    <path d="M79.75 60.25 Q79.0 59.3 78.9 57.7 L79.0 55.0 Q81.25 55.3 81.3 58.85 81.35 62.25 79.9 63.7 79.35 63.15 79.25 62.1 L79.25 60.25 79.75 60.25" fill="#6a4e29" fill-rule="evenodd" stroke="none"/>
    <path d="M58.9 50.5 L60.0 61.05 Q61.35 73.25 61.45 90.85 L62.25 115.55 Q62.75 130.5 61.9 140.05 L59.2 141.25 Q57.65 142.05 56.5 142.25 L51.6 142.5 46.6 142.35 41.55 142.15 Q38.55 141.7 37.3 139.95 36.15 138.4 35.8 135.15 L35.4 130.05 Q34.85 125.9 34.6 119.0 L34.05 107.9 32.95 96.1 Q32.35 89.15 32.3 84.25 L32.35 76.5 Q32.45 72.1 33.05 68.8 33.65 65.55 34.9 61.2 L37.15 53.65 Q39.55 45.7 46.15 34.85 47.1 33.25 49.2 30.35 L52.25 25.9 53.75 23.75 Q54.55 22.4 54.3 21.3 L56.9 19.55 57.0 34.15 Q57.3 42.45 58.65 48.45 L58.9 50.5" fill="#594020" fill-rule="evenodd" stroke="none"/>
    <path d="M56.3 36.25 Q56.45 38.2 55.05 41.55 53.5 45.2 53.4 46.85 L53.1 51.6 Q53.05 55.05 53.95 56.0 54.2 55.75 54.6 55.6 L55.1 55.4 Q55.45 56.4 55.0 57.3 54.5 58.25 53.45 58.15 52.05 58.05 51.55 55.0 L50.6 50.95 49.1 52.05 Q48.3 52.7 48.0 53.35 47.65 54.05 47.4 56.3 47.0 58.4 47.0 61.95 L46.25 66.6 Q45.65 69.65 46.1 71.05 48.05 69.9 49.2 69.6 49.45 70.75 48.4 72.3 47.35 73.9 46.05 74.1 44.55 74.35 43.95 73.0 L43.4 70.25 43.3 75.85 Q43.25 79.25 43.55 81.3 L45.05 81.2 Q45.75 80.8 45.95 80.0 47.15 80.75 47.15 82.8 47.3 83.05 47.6 82.95 48.25 82.05 48.65 79.0 49.0 76.2 49.85 75.5 50.55 76.8 50.55 79.85 L50.15 84.45 Q49.8 86.85 48.6 86.7 47.65 86.55 45.95 84.6 L45.7 88.15 Q45.55 90.65 45.9 91.6 L46.8 92.55 Q47.35 92.85 47.2 93.55 47.2 93.3 46.3 94.05 L45.4 94.8 Q44.3 96.15 44.05 100.15 43.9 102.15 44.1 106.25 L44.2 110.85 Q44.75 114.1 47.2 112.45 48.1 111.85 48.85 109.15 L49.6 105.3 49.55 100.6 50.25 103.15 Q51.35 102.3 52.2 100.2 52.55 101.5 52.5 102.85 52.45 104.55 51.75 105.45 L51.15 105.05 Q50.15 106.2 50.3 108.9 L50.65 113.2 50.35 115.6 Q49.75 117.6 48.65 117.45 48.25 117.35 45.9 115.95 45.45 117.55 45.35 120.6 45.25 123.9 45.75 125.2 46.65 127.6 48.15 125.95 49.5 124.4 49.75 122.2 50.85 123.45 50.7 125.3 L50.25 128.05 Q50.15 129.65 51.1 130.45 52.1 131.3 53.1 129.8 53.45 129.25 53.4 127.65 L53.25 125.45 Q53.25 123.75 53.6 121.3 L54.2 117.1 54.5 110.75 Q54.4 107.55 54.55 105.95 55.35 107.0 55.25 109.7 L55.05 113.75 55.2 117.5 55.35 121.25 55.05 126.25 Q54.9 129.45 55.35 131.25 55.6 132.3 56.9 133.65 58.25 135.1 58.5 135.9 L58.75 133.2 59.1 130.55 Q59.65 131.8 59.7 134.85 59.75 138.05 60.15 139.3 L60.95 140.4 58.8 141.5 56.5 142.25 54.85 142.45 Q54.4 139.05 53.05 137.0 L53.4 141.45 53.5 142.5 46.6 142.35 41.55 142.15 Q38.55 141.7 37.3 139.95 36.15 138.4 35.8 135.15 L35.4 130.05 Q34.85 125.9 34.6 119.0 L34.05 107.9 32.95 96.1 Q32.35 89.15 32.3 84.25 L32.35 76.5 Q32.45 72.1 33.05 68.8 33.65 65.55 34.9 61.2 L37.15 53.65 Q39.55 45.7 46.15 34.85 47.1 33.25 49.2 30.35 L52.25 25.9 53.6 23.95 Q54.35 22.75 54.35 21.85 L56.9 21.2 57.1 36.8 56.3 36.25" fill="#453219" fill-rule="evenodd" stroke="none"/>
    <path d="M57.0 33.75 Q55.7 34.1 54.4 36.45 L52.85 39.85 Q52.75 40.1 52.8 40.7 L52.8 41.6 52.15 42.9 Q51.7 43.65 51.6 44.3 51.5 44.95 51.55 46.2 L51.55 48.05 Q50.4 47.25 48.25 51.15 46.4 54.45 45.9 56.6 L45.35 58.25 44.65 59.85 Q44.2 61.0 44.15 62.65 L44.1 65.55 Q43.9 65.0 43.65 63.45 L43.05 61.45 Q42.3 62.1 41.75 64.4 L41.05 67.65 Q40.7 69.15 41.15 72.55 L41.3 78.0 Q41.3 81.35 42.2 83.3 L43.45 83.35 Q43.55 84.3 42.7 84.85 L41.0 84.8 Q40.4 84.45 40.3 83.0 L39.6 90.55 Q39.4 93.25 39.6 93.75 39.75 94.2 40.3 94.3 40.8 94.45 40.95 95.0 L40.8 96.05 40.4 97.05 Q39.95 99.5 40.5 103.6 41.15 108.25 41.0 110.25 39.1 109.6 38.65 106.25 39.55 117.0 42.15 114.15 42.9 116.25 42.5 117.55 L41.85 117.55 Q41.5 123.0 41.9 127.05 L41.9 128.6 Q41.95 129.4 42.7 129.75 L43.95 129.9 44.8 129.15 Q45.0 129.8 45.0 132.1 45.2 134.05 46.8 133.6 46.9 130.9 47.25 129.65 L47.6 131.45 Q47.7 132.55 48.1 133.15 L49.75 131.4 Q50.8 132.7 48.95 136.3 47.35 139.5 49.95 140.9 L50.3 139.7 51.3 141.0 52.1 142.5 46.6 142.35 41.55 142.15 Q38.55 141.7 37.3 139.95 36.15 138.4 35.8 135.15 L35.4 130.05 Q34.85 125.9 34.6 119.0 L34.05 107.9 32.95 96.1 Q32.35 89.15 32.3 84.25 L32.35 76.5 Q32.45 72.1 33.05 68.8 33.65 65.55 34.9 61.2 L37.15 53.65 Q39.55 45.7 46.15 34.85 47.1 33.25 49.2 30.35 L52.25 25.9 53.35 24.3 54.25 22.6 Q55.6 21.9 56.9 21.45 L57.0 33.75" fill="#322310" fill-rule="evenodd" stroke="none"/>
    <path d="M55.9 134.2 Q56.65 136.05 57.25 136.7 58.65 135.4 58.25 138.75 L57.8 138.8 Q57.75 140.15 58.0 141.8 L56.5 142.25 54.15 142.5 Q54.75 140.7 54.5 137.15 54.25 133.1 54.45 131.8 55.2 132.5 55.9 134.2" fill="#322310" fill-rule="evenodd" stroke="none"/>
    <path d="M45.45 69.6 Q45.65 70.35 46.35 70.55 L47.7 70.4 Q48.1 71.5 47.1 72.3 46.15 73.1 45.0 72.8 L44.9 67.8 44.9 62.8 45.45 69.6" fill="#322310" fill-rule="evenodd" stroke="none"/>
    <path d="M47.35 81.65 Q47.75 82.85 48.55 82.8 49.4 82.8 49.65 81.55 50.45 84.05 48.15 83.75 45.8 83.5 46.3 81.1 L47.35 81.65" fill="#322310" fill-rule="evenodd" stroke="none"/>
    <path d="M49.6 110.45 Q49.65 112.8 49.0 114.0 48.1 115.7 46.0 114.15 44.5 113.05 44.3 109.65 L44.35 104.7 44.9 109.55 Q45.75 112.8 48.25 112.65 L48.3 110.15 49.6 110.45" fill="#322310" fill-rule="evenodd" stroke="none"/>
    <path d="M46.0 125.1 Q46.1 126.3 47.25 126.35 48.35 126.45 48.55 125.2 48.75 126.45 48.1 127.7 47.3 129.15 46.05 128.85 L45.4 124.4 44.7 119.85 46.0 125.1" fill="#322310" fill-rule="evenodd" stroke="none"/>
    <path d="M51.9 58.4 L51.7 64.2 Q51.9 67.95 54.0 69.25 54.9 68.45 55.9 67.9 56.45 68.95 55.9 70.0 55.4 70.9 54.25 71.3 52.5 71.85 50.95 70.45 49.55 69.25 49.1 67.4 48.6 65.5 49.1 61.3 49.8 55.55 49.8 51.6 L51.9 58.4" fill="#453219" fill-rule="evenodd" stroke="none"/>
    <path d="M53.05 74.95 Q51.75 76.8 52.55 79.1 53.35 81.5 55.9 80.55 56.05 82.2 55.2 83.25 54.15 84.4 52.5 83.55 50.8 82.65 50.8 78.8 L51.2 73.4 53.05 74.95" fill="#453219" fill-rule="evenodd" stroke="none"/>
    <path d="M51.9 87.7 L52.05 88.2 Q52.4 89.05 53.45 89.0 53.75 90.1 53.1 90.3 52.55 90.45 52.0 89.7 L51.9 87.75 51.9 87.7" fill="#453219" fill-rule="evenodd" stroke="none"/>
    <path d="M56.75 95.7 L57.05 97.55 Q57.4 99.05 56.3 99.5 55.25 100.0 54.4 99.0 53.5 98.0 53.5 95.45 L53.6 91.75 Q53.95 94.1 55.65 96.35 57.05 98.2 56.75 95.7" fill="#453219" fill-rule="evenodd" stroke="none"/>
    <path d="M48.25 89.25 Q48.2 89.8 49.65 94.55 50.75 98.9 49.1 98.15 47.8 97.6 47.85 93.95 L48.25 89.25" fill="#453219" fill-rule="evenodd" stroke="none"/>
    <path d="M54.4 103.4 L54.7 97.5 56.3 103.25 56.55 107.85 Q57.05 110.7 59.5 109.0 59.65 111.2 57.85 111.0 56.05 110.8 55.25 109.25 54.3 107.35 54.4 103.4" fill="#453219" fill-rule="evenodd" stroke="none"/>
    <path d="M51.1 107.7 L50.85 111.45 Q50.95 113.7 52.95 113.5 L53.0 115.7 Q52.8 117.15 51.7 116.95 50.0 116.65 49.65 109.65 L49.55 101.7 51.1 107.7" fill="#453219" fill-rule="evenodd" stroke="none"/>
    <path d="M55.75 42.65 Q57.05 44.55 56.8 48.4 56.6 51.95 55.4 54.15 54.2 52.9 54.3 47.9 L54.7 41.35 55.75 42.65" fill="#6a4e29" fill-rule="evenodd" stroke="none"/>
    <path d="M52.95 55.65 Q52.7 56.8 53.85 57.85 55.3 59.2 55.55 59.8 56.2 61.35 56.15 64.3 56.15 67.7 54.8 68.2 53.4 65.9 52.95 62.45 52.7 60.55 52.7 56.4 L52.95 55.65" fill="#6a4e29" fill-rule="evenodd" stroke="none"/>
    <path d="M48.9 58.1 L48.85 61.25 Q48.8 63.2 48.9 64.35 L49.35 66.5 Q49.65 67.9 49.4 68.65 48.75 70.6 47.5 69.3 47.15 69.0 47.3 67.35 L47.5 65.35 47.45 54.1 48.9 58.1" fill="#6a4e29" fill-rule="evenodd" stroke="none"/>
    <path d="M47.85 74.9 Q48.75 75.6 48.8 77.95 48.8 80.0 48.35 81.4 46.9 80.95 46.8 77.3 L47.05 72.6 47.85 74.9" fill="#6a4e29" fill-rule="evenodd" stroke="none"/>
    <path d="M56.3 80.05 Q54.0 81.1 53.25 77.7 52.85 73.65 52.5 72.7 L53.25 71.7 54.2 73.5 Q54.75 74.85 55.25 75.0 56.0 75.25 56.4 74.5 57.05 73.25 57.25 73.1 58.6 73.95 58.1 76.75 57.65 79.4 56.3 80.05" fill="#6a4e29" fill-rule="evenodd" stroke="none"/>
    <path d="M57.3 94.0 Q55.95 92.05 55.8 88.55 L55.95 82.75 57.0 84.75 Q58.0 85.4 58.1 89.15 58.2 92.85 57.3 94.0" fill="#6a4e29" fill-rule="evenodd" stroke="none"/>
    <path d="M57.95 72.5 L57.8 70.65 57.35 68.35 55.4 61.1 Q54.35 56.65 54.75 53.7 L55.65 55.75 56.85 57.5 Q57.7 56.4 57.85 53.85 L58.1 49.95 58.0 57.65 58.2 65.3 58.55 69.25 Q58.65 71.6 57.95 73.0 L57.95 72.5" fill="#6a4e29" fill-rule="evenodd" stroke="none"/>
    <path d="M51.0 86.95 Q51.1 92.45 51.55 95.9 52.0 99.45 50.3 100.65 L50.0 97.45 49.95 94.15 49.35 87.65 Q49.05 83.65 49.7 81.15 L51.0 86.95" fill="#6a4e29" fill-rule="evenodd" stroke="none"/>
    <path d="M57.85 99.3 Q59.25 95.15 59.35 91.1 59.35 98.15 59.65 101.05 L60.25 104.35 Q60.45 106.4 59.4 107.35 57.5 105.55 57.2 103.6 56.95 101.9 57.85 99.3" fill="#6a4e29" fill-rule="evenodd" stroke="none"/>
    <path d="M55.4 113.3 Q55.4 111.6 56.5 111.35 57.65 111.1 58.15 112.25 L58.65 114.25 59.2 118.75 Q59.5 122.65 59.0 122.9 58.85 123.0 58.75 122.8 58.15 124.5 58.5 128.95 58.8 133.05 57.7 135.05 55.9 134.3 55.65 130.95 L55.65 125.9 55.6 115.8 Q55.35 114.2 55.4 113.3" fill="#6a4e29" fill-rule="evenodd" stroke="none"/>
    <path d="M62.4 121.7 L61.9 125.05 61.75 128.7 Q61.45 131.25 60.0 131.55 58.5 131.9 58.15 130.7 L57.95 128.25 57.75 124.45 57.7 120.7 Q57.75 118.7 59.15 115.3 60.6 111.7 60.75 109.9 61.6 112.45 61.55 113.6 L62.1 112.7 62.4 121.7" fill="#6a4e29" fill-rule="evenodd" stroke="none"/>
    <path d="M48.2 99.2 L48.4 97.95 Q48.1 98.7 48.55 100.5 L49.2 103.2 49.45 106.0 Q49.4 107.65 48.8 108.65 46.4 108.5 46.05 103.9 45.75 100.15 46.6 97.7 46.6 98.6 47.0 99.4 47.45 100.3 48.2 100.6 L48.2 99.2" fill="#6a4e29" fill-rule="evenodd" stroke="none"/>
    <path d="M53.5 113.5 L53.75 118.8 Q53.8 122.3 53.05 123.95 51.8 122.1 51.85 118.8 L52.1 113.45 51.75 108.7 Q51.6 105.7 52.6 104.35 53.95 105.7 53.85 108.75 L53.5 113.5" fill="#6a4e29" fill-rule="evenodd" stroke="none"/>
    <path d="M126.55 80.7 L130.5 78.2 Q130.45 80.95 131.05 86.75 131.65 92.3 131.5 95.3 L131.15 98.85 Q130.7 101.0 129.55 101.9 L127.75 100.3 Q126.7 102.7 126.65 103.95 125.65 101.7 126.45 97.35 127.45 92.0 127.35 90.6 126.95 91.0 126.1 92.8 125.95 90.6 126.25 86.75 L126.55 80.7" fill="#322310" fill-rule="evenodd" stroke="none"/>
    <path d="M128.7 100.3 L131.35 104.35 Q130.75 106.5 130.65 114.6 130.6 120.95 128.0 124.45 L127.1 123.45 126.0 122.65 125.45 123.4 124.65 123.8 124.1 112.2 Q124.4 112.8 124.9 115.65 125.25 117.8 126.6 118.7 126.75 117.6 126.5 114.25 126.3 111.25 126.7 109.8 L127.2 108.85 127.7 107.75 127.75 106.55 127.7 105.35 Q127.75 104.3 128.15 102.8 L128.7 100.3" fill="#322310" fill-rule="evenodd" stroke="none"/>
    <path d="M114.65 35.8 L114.7 49.55 113.55 40.3 Q113.15 38.3 113.1 37.3 L112.3 33.95 Q111.65 31.85 111.75 30.7 L114.65 35.8" fill="#322310" fill-rule="evenodd" stroke="none"/>
    <path d="M111.0 33.25 L110.6 37.9 Q110.4 40.6 110.75 42.6 110.9 43.55 111.65 45.2 112.4 46.85 112.55 47.8 111.35 47.85 110.35 45.95 L109.2 42.95 Q108.2 40.0 108.45 35.1 L108.85 27.15 111.0 33.25" fill="#322310" fill-rule="evenodd" stroke="none"/>
    <path d="M106.85 34.45 L106.45 31.4 109.05 24.9 Q116.35 29.15 119.15 33.75 L121.55 38.45 123.85 43.2 Q124.9 45.2 125.7 48.3 L127.05 53.55 Q131.35 69.0 135.25 81.45 136.0 83.95 135.6 86.65 135.3 88.75 134.1 91.75 129.8 102.85 128.3 108.2 L128.05 109.3 127.6 110.25 127.1 106.4 Q126.7 103.75 125.5 103.1 124.95 103.55 124.95 104.85 L125.0 106.75 125.0 112.45 Q124.95 110.15 123.95 105.75 L123.6 103.7 Q123.3 102.4 122.75 101.85 L122.4 102.7 122.2 100.7 122.2 98.65 121.75 96.45 Q121.45 95.1 121.75 94.25 122.15 93.15 124.15 91.3 126.05 89.55 126.4 88.15 126.65 87.0 126.45 84.7 L126.05 81.25 125.9 78.15 Q125.65 76.15 124.9 75.25 121.9 79.45 121.95 87.35 L121.8 86.2 121.6 84.25 121.75 68.65 121.9 63.35 Q121.75 60.05 120.35 58.55 119.75 59.5 119.8 61.3 L119.85 62.1 119.05 59.0 Q117.95 55.55 118.05 53.75 L118.35 51.35 Q118.5 49.95 118.2 49.05 117.2 45.95 113.3 41.05 112.45 39.9 111.65 39.5 L111.2 41.5 Q110.75 41.05 109.9 38.45 109.0 36.35 107.85 37.35 107.15 36.3 106.85 34.45" fill="#322310" fill-rule="evenodd" stroke="none"/>
    <path d="M137.6 36.75 Q137.9 34.75 137.8 31.9 L137.55 27.0 Q137.5 25.3 137.85 22.9 L138.3 18.9 Q139.2 22.3 139.55 26.75 L139.95 34.8 139.95 38.9 Q139.8 40.7 138.75 42.5 L136.3 45.95 Q135.0 47.85 134.95 49.75 134.8 53.25 135.65 57.4 L137.45 64.8 Q138.25 68.3 138.65 73.95 L139.25 83.25 Q139.65 87.8 141.45 95.6 141.9 97.45 143.75 101.05 145.55 104.4 145.9 106.55 146.25 108.5 146.45 114.5 146.65 119.5 147.6 122.45 148.4 125.15 148.35 126.3 148.2 127.95 146.55 129.7 141.8 134.55 135.35 132.85 132.25 132.0 130.85 131.0 128.85 129.6 128.45 127.2 128.1 124.9 128.25 121.05 L128.35 114.8 Q128.05 107.35 128.3 103.65 L129.25 96.9 Q129.9 92.8 129.5 90.0 129.25 88.15 128.1 84.45 126.95 80.8 126.7 78.85 L125.0 65.4 Q123.85 57.75 121.85 52.3 L119.95 47.65 Q118.85 44.9 118.4 42.85 117.6 39.0 116.9 37.45 115.85 35.15 113.35 33.15 L108.55 29.65 Q102.8 25.15 93.35 20.05 90.1 18.25 86.95 17.7 L80.0 17.35 Q67.15 17.65 54.95 11.15 L52.45 9.8 Q51.05 8.85 51.9 8.0 L54.85 7.85 57.9 8.45 Q58.35 8.6 60.4 10.05 61.9 11.1 63.15 10.9 62.1 9.8 62.05 7.45 62.0 5.4 62.55 3.8 64.05 7.05 64.9 8.15 66.5 10.45 68.85 11.0 L73.6 11.1 78.3 10.55 85.2 10.85 91.9 11.5 97.1 12.0 Q99.35 12.5 101.55 14.3 L104.55 16.15 107.55 17.85 109.55 19.65 111.45 21.6 115.3 25.6 Q117.6 28.05 119.45 29.2 L122.3 30.45 Q124.2 31.2 125.0 31.8 125.95 32.55 126.8 35.1 127.85 38.05 128.4 38.9 130.05 41.3 131.85 41.75 133.8 42.25 135.65 40.35 137.25 38.8 137.6 36.75" fill="#a59558" fill-rule="evenodd" stroke="none"/>
    <path d="M33.2 98.3 Q31.85 95.95 31.85 93.0 L31.65 89.85 Q31.5 87.75 32.0 86.85 32.55 85.85 34.6 84.85 L37.25 83.0 44.8 86.1 46.5 88.1 Q47.1 88.95 47.4 90.5 48.15 94.15 46.45 96.9 44.85 99.5 42.55 100.75 40.1 102.1 37.35 101.5 34.75 100.95 33.2 98.3" fill="#d7c47b" fill-rule="evenodd" stroke="none"/>
    <path d="M34.4 85.2 L37.5 84.75 Q40.4 85.85 41.3 87.45 L42.5 91.5 41.9 90.1 Q41.8 91.95 42.6 93.35 L42.3 92.7 Q44.0 95.05 44.05 97.2 43.1 96.45 42.4 94.2 L41.15 90.8 40.85 91.8 40.95 91.8 41.15 93.95 41.15 94.1 41.0 93.45 Q40.75 92.55 40.85 91.8 39.8 91.95 39.7 93.55 39.65 95.25 40.95 94.95 40.3 95.95 39.35 96.05 L40.6 97.25 40.2 97.35 Q41.4 98.05 41.8 96.65 42.45 98.7 38.25 97.9 38.25 98.75 39.35 98.85 L41.2 98.85 Q41.25 100.1 39.7 100.4 38.25 100.65 37.1 100.1 36.0 99.6 35.35 98.4 L34.45 96.2 Q33.15 92.2 33.4 89.25 L33.9 87.2 34.4 85.2 M39.35 96.05 Q38.65 95.05 38.85 93.9 38.6 95.05 39.15 96.05 L39.35 96.05" fill="#ac9b65" fill-rule="evenodd" stroke="none"/>
    <path d="M35.2 87.2 Q36.6 87.15 37.7 88.3 L39.5 90.45 37.6 89.75 Q37.4 90.85 37.75 91.4 L38.5 92.6 Q39.05 93.9 38.85 95.2 L38.55 97.8 38.05 97.35 Q38.05 98.65 37.5 99.7 36.75 101.0 35.5 100.75 34.0 100.5 33.05 97.65 32.4 95.75 32.15 93.45 31.9 91.3 32.35 88.4 L33.1 83.45 35.2 87.2" fill="#715d2d" fill-rule="evenodd" stroke="none"/>
    <path d="M138.75 42.5 L136.7 45.4 Q135.5 47.05 135.15 48.35 L134.0 47.35 134.95 49.95 Q134.9 52.4 135.2 54.85 L134.4 53.8 Q134.2 54.7 132.85 56.3 131.7 57.6 132.0 59.35 L128.55 59.35 128.35 62.6 Q128.4 64.6 129.2 65.5 L130.7 62.75 Q130.9 63.5 129.85 71.15 128.95 77.2 131.7 78.1 132.45 77.5 133.05 76.2 L133.9 73.95 Q134.15 74.8 134.1 78.25 134.35 81.15 136.55 80.55 L136.65 79.6 136.55 78.65 Q137.3 80.4 136.7 83.25 136.0 86.3 134.1 84.15 134.2 85.5 135.5 90.7 136.5 94.75 135.95 97.3 135.7 98.5 134.55 99.95 133.4 101.45 133.15 102.3 132.7 103.95 133.45 107.15 134.05 109.9 134.95 111.85 135.85 109.9 135.9 106.05 L136.0 100.0 Q137.4 103.05 136.4 108.5 135.2 115.3 135.35 117.05 L137.7 117.0 Q138.9 116.75 139.7 117.95 140.4 115.65 140.1 111.25 139.75 105.85 139.85 104.4 L140.45 108.7 Q140.9 111.6 141.85 112.4 L142.25 111.25 Q143.35 113.7 142.65 117.05 141.85 120.85 138.9 119.95 138.9 122.0 138.45 123.0 140.15 123.4 139.75 124.5 139.35 125.6 137.8 125.5 137.7 128.0 138.0 129.1 138.45 130.5 140.0 132.05 L140.15 130.95 140.35 129.85 Q141.3 129.8 141.9 130.55 142.4 131.2 142.45 132.2 143.5 130.95 143.4 127.4 143.25 123.45 143.8 122.2 144.9 123.45 145.45 125.8 L146.1 130.05 Q141.5 134.5 135.35 132.85 132.25 132.0 130.85 131.0 128.85 129.6 128.45 127.2 128.1 124.85 128.3 119.1 L128.35 117.35 Q129.15 113.05 128.2 108.85 L128.3 103.65 129.25 96.9 Q129.9 92.8 129.5 90.0 129.25 88.15 128.1 84.45 126.95 80.8 126.7 78.85 L125.0 65.4 Q123.85 57.75 121.85 52.3 L119.95 47.65 Q118.85 44.9 118.4 42.85 117.6 39.0 116.9 37.45 115.85 35.15 113.35 33.15 L108.55 29.65 Q102.8 25.15 93.35 20.05 90.1 18.25 86.95 17.7 L80.0 17.35 Q67.15 17.65 54.95 11.15 L52.45 9.8 Q51.05 8.85 51.9 8.0 L52.95 7.75 56.6 10.2 Q58.2 11.2 60.75 11.8 L65.2 12.35 64.45 12.15 67.45 12.1 68.95 11.05 Q70.65 11.45 73.65 11.05 L78.3 10.55 83.0 10.7 84.25 10.95 Q83.2 11.7 80.55 12.15 L76.65 13.1 82.0 13.2 78.55 13.5 Q76.6 13.8 76.55 15.45 L82.85 15.6 87.3 15.2 Q90.25 14.95 91.65 15.6 L91.1 15.7 93.4 17.25 Q94.8 18.1 95.85 18.4 L96.0 17.45 100.15 19.1 Q102.7 20.15 104.2 21.1 L104.35 19.25 Q106.15 20.2 105.65 22.15 L104.35 22.3 Q104.6 23.0 105.8 23.65 L107.7 24.55 109.65 26.05 111.6 27.55 Q113.15 28.45 114.75 28.65 L118.45 28.5 119.35 29.15 118.9 32.05 Q118.7 33.75 119.7 34.75 L120.8 33.65 Q122.0 34.4 123.0 36.6 L124.65 40.1 125.25 37.55 Q126.15 38.6 126.65 39.9 127.25 41.35 127.0 42.55 L124.95 42.35 Q123.95 41.9 123.55 40.95 122.75 43.95 126.3 43.6 L126.7 44.45 127.05 45.2 127.8 44.25 128.4 43.15 Q129.05 43.25 129.8 43.9 L131.15 44.9 132.0 44.0 132.8 43.1 133.1 43.65 Q134.05 43.35 135.0 41.8 L136.55 39.45 137.0 40.3 Q137.25 40.75 137.15 41.35 L138.0 35.05 Q138.5 31.25 139.3 28.8 L139.7 29.45 139.95 34.8 139.95 38.9 Q139.8 40.7 138.75 42.5" fill="#907e4a" fill-rule="evenodd" stroke="none"/>
    <path d="M147.45 128.55 L146.55 129.7 146.45 129.75 Q146.55 128.75 146.8 128.3 L147.45 128.55" fill="#907e4a" fill-rule="evenodd" stroke="none"/>
    <path d="M138.75 42.5 L136.55 45.55 Q135.35 47.25 135.05 48.7 L134.85 49.6 134.6 50.65 133.95 50.75 133.15 50.95 Q132.85 51.35 132.3 53.4 131.55 52.4 131.6 51.5 L130.85 55.0 Q129.7 54.95 128.15 53.8 L125.95 51.7 125.9 53.55 Q124.6 53.25 123.55 52.05 123.6 54.85 126.35 60.15 128.8 64.85 128.15 67.85 127.45 71.2 128.25 76.2 129.05 81.25 130.75 84.05 L131.35 82.2 Q131.7 83.0 131.7 84.35 L131.7 86.6 Q131.9 88.2 132.8 88.95 133.8 89.8 134.15 90.85 L134.1 92.3 133.6 93.55 Q133.0 96.15 132.8 101.3 L132.25 108.35 Q131.9 112.75 132.5 115.35 132.65 116.0 134.15 118.5 135.05 120.6 132.2 120.05 132.05 121.05 132.45 122.0 L133.3 123.65 133.9 123.85 Q134.45 124.0 134.65 124.35 L134.7 125.2 134.65 126.1 Q135.6 130.9 136.3 133.0 L135.35 132.85 Q132.25 132.0 130.85 131.0 128.85 129.6 128.45 127.2 128.1 124.85 128.3 119.1 L128.35 117.35 Q129.15 113.05 128.2 108.85 L128.3 103.65 129.25 96.9 Q129.9 92.8 129.5 90.0 129.25 88.15 128.1 84.45 126.95 80.8 126.7 78.85 L125.0 65.4 Q123.85 57.75 121.85 52.3 L119.95 47.65 Q118.85 44.9 118.4 42.85 117.6 39.0 116.9 37.45 115.85 35.15 113.35 33.15 L108.55 29.65 Q102.8 25.15 93.35 20.05 90.1 18.25 86.95 17.7 L80.0 17.35 Q67.15 17.65 54.95 11.15 L52.6 9.9 Q51.2 8.95 51.75 8.2 54.1 9.6 57.4 10.75 60.15 11.7 62.45 12.1 L66.0 12.35 Q67.4 12.25 69.8 11.15 L75.15 10.85 73.95 12.1 Q74.45 12.85 74.05 13.65 L73.0 15.05 Q74.95 16.1 79.35 15.65 84.3 15.15 85.9 15.55 87.65 16.05 90.4 17.25 L94.8 19.35 Q96.6 20.2 98.3 20.5 L102.15 20.85 Q100.8 23.15 104.0 25.45 L109.55 28.65 Q111.9 30.6 113.15 31.1 L115.3 31.6 117.55 31.1 117.85 34.7 Q118.15 36.25 119.05 38.0 L120.9 42.15 122.5 46.4 Q123.7 45.0 125.5 45.65 L129.15 46.85 131.6 46.95 Q132.4 46.75 133.65 45.05 L134.75 43.3 135.75 41.6 Q136.2 42.4 136.15 44.1 136.25 43.2 136.8 42.45 137.5 41.45 138.6 40.9 L139.0 42.0 138.75 42.5" fill="#5e4b2a" fill-rule="evenodd" stroke="none"/>
    <path d="M103.1 16.05 Q97.65 13.05 91.9 13.0 L86.85 13.15 Q83.65 13.05 82.25 11.85 83.25 11.35 85.6 11.4 L89.3 11.6 92.1 11.65 96.55 12.2 101.0 12.75 99.95 12.85 99.05 13.05 100.95 14.6 103.1 16.05" fill="#dacc89" fill-rule="evenodd" stroke="none"/>
    <path d="M99.35 15.6 Q96.7 16.25 95.5 14.7 L97.65 14.6 Q98.95 14.65 99.35 15.6" fill="#dacc89" fill-rule="evenodd" stroke="none"/>
    <path d="M102.2 14.8 Q103.1 15.45 104.85 16.35 L107.55 17.85 109.55 19.65 111.45 21.6 114.35 24.65 117.4 27.65 117.3 27.7 Q116.15 26.95 113.2 25.35 110.65 23.8 109.65 22.35 L110.65 22.05 Q107.25 20.35 105.6 19.15 102.75 17.05 102.2 14.8" fill="#dacc89" fill-rule="evenodd" stroke="none"/>
    <path d="M120.8 31.05 Q120.55 30.75 120.55 29.75 123.85 30.9 125.0 31.8 125.95 32.55 126.8 35.1 127.85 38.05 128.4 38.9 130.75 42.3 133.3 41.8 131.75 43.2 130.2 42.3 129.05 41.6 125.6 37.0 125.15 36.4 124.85 34.95 L124.25 33.05 Q123.8 32.4 122.45 31.95 121.15 31.5 120.8 31.05" fill="#dacc89" fill-rule="evenodd" stroke="none"/>
    <path d="M137.45 76.75 L136.3 72.85 Q135.8 75.25 134.45 76.6 133.9 75.35 134.15 71.55 135.05 71.15 135.45 71.1 135.55 69.75 134.6 67.75 133.45 65.4 133.3 64.5 134.2 64.35 135.2 64.95 L136.9 66.15 136.55 61.15 137.45 64.8 Q138.2 67.9 138.55 72.45 L139.05 80.4 138.75 80.6 137.45 76.75" fill="#dacc89" fill-rule="evenodd" stroke="none"/>
    <path d="M140.2 99.4 Q139.9 95.15 140.1 92.45 L141.1 94.1 141.45 95.6 Q141.9 97.45 143.75 101.05 145.55 104.4 145.9 106.55 146.25 108.65 146.45 113.85 146.6 118.55 147.25 121.15 145.85 118.0 145.4 114.85 145.2 113.35 145.15 110.75 L144.95 106.6 Q144.7 107.4 144.7 109.25 L144.4 112.05 144.0 109.3 Q143.75 108.35 142.95 107.05 140.05 102.5 138.65 99.35 136.7 94.85 136.55 90.85 137.05 92.5 138.3 95.15 L140.2 99.4" fill="#dacc89" fill-rule="evenodd" stroke="none"/>
    <path d="M137.35 116.8 Q137.0 115.7 137.05 113.35 L137.1 109.75 Q136.65 103.95 136.65 96.3 L137.35 100.35 Q138.0 102.05 138.35 105.0 138.7 108.5 139.0 109.75 L140.4 113.4 Q141.35 116.0 140.9 117.05 140.15 119.0 139.0 118.7 137.95 118.4 137.35 116.8" fill="#dacc89" fill-rule="evenodd" stroke="none"/>
    <path d="M135.6 99.3 Q136.6 101.25 136.55 104.9 L136.35 110.65 Q135.15 108.7 134.95 105.35 134.75 102.05 135.6 99.95 L135.6 99.3" fill="#dacc89" fill-rule="evenodd" stroke="none"/>
    <path d="M143.65 118.15 Q144.2 119.4 144.35 123.15 144.5 127.35 143.25 127.8 141.3 128.55 141.55 123.3 141.6 121.4 142.25 117.15 L143.65 118.15" fill="#dacc89" fill-rule="evenodd" stroke="none"/>
    <path d="M120.9 44.6 L122.9 46.2 123.9 45.9 Q123.95 46.8 124.5 47.45 125.1 48.15 125.95 48.2 L126.05 47.6 Q128.05 49.1 130.8 48.35 L135.4 46.4 Q135.3 48.5 131.95 50.35 130.45 51.15 129.45 51.0 L127.0 50.35 124.65 50.15 Q123.65 50.0 122.9 49.2 122.35 48.6 121.85 47.0 L120.9 44.6" fill="#402c0b" fill-rule="evenodd" stroke="none"/>
    <path d="M115.85 37.75 Q116.3 38.95 117.6 40.5 L119.5 43.05 Q120.05 44.2 120.3 46.45 120.55 48.8 121.05 49.9 L124.45 57.65 Q126.25 62.35 126.45 65.85 L126.55 72.1 126.0 69.95 Q125.1 67.1 123.7 60.55 122.4 54.45 121.25 51.2 120.75 49.8 119.05 47.35 117.4 44.95 116.85 43.5 116.05 41.4 115.6 39.4 115.15 37.35 114.1 35.45 L111.65 31.65 115.85 37.75" fill="#4c3c21" fill-rule="evenodd" stroke="none"/>
    <path d="M126.55 72.1 L127.2 76.85 127.5 81.8 127.5 81.85 Q126.65 78.3 126.55 72.1" fill="#4c3c21" fill-rule="evenodd" stroke="none"/>
    <path d="M132.1 97.3 L131.05 102.55 129.65 108.25 Q128.9 113.0 131.05 113.0 131.3 113.9 131.0 114.6 L130.05 114.35 Q129.3 116.35 129.9 117.7 130.4 118.75 132.25 120.15 129.4 121.25 129.5 123.4 129.6 124.65 130.5 127.55 L131.2 125.7 Q132.35 126.3 132.6 128.5 L132.9 131.95 Q128.0 132.25 127.2 125.7 L127.6 123.9 128.1 120.65 128.35 117.4 Q129.3 112.1 127.7 106.95 L127.35 106.0 Q127.45 97.75 128.25 90.85 128.45 89.0 128.1 86.3 L127.5 81.85 Q128.2 84.6 129.55 86.8 L131.35 89.05 Q132.2 90.15 132.4 91.95 132.6 94.2 132.1 97.3" fill="#4c3c21" fill-rule="evenodd" stroke="none"/>
    <path d="M137.65 67.0 L136.5 64.4 135.05 61.1 Q134.15 59.0 134.35 57.8 L135.3 58.4 Q135.45 57.3 134.55 55.75 L133.35 53.2 Q133.2 52.55 133.2 50.5 L133.2 50.05 134.8 48.2 Q135.1 52.1 136.7 55.7 L138.05 62.6 Q138.85 66.7 138.8 69.6 L137.65 67.0" fill="#dacc89" fill-rule="evenodd" stroke="none"/>
    <path d="M134.05 86.55 Q134.0 88.4 134.1 89.05 L134.35 91.9 Q134.3 93.35 133.7 94.6 133.5 92.35 133.05 91.6 132.65 90.9 132.1 90.75 L131.1 90.3 Q129.95 89.35 128.85 86.6 L127.1 82.2 127.6 76.65 131.25 80.0 Q133.35 82.0 133.85 84.05 L134.05 86.55" fill="#4c3c21" fill-rule="evenodd" stroke="none"/>
    <path d="M78.15 7.05 L75.5 9.95 Q74.95 10.6 74.0 12.55 73.0 14.15 71.75 14.05 L71.2 13.55 Q73.8 5.7 82.65 3.05 87.8 1.5 99.0 1.35 L94.55 1.8 89.65 2.75 85.4 3.5 Q82.9 4.0 81.3 4.7 79.85 5.3 78.15 7.05" fill="#5e4b2a" fill-rule="evenodd" stroke="none"/>
    <path d="M86.8 87.45 Q89.75 87.25 106.4 87.55 118.35 87.7 125.8 85.95 L128.4 88.5 Q128.45 90.95 129.1 96.1 129.45 100.65 128.2 103.5 127.35 102.45 127.45 99.45 127.6 96.35 126.85 95.35 L126.35 95.0 Q126.05 95.0 125.85 94.8 125.2 94.1 125.2 93.15 L124.9 91.4 Q124.55 90.7 122.65 90.6 120.8 90.5 119.9 91.1 L119.2 91.75 118.35 92.4 117.15 92.7 Q116.45 92.85 116.05 93.2 L116.05 93.65 116.05 94.15 115.45 94.5 114.85 94.8 Q114.0 95.65 113.7 97.5 L113.45 100.45 Q113.05 100.85 113.0 102.05 112.95 103.2 112.5 103.65 L112.1 98.65 112.1 96.75 Q112.05 95.5 111.35 95.1 L109.4 95.15 107.65 96.1 106.3 96.05 105.0 95.85 103.65 95.9 102.3 96.15 100.05 96.5 Q99.2 96.7 98.15 97.6 97.5 98.2 96.45 98.5 L94.55 99.05 Q93.35 99.5 92.55 100.65 L91.1 102.85 89.65 104.9 Q88.95 106.0 88.7 107.15 L88.35 108.65 87.75 110.05 Q87.25 108.5 87.2 106.15 L87.25 102.15 87.1 100.6 Q86.85 99.85 86.0 99.5 84.15 98.6 81.1 98.4 L76.1 98.75 Q75.4 99.0 73.15 100.15 71.45 101.1 70.05 101.2 67.55 101.45 66.05 103.45 65.55 104.1 64.8 105.45 L63.5 107.5 Q62.55 108.8 62.5 109.8 L62.1 103.95 58.5 103.7 54.9 103.15 50.8 103.45 Q49.65 103.6 47.95 104.5 L45.2 105.8 42.1 106.35 Q40.45 106.7 39.6 107.85 L39.0 109.1 38.75 110.45 37.2 117.05 Q36.5 119.65 36.2 124.4 35.3 122.95 35.05 118.35 L34.2 106.7 33.9 101.7 Q33.65 98.9 34.55 97.6 35.4 96.25 38.2 95.25 43.45 93.3 52.4 92.15 L66.9 90.15 Q78.45 87.95 86.8 87.45" fill="url(#gradient3)" fill-rule="evenodd" stroke="none"/>
    <path d="M70.25 97.8 L60.65 100.05 Q54.8 101.55 50.95 101.7 L47.6 101.8 44.35 102.05 40.0 102.25 Q42.75 100.5 44.0 97.8 45.3 95.1 44.8 91.85 44.65 90.6 43.9 89.4 L42.25 87.3 Q41.6 86.55 38.8 84.75 36.4 83.2 35.95 82.25 L40.1 83.3 64.4 83.85 76.7 84.0 Q83.75 83.8 88.85 82.65 L92.6 81.75 96.5 81.3 99.1 81.3 101.7 81.1 108.6 79.65 Q112.75 78.75 115.65 78.8 L121.4 78.1 Q127.25 76.6 128.4 77.0 129.4 77.3 131.15 79.6 132.85 81.8 133.1 82.8 133.55 84.4 133.15 86.05 132.75 87.85 131.55 88.7 128.7 90.8 122.15 91.15 L114.15 92.5 105.95 93.7 Q96.05 93.9 89.1 95.3 L80.0 96.3 75.1 96.95 70.25 97.8" fill="#a59558" fill-rule="evenodd" stroke="none"/>
    <path d="M64.95 91.85 Q68.25 91.8 68.85 93.0 L49.65 93.7 49.25 93.65 49.35 93.7 44.9 94.1 44.85 92.0 48.65 91.65 54.95 91.65 61.2 91.15 55.55 90.7 55.7 90.7 52.85 90.6 51.6 90.55 Q50.75 90.4 50.5 89.95 L50.1 90.5 49.5 90.45 47.5 90.4 44.4 90.35 43.65 89.05 47.45 88.35 Q50.6 87.45 55.6 87.55 L63.85 87.85 Q62.5 88.05 57.35 87.9 52.95 88.15 52.9 90.4 55.35 90.65 59.85 90.3 L66.8 90.05 66.35 90.6 Q70.55 90.9 72.75 90.7 L74.0 90.7 65.85 91.4 71.2 91.3 76.55 91.05 79.7 91.15 Q81.75 91.2 82.55 90.6 L80.8 90.3 78.85 90.3 76.65 90.5 Q78.35 90.2 79.1 89.35 L78.45 89.35 78.6 89.25 Q78.15 88.45 76.95 88.3 L75.0 88.05 82.25 87.4 89.55 86.95 Q88.4 87.25 87.6 87.9 L88.2 88.0 Q88.0 88.65 87.05 88.8 L85.35 89.15 Q85.75 90.4 89.05 90.0 L93.45 89.05 97.2 88.2 Q103.2 87.6 106.25 86.6 L105.95 86.55 108.15 86.2 Q106.5 86.95 105.7 87.45 L110.1 87.4 109.85 87.5 113.85 87.65 113.6 87.75 Q119.0 88.1 121.95 87.95 127.25 87.6 129.65 85.75 L130.2 85.8 130.0 86.3 129.6 86.8 130.45 86.6 Q129.75 87.55 127.7 87.95 L124.45 88.5 Q118.25 90.3 113.75 90.75 L110.25 91.25 106.65 91.4 108.7 90.55 104.55 90.65 Q105.8 90.05 108.15 89.45 L111.95 88.45 109.4 88.85 110.25 88.55 105.75 88.4 101.25 88.35 92.4 89.5 97.35 89.5 102.3 89.4 104.45 89.4 96.65 89.8 94.4 89.8 92.35 90.2 96.85 90.25 101.25 90.6 Q101.9 93.15 87.1 92.75 95.3 92.75 99.3 90.4 L93.0 90.6 86.65 91.2 78.35 92.55 82.0 92.65 79.65 93.05 76.55 93.4 71.25 93.05 73.8 92.55 Q75.65 92.35 76.4 91.85 68.4 91.2 60.6 91.9 L64.95 91.85" fill="#907e4a" fill-rule="evenodd" stroke="none"/>
    <path d="M57.85 96.45 L51.65 96.2 52.35 95.85 52.85 95.5 44.8 95.2 44.8 95.1 55.0 94.95 69.65 94.5 60.95 94.85 59.9 95.55 59.65 95.6 59.4 95.75 60.15 96.0 Q58.45 95.9 57.85 96.45" fill="#907e4a" fill-rule="evenodd" stroke="none"/>
    <path d="M129.95 82.95 Q122.45 85.05 119.0 85.4 120.1 85.9 122.1 86.0 L115.95 85.7 Q117.15 84.8 118.95 84.3 L120.5 84.25 122.05 84.1 124.8 83.15 129.55 81.75 Q129.4 80.8 128.35 80.4 L126.4 79.9 127.1 79.5 127.6 79.1 Q127.0 78.6 125.8 78.6 L123.7 78.65 Q124.15 78.55 124.45 78.25 L125.05 77.6 124.15 77.4 126.45 76.95 128.05 78.15 129.5 79.45 130.55 81.05 129.95 82.95" fill="#907e4a" fill-rule="evenodd" stroke="none"/>
    <path d="M108.15 86.2 Q112.7 84.3 116.85 83.8 113.75 85.4 108.15 86.2" fill="#907e4a" fill-rule="evenodd" stroke="none"/>
    <path d="M89.55 86.95 L93.15 86.4 96.4 86.05 89.55 86.95" fill="#907e4a" fill-rule="evenodd" stroke="none"/>
    <path d="M59.9 98.6 L55.25 98.55 Q57.1 97.9 60.65 97.15 66.15 97.45 67.95 95.95 L69.1 95.65 68.1 95.85 68.4 95.45 67.65 95.4 69.8 94.5 71.15 94.4 74.9 94.4 78.4 94.35 Q77.6 95.4 74.6 96.1 L70.15 97.0 64.5 98.35 59.9 98.6" fill="#907e4a" fill-rule="evenodd" stroke="none"/>
    <path d="M43.6 84.7 L48.35 85.1 44.55 85.2 Q42.25 85.25 40.9 86.0 L53.2 86.25 45.75 86.75 41.3 86.45 38.8 84.75 43.6 84.7" fill="#907e4a" fill-rule="evenodd" stroke="none"/>
    <path d="M71.25 93.05 L71.05 93.15 76.55 93.4 78.15 93.55 76.3 94.15 74.05 94.25 71.15 94.4 69.05 93.9 68.85 93.0 71.25 93.05" fill="#5e4b2a" fill-rule="evenodd" stroke="none"/>
    <path d="M129.95 85.55 L129.65 85.75 125.95 85.9 122.1 86.0 126.1 85.55 Q128.4 85.35 129.95 85.55" fill="#5e4b2a" fill-rule="evenodd" stroke="none"/>
    <path d="M64.5 98.35 L70.15 97.0 74.6 96.1 Q77.6 95.4 78.4 94.35 L74.9 94.4 71.15 94.4 74.05 94.25 76.3 94.15 78.15 93.55 76.55 93.4 79.65 93.05 82.0 92.65 87.1 92.75 Q101.9 93.15 101.25 90.6 L96.85 90.25 92.35 90.2 94.4 89.8 96.65 89.8 104.45 89.4 109.4 88.85 111.95 88.45 108.15 89.45 Q105.8 90.05 104.55 90.65 L108.7 90.55 106.65 91.4 110.25 91.25 113.75 90.75 Q118.25 90.3 124.45 88.5 L127.7 87.95 Q129.75 87.55 130.45 86.6 L129.6 86.8 130.0 86.3 130.2 85.8 129.65 85.75 129.95 85.55 Q128.4 85.35 126.1 85.55 L122.1 86.0 Q120.1 85.9 119.0 85.4 122.45 85.05 129.95 82.95 L130.55 81.05 129.5 79.45 128.05 78.15 126.45 76.95 128.4 77.0 Q129.65 77.35 131.8 80.45 L132.0 81.0 Q132.5 82.85 131.55 83.25 129.7 84.05 129.55 84.2 L130.95 84.3 Q131.15 86.0 130.8 86.75 130.4 87.6 128.85 88.15 L123.95 90.0 120.3 90.6 116.65 91.05 110.9 92.65 Q107.15 93.55 105.15 92.7 L105.65 92.1 Q103.95 91.6 101.5 92.05 L97.4 93.1 Q92.65 94.2 86.8 94.2 L83.85 94.0 80.9 94.35 79.45 95.25 77.85 96.15 75.35 96.9 70.25 97.8 63.85 99.2 57.55 100.8 54.7 100.75 Q55.95 100.0 57.65 99.75 L50.5 99.7 52.4 99.4 Q50.9 98.55 49.5 98.4 47.55 98.15 47.15 99.6 46.45 99.8 45.7 99.6 45.2 97.85 47.0 97.5 L50.05 97.35 44.8 96.85 44.4 96.85 44.8 95.2 52.85 95.5 52.35 95.85 51.65 96.2 57.85 96.45 57.6 96.75 58.1 96.8 60.65 97.15 Q57.1 97.9 55.25 98.55 L59.9 98.6 64.5 98.35 M124.5 84.4 L122.15 85.4 125.65 85.4 Q128.0 85.2 128.35 84.25 L126.4 84.25 124.5 84.4" fill="#5e4b2a" fill-rule="evenodd" stroke="none"/>
    <path d="M60.6 91.9 Q68.4 91.2 76.4 91.85 75.65 92.35 73.8 92.55 L71.25 93.05 68.85 93.0 Q68.25 91.8 64.95 91.85 L60.6 91.9" fill="#5e4b2a" fill-rule="evenodd" stroke="none"/>
    <path d="M45.85 90.65 Q46.15 92.15 55.55 90.7 L61.2 91.15 54.95 91.65 48.65 91.65 44.85 92.0 44.8 91.85 44.4 90.35 47.5 90.4 45.85 90.65" fill="#5e4b2a" fill-rule="evenodd" stroke="none"/>
    <path d="M49.5 90.45 L50.1 90.5 50.0 90.7 49.5 90.45" fill="#5e4b2a" fill-rule="evenodd" stroke="none"/>
    <path d="M47.1 87.1 L44.85 87.5 42.55 87.65 42.45 87.6 Q43.35 87.1 45.75 86.75 L47.1 87.1" fill="#5e4b2a" fill-rule="evenodd" stroke="none"/>
    <path d="M45.75 86.75 Q43.35 87.1 42.45 87.6 L42.25 87.3 41.3 86.45 45.75 86.75" fill="#5e4b2a" fill-rule="evenodd" stroke="none"/>
    <path d="M50.05 97.35 L47.0 97.5 Q45.2 97.85 45.7 99.6 46.45 99.8 47.15 99.6 47.55 98.15 49.5 98.4 50.9 98.55 52.4 99.4 L50.5 99.7 57.65 99.75 Q55.95 100.0 54.7 100.75 L57.55 100.8 50.95 101.7 47.6 101.8 44.35 102.05 40.0 102.25 Q43.2 100.2 44.4 96.85 L44.8 96.85 50.05 97.35" fill="#4c3c21" fill-rule="evenodd" stroke="none"/>
    <path d="M80.9 94.35 L83.85 94.0 86.8 94.2 Q92.65 94.2 97.4 93.1 L101.5 92.05 Q103.95 91.6 105.65 92.1 L105.15 92.7 Q107.15 93.55 110.9 92.65 L116.65 91.05 120.3 90.6 123.95 90.0 128.85 88.15 Q130.4 87.6 130.8 86.75 131.15 86.0 130.95 84.3 L129.55 84.2 Q129.7 84.05 131.55 83.25 132.5 82.85 132.0 81.0 L131.8 80.45 Q132.95 82.15 133.1 82.8 133.55 84.4 133.15 86.05 132.75 87.85 131.55 88.7 128.7 90.8 122.15 91.15 L114.15 92.5 105.95 93.7 Q96.05 93.9 89.1 95.3 L80.0 96.3 75.35 96.9 77.85 96.15 79.45 95.25 80.9 94.35" fill="#4c3c21" fill-rule="evenodd" stroke="none"/>
    <path d="M102.3 89.4 L97.35 89.5 92.4 89.5 101.25 88.35 105.75 88.4 110.25 88.55 109.4 88.85 104.45 89.4 102.3 89.4" fill="#4c3c21" fill-rule="evenodd" stroke="none"/>
    <path d="M74.0 90.7 L76.65 90.5 78.85 90.3 80.8 90.3 82.55 90.6 Q81.75 91.2 79.7 91.15 L76.55 91.05 71.2 91.3 65.85 91.4 74.0 90.7" fill="#4c3c21" fill-rule="evenodd" stroke="none"/>
    <path d="M50.5 89.95 Q50.75 90.4 51.6 90.55 L50.1 90.5 50.5 89.95" fill="#4c3c21" fill-rule="evenodd" stroke="none"/>
    <path d="M55.55 90.75 L50.25 91.45 Q46.05 91.8 45.85 90.75 L47.5 90.65 49.5 90.7 50.0 90.8 50.1 90.55 55.55 90.75" fill="#4c3c21" fill-rule="evenodd" stroke="none"/>
    <path d="M58.85 96.05 L58.4 96.45 57.85 96.45 Q58.45 95.9 60.15 96.0 L59.4 95.75 59.65 95.6 59.9 95.55 60.95 94.85 69.65 94.5 69.8 94.5 67.65 95.4 63.1 96.25 58.85 96.05" fill="#4c3c21" fill-rule="evenodd" stroke="none"/>
    <path d="M58.1 96.8 L57.6 96.75 57.85 96.45 58.4 96.45 58.1 96.8" fill="#4c3c21" fill-rule="evenodd" stroke="none"/>
    <path d="M122.15 85.4 L124.5 84.4 126.4 84.25 128.35 84.25 Q128.0 85.2 125.65 85.4 L122.15 85.4" fill="#4c3c21" fill-rule="evenodd" stroke="none"/>
    <path d="M110.15 83.15 L112.7 83.3 Q111.3 84.2 109.2 84.4 L105.45 84.45 102.55 84.85 99.6 85.05 Q101.8 83.9 105.55 83.0 L111.8 81.7 Q117.4 80.5 121.35 80.2 L119.45 80.6 117.1 80.8 Q115.65 81.1 113.65 81.85 L110.15 83.15" fill="#dacc89" fill-rule="evenodd" stroke="none"/>
    <path d="M121.35 80.2 L124.5 80.1 121.35 80.2" fill="#dacc89" fill-rule="evenodd" stroke="none"/>
    <path d="M106.55 80.95 L102.8 80.95 108.5 79.7 114.1 79.4 119.75 79.1 Q116.35 80.7 111.85 81.35 L104.05 82.2 107.15 81.45 110.3 81.2 106.55 80.95" fill="#dacc89" fill-rule="evenodd" stroke="none"/>
    <path d="M95.15 81.35 L98.15 81.5 101.05 81.75 93.25 83.45 85.4 84.65 79.55 84.85 73.65 84.75 Q66.15 84.65 51.3 84.7 L52.85 84.4 55.1 83.65 64.4 83.85 76.7 84.0 Q83.75 83.8 88.85 82.65 L95.15 81.35" fill="#dacc89" fill-rule="evenodd" stroke="none"/>
    <path d="M70.55 87.55 L49.6 87.2 Q51.15 86.65 53.2 86.25 L53.45 86.25 61.0 85.75 68.55 86.1 79.65 86.15 85.55 86.3 91.1 86.0 Q82.8 87.65 70.55 87.55" fill="#dacc89" fill-rule="evenodd" stroke="none"/>
    <path d="M72.75 90.7 L67.95 90.4 69.5 89.2 Q75.5 89.1 78.45 89.35 77.65 89.85 74.05 90.5 L72.75 90.7" fill="#dacc89" fill-rule="evenodd" stroke="none"/>
    <path d="M72.75 90.7 L74.05 90.5 Q77.65 89.85 78.45 89.35 L79.1 89.35 Q78.35 90.2 76.65 90.5 L72.75 90.7" fill="#dacc89" fill-rule="evenodd" stroke="none"/>
    <path d="M96.0 86.55 L101.05 86.15 105.95 86.55 101.85 87.15 97.2 88.2 92.25 88.65 87.45 89.45 89.8 87.95 Q91.05 86.95 96.0 86.55" fill="#dacc89" fill-rule="evenodd" stroke="none"/>
    <path d="M97.2 88.2 L101.85 87.15 105.95 86.55 106.25 86.6 Q103.2 87.6 97.2 88.2" fill="#dacc89" fill-rule="evenodd" stroke="none"/>
    <path d="M110.1 87.4 L114.3 86.3 120.8 86.4 Q118.5 87.75 113.85 87.65 L115.15 87.0 110.1 87.4" fill="#dacc89" fill-rule="evenodd" stroke="none"/>
    <path d="M110.1 87.4 L115.15 87.0 113.85 87.65 109.85 87.5 110.1 87.4" fill="#dacc89" fill-rule="evenodd" stroke="none"/>
    <path d="M116.9 84.55 L120.55 82.6 129.0 81.7 Q127.85 81.8 124.8 83.15 L118.95 84.3 116.9 84.55" fill="#dacc89" fill-rule="evenodd" stroke="none"/>
    <path d="M118.95 84.3 L124.8 83.15 122.05 84.1 120.5 84.25 118.95 84.3" fill="#dacc89" fill-rule="evenodd" stroke="none"/>
    <path d="M67.95 95.95 Q66.15 97.45 60.65 97.15 L64.8 96.4 67.95 95.95" fill="#dacc89" fill-rule="evenodd" stroke="none"/>
    <path d="M62.65 96.55 L67.65 95.4 68.4 95.45 68.1 95.85 62.65 96.55" fill="#dacc89" fill-rule="evenodd" stroke="none"/>
    <path d="M62.65 96.55 L64.8 96.4 60.65 97.15 58.1 96.8 62.65 96.55" fill="#dacc89" fill-rule="evenodd" stroke="none"/>
    <path d="M58.4 96.45 L58.85 96.05 63.1 96.25 67.65 95.4 62.65 96.55 58.4 96.45" fill="#dacc89" fill-rule="evenodd" stroke="none"/>
    <path d="M62.65 96.55 L58.1 96.8 58.4 96.45 62.65 96.55" fill="#dacc89" fill-rule="evenodd" stroke="none"/>
    <path d="M65.35 93.85 L50.25 94.2 49.35 93.7 49.65 93.7 57.65 93.25 Q62.9 92.8 65.35 93.85" fill="#dacc89" fill-rule="evenodd" stroke="none"/>
    <path d="M83.35 92.65 L84.6 92.15 82.0 92.65 78.35 92.55 86.65 91.2 93.0 90.6 99.3 90.4 Q95.3 92.75 87.1 92.75 L83.35 92.65" fill="#dacc89" fill-rule="evenodd" stroke="none"/>
    <path d="M82.0 92.65 L84.6 92.15 83.35 92.65 84.1 92.7 82.0 92.65" fill="#dacc89" fill-rule="evenodd" stroke="none"/>
    <path d="M99.6 0.6 L97.3 1.35 Q98.1 3.3 101.3 3.65 L106.15 3.8 101.75 4.35 Q99.05 4.9 97.15 3.95 L95.25 2.6 Q94.3 1.85 93.3 1.65 92.05 1.35 87.75 2.2 82.15 3.15 77.85 5.75 73.15 8.6 70.6 13.05 68.0 17.6 60.75 24.2 54.6 29.8 51.2 38.3 44.85 54.25 42.35 57.9 L40.25 60.8 Q39.15 62.45 38.85 63.85 38.55 65.35 38.5 68.45 L38.3 73.0 Q37.75 76.1 37.5 82.3 37.2 88.55 36.7 91.55 L35.9 95.2 Q35.4 97.35 35.3 98.85 34.95 104.15 35.6 110.25 36.25 116.25 37.7 121.45 L38.9 124.5 39.95 127.6 Q40.2 129.05 40.05 131.75 39.85 134.8 39.95 135.95 40.15 139.0 40.95 142.3 38.8 145.2 33.65 145.85 29.8 146.35 24.8 145.65 19.5 145.05 18.75 143.95 18.4 143.45 18.45 142.75 19.4 140.95 19.95 139.2 L20.2 138.6 Q21.3 134.9 21.95 129.25 22.6 122.65 22.75 113.2 L22.8 97.05 22.35 83.0 Q22.05 74.4 22.65 69.05 23.0 65.85 25.05 63.05 L29.2 57.65 32.25 52.55 Q32.6 51.7 32.55 49.8 32.5 47.95 32.8 47.25 33.25 46.3 35.25 44.7 37.05 43.3 37.35 41.85 37.7 40.35 37.35 37.95 L36.7 34.1 Q36.3 30.75 37.2 25.9 38.1 21.05 39.65 18.3 40.7 20.5 40.05 26.2 39.4 31.7 40.7 34.0 L45.1 27.1 Q47.7 23.2 50.05 20.5 51.5 18.55 52.25 17.85 53.4 16.75 55.95 15.4 58.65 13.95 59.75 12.95 L61.9 10.7 64.0 8.4 Q69.95 2.5 81.75 0.75 L101.5 0.0 Q100.7 0.05 99.6 0.6" fill="#9e8f53" fill-rule="evenodd" stroke="none"/>
    <path d="M67.15 12.3 Q57.25 15.65 53.1 19.85 56.65 18.15 59.4 17.6 58.85 19.2 53.85 22.3 49.45 25.0 50.05 27.85 L52.65 26.05 Q50.6 27.6 48.75 30.35 L45.6 35.2 Q47.25 32.4 48.4 29.3 L46.7 32.75 45.0 36.05 43.45 38.75 Q42.85 40.25 43.55 41.65 L44.9 40.7 Q45.2 42.7 41.55 43.2 41.55 40.75 41.9 32.1 L45.7 26.15 Q47.95 22.85 50.05 20.5 51.5 18.55 52.25 17.85 53.4 16.75 55.95 15.4 58.65 13.95 59.75 12.95 L62.9 9.55 Q64.45 9.2 67.65 8.05 70.7 6.95 72.4 6.6 68.45 7.8 65.05 9.95 62.35 11.65 58.65 14.9 62.2 12.45 67.15 12.3" fill="#907e4a" fill-rule="evenodd" stroke="none"/>
    <path d="M63.75 8.6 L64.0 8.4 Q66.0 6.45 68.9 4.8 L66.5 6.85 63.75 8.6" fill="#907e4a" fill-rule="evenodd" stroke="none"/>
    <path d="M40.35 22.35 L39.95 26.8 Q38.45 27.8 38.0 29.05 37.5 30.2 37.7 32.45 39.1 32.95 38.75 34.65 L39.55 34.15 40.35 33.9 Q41.0 35.05 40.6 36.75 L40.1 39.6 40.95 42.65 Q41.45 44.35 40.5 45.5 L41.85 45.6 Q42.2 47.1 39.65 48.55 37.15 49.95 37.75 51.9 L38.65 51.55 39.5 51.2 Q39.4 53.05 37.2 54.2 35.05 55.35 34.7 53.35 34.75 55.45 34.45 56.5 33.9 58.25 32.35 58.1 L29.45 63.95 Q27.6 67.55 26.85 69.95 L28.75 68.75 30.55 67.45 30.55 69.7 Q30.6 71.0 30.9 71.85 32.85 68.9 35.05 62.85 35.2 66.05 34.5 69.15 33.7 72.5 32.0 74.85 L30.7 74.45 30.3 73.35 30.0 72.3 Q29.35 73.75 29.45 76.65 L29.6 81.1 Q29.8 80.85 30.05 80.75 L30.6 80.5 Q31.25 81.55 31.05 82.55 30.85 83.65 29.6 83.7 28.5 81.85 27.8 79.8 26.85 81.7 26.65 85.25 26.45 88.75 27.2 90.8 28.75 90.45 29.0 91.7 L29.05 94.15 30.55 92.3 31.8 90.2 31.3 94.6 Q30.55 97.65 28.75 95.5 28.35 97.3 30.3 98.75 32.15 100.1 31.75 101.45 L30.7 101.2 29.6 100.6 Q28.55 104.1 28.6 110.2 28.6 117.65 31.5 116.2 31.75 117.25 31.2 117.8 30.6 118.35 29.55 118.2 29.1 120.5 30.85 121.2 32.6 121.9 33.65 119.65 L33.6 123.8 33.0 123.85 32.4 131.8 Q32.3 133.4 32.55 134.05 32.9 135.1 34.35 135.15 34.8 133.15 35.8 132.25 36.75 134.3 35.25 137.05 33.7 139.95 31.4 138.25 30.4 140.6 31.0 141.25 31.5 141.8 34.05 141.85 L34.15 145.8 Q30.15 146.45 24.8 145.65 19.5 145.05 18.75 143.95 18.4 143.45 18.45 142.75 19.4 140.95 19.95 139.2 L20.2 138.6 Q21.3 134.9 21.95 129.25 22.6 122.65 22.75 113.2 L22.8 97.05 22.35 83.0 Q22.05 74.4 22.65 69.05 23.0 65.85 25.05 63.05 L29.2 57.65 32.25 52.55 Q32.6 51.7 32.55 49.8 32.5 47.95 32.8 47.25 33.25 46.3 35.25 44.7 37.05 43.3 37.35 41.85 37.7 40.35 37.35 37.95 L36.7 34.1 Q36.3 30.75 37.2 25.9 38.1 21.05 39.65 18.3 40.4 19.9 40.35 22.35" fill="#907e4a" fill-rule="evenodd" stroke="none"/>
    <path d="M37.65 144.8 L36.1 145.35 Q36.75 144.35 36.6 142.6 L37.65 144.8" fill="#907e4a" fill-rule="evenodd" stroke="none"/>
    <path d="M39.25 143.65 L39.45 143.8 39.05 144.05 39.25 143.65" fill="#907e4a" fill-rule="evenodd" stroke="none"/>
    <path d="M50.0 24.2 L49.1 25.85 47.8 27.15 47.6 25.7 46.1 28.2 Q45.25 29.65 45.3 30.85 L45.9 30.95 Q45.65 32.6 44.55 34.75 L42.85 38.55 Q40.15 38.0 40.5 33.6 L40.7 34.0 45.1 27.1 Q47.7 23.2 50.05 20.5 51.5 18.55 52.25 17.85 53.2 16.95 54.7 16.1 L57.35 14.65 Q56.35 15.35 55.25 17.55 54.05 19.95 53.2 20.7 L51.95 21.35 Q51.0 21.75 50.8 21.95 50.3 22.55 50.25 23.1 L50.0 24.2" fill="#605127" fill-rule="evenodd" stroke="none"/>
    <path d="M65.55 7.05 Q71.95 1.8 83.95 0.5 80.15 1.5 74.6 3.6 L65.55 7.05" fill="#605127" fill-rule="evenodd" stroke="none"/>
    <path d="M39.05 22.4 L37.95 26.1 Q37.7 30.2 38.1 33.45 38.35 35.7 39.75 40.85 L40.45 43.9 39.6 44.85 Q38.85 45.55 38.85 46.35 38.25 46.35 37.4 47.55 36.7 48.45 35.65 47.8 35.05 47.45 34.65 45.15 L36.3 43.8 Q37.1 42.9 37.35 41.85 37.7 40.35 37.35 37.95 L36.7 34.1 Q36.35 30.95 37.15 26.5 37.9 22.05 39.25 19.05 L39.3 19.1 Q39.9 20.0 39.05 22.4" fill="#605127" fill-rule="evenodd" stroke="none"/>
    <path d="M27.45 62.4 Q27.1 63.2 26.85 64.75 L26.35 67.1 25.35 69.1 Q24.85 70.2 25.1 71.35 L26.1 71.35 27.05 71.15 27.2 72.4 27.75 72.05 28.25 71.2 Q28.8 72.2 28.3 73.85 27.75 75.55 26.8 75.75 L26.4 74.65 Q25.8 76.0 25.6 77.8 L25.4 81.05 25.1 80.85 Q24.1 82.8 24.0 85.95 23.95 87.75 24.2 91.35 L25.2 91.4 26.15 91.45 Q26.45 92.4 26.15 93.0 25.8 93.7 24.9 93.8 24.6 94.75 24.9 95.7 L25.85 95.8 26.8 95.85 Q27.05 96.6 26.75 97.65 L26.25 99.4 Q26.15 100.15 26.2 102.3 26.25 104.1 25.95 105.1 L25.3 107.2 Q24.9 108.45 24.95 109.65 L25.0 113.7 25.8 113.55 26.65 113.2 Q27.05 114.35 26.5 115.15 25.9 115.95 24.7 115.75 24.25 117.2 25.15 117.85 25.95 118.4 27.35 118.2 L26.4 122.45 Q26.1 125.45 29.45 125.15 29.85 126.55 28.75 126.95 26.95 127.65 26.8 127.8 26.35 128.3 26.25 129.0 L26.1 130.4 Q26.0 131.15 26.5 132.85 27.0 134.45 26.85 135.0 L25.9 136.25 24.7 137.4 Q25.2 138.6 26.35 138.6 L28.6 138.35 Q27.4 139.95 23.75 140.05 L24.9 141.45 26.5 142.65 28.5 142.3 30.35 142.4 Q32.3 143.95 29.6 146.05 L24.8 145.65 Q19.5 145.05 18.75 143.95 18.4 143.45 18.45 142.75 19.4 140.95 19.95 139.2 L20.2 138.6 Q21.3 134.9 21.95 129.25 22.6 122.65 22.75 113.2 L22.8 97.05 22.35 83.0 Q22.05 74.4 22.65 69.05 23.0 65.85 25.05 63.05 L29.2 57.65 Q31.5 54.35 32.2 52.65 L32.85 52.85 Q33.25 54.95 30.9 57.9 27.7 61.75 27.45 62.4" fill="#605127" fill-rule="evenodd" stroke="none"/>
    <path d="M28.8 116.95 L29.1 110.85 29.1 116.8 Q29.0 118.6 29.6 119.25 L31.55 120.5 33.15 121.0 Q34.0 121.4 33.05 122.55 32.2 123.7 30.5 122.85 28.8 121.9 28.8 116.95" fill="#605127" fill-rule="evenodd" stroke="none"/>
    <path d="M31.6 131.15 Q31.4 133.05 32.05 134.15 32.8 135.55 34.65 135.2 34.75 137.3 32.85 136.85 31.0 136.4 30.35 134.8 29.75 133.25 29.85 129.8 L29.85 124.8 31.6 131.15" fill="#605127" fill-rule="evenodd" stroke="none"/>
    <path d="M28.25 84.45 Q28.25 87.65 29.05 93.4 L29.8 93.25 30.55 92.7 Q30.9 93.7 30.2 94.25 L28.35 94.4 Q27.7 92.0 27.85 88.3 L27.9 82.15 28.25 84.45" fill="#605127" fill-rule="evenodd" stroke="none"/>
    <path d="M28.9 76.45 Q29.05 77.3 30.5 80.4 31.4 82.8 29.35 81.75 26.8 80.45 27.35 74.8 27.7 71.3 28.85 67.8 L28.9 76.45" fill="#605127" fill-rule="evenodd" stroke="none"/>
    <path d="M37.05 47.7 Q37.25 49.6 36.7 50.85 L36.35 51.2 Q36.65 52.1 37.55 52.3 L39.4 52.3 Q38.45 53.65 37.1 53.55 35.8 53.45 35.05 52.1 34.25 50.65 35.1 49.6 L37.05 47.7" fill="#605127" fill-rule="evenodd" stroke="none"/>
    <path d="M48.4 29.95 L50.55 25.85 Q51.9 23.05 52.8 21.7 L51.95 24.4 50.9 27.0 50.1 30.05 Q49.55 31.8 48.45 31.55 48.2 30.5 48.4 29.95" fill="#605127" fill-rule="evenodd" stroke="none"/>
    <path d="M71.25 8.25 L68.0 11.15 Q65.45 13.15 65.9 10.85 66.25 9.05 70.1 6.95 L75.55 4.35 Q75.25 5.6 73.8 6.6 L71.25 8.25" fill="#dacc89" fill-rule="evenodd" stroke="none"/>
    <path d="M59.2 17.95 L53.2 19.6 56.65 16.6 60.4 16.05 64.0 14.9 Q63.25 16.75 59.2 17.95" fill="#dacc89" fill-rule="evenodd" stroke="none"/>
    <path d="M58.4 21.0 Q57.15 22.25 54.85 25.2 54.2 26.05 53.25 28.1 L51.55 31.0 Q51.3 29.8 51.55 27.95 L52.15 24.95 57.0 21.3 Q59.55 18.5 62.85 18.0 60.75 18.6 58.4 21.0" fill="#dacc89" fill-rule="evenodd" stroke="none"/>
    <path d="M51.5 34.3 L48.2 37.9 Q45.3 40.75 45.65 38.6 45.85 37.45 48.1 35.7 50.3 33.95 50.45 32.3 L51.5 34.3" fill="#dacc89" fill-rule="evenodd" stroke="none"/>
    <path d="M46.7 39.95 Q46.85 41.15 45.25 43.2 44.5 41.75 46.0 40.95 L46.7 39.95" fill="#dacc89" fill-rule="evenodd" stroke="none"/>
    <path d="M48.45 40.65 L48.1 40.95 46.2 46.2 Q44.55 49.75 42.6 49.9 42.85 49.05 43.85 47.55 L45.3 45.3 46.55 42.65 Q47.4 41.05 48.45 40.65" fill="#dacc89" fill-rule="evenodd" stroke="none"/>
    <path d="M42.55 45.9 Q43.25 47.15 42.4 49.15 41.45 51.25 39.95 50.85 39.6 49.4 39.8 48.55 L42.55 45.9" fill="#dacc89" fill-rule="evenodd" stroke="none"/>
    <path d="M41.55 52.9 Q40.8 54.75 38.45 57.55 35.9 60.65 35.1 62.2 L33.2 66.65 Q32.0 69.4 30.8 70.75 29.5 66.1 32.75 61.4 37.15 56.35 38.8 53.55 L41.55 52.9" fill="#dacc89" fill-rule="evenodd" stroke="none"/>
    <path d="M39.2 62.9 L38.95 66.0 Q38.55 67.9 37.2 67.85 L37.15 64.75 Q37.3 63.05 38.15 61.9 L39.2 62.9" fill="#dacc89" fill-rule="evenodd" stroke="none"/>
    <path d="M35.4 69.2 Q34.85 70.35 34.1 75.6 33.5 80.1 32.1 81.2 31.95 79.25 32.9 75.75 33.85 72.15 33.7 70.2 L35.4 69.2" fill="#dacc89" fill-rule="evenodd" stroke="none"/>
    <path d="M32.4 83.85 L32.65 88.05 Q32.7 91.4 31.55 91.8 30.8 90.5 30.85 88.05 L31.0 84.15 32.4 83.85" fill="#dacc89" fill-rule="evenodd" stroke="none"/>
    <path d="M35.1 86.9 L35.4 90.35 Q35.4 92.45 34.05 93.2 33.15 91.4 33.5 87.15 L34.1 81.35 34.15 85.55 35.15 84.15 35.65 81.65 37.45 76.55 Q37.45 78.75 36.55 81.2 L35.15 84.15 Q35.0 85.55 35.1 86.9" fill="#dacc89" fill-rule="evenodd" stroke="none"/>
    <path d="M35.15 98.1 Q35.35 99.45 34.8 100.85 L34.3 99.4 Q33.75 97.15 34.0 95.65 35.0 96.6 35.15 98.1" fill="#dacc89" fill-rule="evenodd" stroke="none"/>
    <path d="M30.85 112.8 Q30.7 104.5 31.1 97.5 L32.85 100.85 Q32.85 110.95 33.2 115.05 L32.65 113.4 32.65 115.6 Q32.5 117.35 31.5 116.9 30.85 116.5 30.8 114.95 L30.85 112.8" fill="#dacc89" fill-rule="evenodd" stroke="none"/>
    <path d="M36.4 118.5 Q34.5 115.8 34.4 112.35 L34.6 105.55 35.2 104.85 Q35.45 111.0 36.65 117.05 L36.6 116.95 36.5 117.7 36.4 118.5" fill="#dacc89" fill-rule="evenodd" stroke="none"/>
    <path d="M34.3 119.2 Q36.35 121.05 36.9 124.85 37.15 127.0 36.95 131.2 L36.2 130.9 35.45 130.35 35.65 132.65 Q35.65 134.0 34.95 134.6 33.2 132.8 33.3 127.3 33.35 122.65 34.3 119.55 L34.3 119.2" fill="#dacc89" fill-rule="evenodd" stroke="none"/>
    <path d="M37.7 121.45 L38.9 124.5 39.95 127.6 Q40.2 129.05 40.05 131.75 39.85 134.8 39.95 135.95 L40.3 138.95 Q39.9 139.35 39.3 139.2 L39.45 135.7 39.55 132.2 Q39.45 131.05 38.4 129.0 37.3 126.95 37.15 125.9 37.05 124.95 37.25 123.65 L37.7 121.45" fill="#dacc89" fill-rule="evenodd" stroke="none"/>
    <path d="M36.85 137.2 Q37.6 140.35 37.75 142.15 38.05 145.25 36.95 146.8 35.25 138.0 36.85 135.2 L36.85 137.2" fill="#dacc89" fill-rule="evenodd" stroke="none"/>
    <path d="M32.2 146.0 Q32.25 144.4 32.65 141.05 L33.0 136.7 Q33.45 139.7 35.0 145.65 L32.2 146.0" fill="#dacc89" fill-rule="evenodd" stroke="none"/>
    <path d="M39.6 24.9 Q39.75 29.2 41.45 33.15 L41.5 38.15 Q39.5 36.3 39.0 30.05 38.5 23.8 40.0 20.05 39.55 22.55 39.6 24.9" fill="#dacc89" fill-rule="evenodd" stroke="none"/>
    <path d="M94.75 0.7 Q98.0 0.5 99.35 1.2 L94.3 0.75 89.65 1.25 84.95 1.5 80.15 1.8 Q77.75 2.05 74.7 3.5 L69.6 6.2 64.55 9.35 62.35 10.6 Q61.3 11.1 60.7 11.55 L63.6 8.35 Q65.45 6.2 67.3 5.25 72.3 2.65 76.45 1.2 81.1 -0.5 88.5 0.2 L94.3 0.75 94.75 0.7" fill="#dacc89" fill-rule="evenodd" stroke="none"/>
    <path d="M144.8 116.85 Q145.3 118.8 146.85 122.15 148.55 125.75 149.05 127.4 149.9 130.05 148.0 132.8 146.9 134.35 144.05 136.8 141.6 138.85 137.75 139.6 L130.6 140.4 120.4 140.75 115.35 139.8 Q118.3 138.15 120.6 135.85 122.6 133.9 124.65 130.8 127.1 127.2 127.6 123.9 L128.1 120.7 129.85 123.8 Q131.0 125.35 132.15 125.05 L132.5 123.45 Q133.6 126.6 134.95 126.6 136.1 126.55 138.5 123.9 139.05 124.25 139.65 125.55 140.2 126.65 141.1 127.0 L143.0 127.1 Q144.25 126.95 144.65 126.5 145.85 125.25 145.5 121.85 L144.8 116.85" fill="#a59558" fill-rule="evenodd" stroke="none"/>
    <path d="M25.65 141.9 L26.8 142.5 Q29.05 143.1 29.95 141.8 L31.2 138.55 31.9 140.3 Q32.35 141.45 33.05 141.8 L35.2 141.7 Q36.2 141.0 36.2 139.8 36.8 141.5 37.8 140.7 38.7 140.0 38.95 138.7 L39.15 135.15 39.0 131.7 40.1 133.95 40.85 141.0 Q41.35 145.15 40.8 147.9 L40.6 149.75 Q40.5 150.8 39.9 151.4 37.05 154.45 36.0 154.95 34.2 155.7 32.0 155.75 L28.55 155.25 Q26.3 154.5 20.75 153.9 16.1 152.9 15.35 149.6 L15.25 148.0 Q18.4 144.3 19.75 139.75 L20.0 139.15 20.0 139.1 Q21.5 141.2 22.75 141.5 L23.8 141.45 24.55 141.3 25.65 141.9" fill="#9e8f53" fill-rule="evenodd" stroke="none"/>
    <path d="M138.2 123.75 Q138.35 123.5 139.15 123.75 L139.75 124.0 Q139.95 124.95 139.25 125.55 138.3 126.35 138.15 126.8 L138.05 127.65 138.8 128.15 Q138.45 129.25 137.0 130.25 L134.4 131.55 134.4 131.85 136.15 132.05 137.9 132.0 137.95 132.8 Q139.5 133.1 142.45 131.55 L146.55 129.1 145.9 130.45 Q145.35 131.3 145.4 131.8 146.75 132.1 148.1 130.4 148.25 131.1 147.2 132.65 L145.65 134.8 144.2 136.4 142.25 137.5 Q138.8 139.35 133.3 140.55 L126.8 141.3 120.1 141.35 113.7 140.7 115.15 139.95 Q118.15 138.3 120.5 135.95 122.55 133.95 124.65 130.8 127.1 127.2 127.6 123.9 L128.2 120.05 129.85 122.7 130.45 123.55 131.15 124.2 Q131.85 124.45 132.4 123.85 132.95 123.3 133.6 123.5 L134.35 124.0 Q134.8 124.4 135.25 124.5 L137.45 124.45 138.2 123.75" fill="#907e4a" fill-rule="evenodd" stroke="none"/>
    <path d="M138.35 139.95 L132.5 140.3 Q128.7 140.35 126.75 141.25 L130.45 141.45 125.0 141.95 120.25 142.1 115.45 142.05 Q112.65 141.85 112.15 141.35 L115.15 139.95 Q118.15 138.3 120.5 135.95 122.55 133.95 124.65 130.8 127.1 127.2 127.6 123.9 L128.3 119.25 128.35 119.35 Q129.5 121.4 130.95 122.5 L131.0 121.35 132.75 121.85 133.5 124.65 Q133.55 125.6 132.75 126.5 131.85 127.6 131.7 128.2 132.85 128.65 131.35 129.8 L129.55 131.55 131.95 131.55 Q131.75 132.55 129.5 133.45 127.3 134.35 127.2 135.05 L130.65 135.05 129.85 136.05 Q132.0 136.15 134.7 135.15 L139.4 133.3 137.2 134.3 Q135.65 135.0 135.75 135.8 L139.5 135.7 143.05 134.55 142.5 135.8 141.9 137.0 Q142.7 137.0 143.85 136.3 144.95 135.6 145.15 134.85 144.95 136.15 142.35 137.95 140.0 139.6 138.35 139.95" fill="#5e4b2a" fill-rule="evenodd" stroke="none"/>
    <path d="M129.15 122.55 L128.9 124.05 128.2 125.4 Q127.7 126.05 127.5 127.05 L127.0 128.65 125.85 129.95 124.45 131.1 124.65 130.8 Q127.1 127.2 127.6 123.9 L128.1 120.65 128.35 117.4 128.4 116.9 128.95 118.2 131.1 120.2 Q131.05 120.7 130.2 121.3 129.3 121.9 129.15 122.55" fill="#4c3c21" fill-rule="evenodd" stroke="none"/>
    <path d="M138.5 140.35 L134.65 141.25 130.5 141.6 126.35 141.75 117.1 142.0 114.25 142.2 Q112.1 142.2 111.7 141.55 112.35 141.3 113.6 140.2 114.9 139.05 115.4 138.8 118.7 137.0 120.4 135.65 122.45 133.95 124.2 131.45 L124.0 132.1 125.2 132.4 Q125.05 133.15 124.25 133.15 L123.0 133.3 Q122.65 133.5 122.4 134.0 L122.2 134.95 Q122.1 136.5 123.3 136.7 L125.8 137.1 Q125.1 137.9 126.35 138.1 L128.25 138.1 130.75 137.9 Q131.9 137.2 132.65 137.2 132.5 138.45 134.8 138.0 L137.55 137.15 Q136.4 138.75 138.3 139.1 L141.15 138.85 139.95 139.55 Q139.1 140.15 138.5 140.35" fill="#493e23" fill-rule="evenodd" stroke="none"/>
    <path d="M139.95 121.5 Q140.4 121.95 140.45 122.9 L140.65 124.45 141.05 125.7 141.25 127.0 141.1 129.65 140.25 131.0 139.5 132.15 Q139.3 131.0 139.35 129.2 L139.45 126.25 139.45 121.9 139.95 121.5" fill="#dacc89" fill-rule="evenodd" stroke="none"/>
    <path d="M146.35 121.6 L146.6 122.85 146.8 124.2 147.45 125.2 148.05 126.2 148.4 128.3 148.45 130.0 Q148.35 128.95 147.5 127.7 L145.95 125.25 145.65 123.7 145.45 122.1 145.25 120.05 145.1 118.0 Q144.7 116.25 144.75 115.35 L146.35 121.6" fill="#dacc89" fill-rule="evenodd" stroke="none"/>
    <path d="M146.4 127.1 L147.2 129.4 Q147.3 130.55 146.3 131.6 145.9 128.0 145.85 126.1 L146.4 127.1" fill="#dacc89" fill-rule="evenodd" stroke="none"/>
    <path d="M24.8 141.3 L27.2 141.5 29.3 140.15 30.1 140.75 Q30.25 141.55 29.15 142.75 28.05 143.9 28.4 144.85 27.75 144.9 27.65 145.8 27.5 146.7 27.95 147.05 L28.85 146.25 29.5 145.3 29.4 146.85 Q29.2 147.95 29.45 148.25 29.95 148.85 31.1 147.05 L32.3 144.75 32.35 146.75 32.05 148.75 31.35 150.85 Q31.15 151.5 31.35 152.05 L31.55 153.2 Q32.35 153.35 33.45 152.45 L35.1 151.05 35.15 152.2 Q35.9 152.3 36.75 151.35 36.85 152.2 37.05 152.45 L38.45 151.4 Q39.2 150.5 39.7 150.3 39.8 150.8 39.25 151.75 L38.35 153.05 37.35 154.0 36.1 154.7 34.9 155.55 Q34.2 156.05 33.55 156.15 L31.3 156.3 29.0 156.1 23.8 155.25 18.75 153.95 16.7 153.15 15.2 151.55 13.45 149.4 14.95 147.75 15.7 147.3 16.85 145.8 18.7 143.8 19.45 141.8 19.85 139.75 Q22.25 139.85 24.8 141.3" fill="#907e4a" fill-rule="evenodd" stroke="none"/>
    <path d="M20.6 136.9 L22.15 138.05 Q23.2 138.75 23.95 138.8 L26.15 139.3 Q25.25 139.35 25.4 140.05 25.5 140.65 26.05 141.2 25.3 141.05 24.6 141.75 L23.6 143.0 Q22.85 144.0 23.5 144.5 24.1 145.05 25.3 144.3 25.05 145.9 23.7 146.8 L22.45 147.3 Q21.85 148.3 23.0 148.6 L24.8 148.55 Q25.1 149.1 24.75 150.15 24.35 151.4 24.4 151.75 25.45 151.95 26.8 151.0 L26.9 151.85 Q26.9 152.5 27.1 152.6 27.6 152.9 28.3 152.35 L29.15 151.4 29.25 153.1 Q29.25 154.2 29.75 154.55 L31.55 154.8 Q32.8 154.7 33.15 154.25 33.1 155.3 35.3 154.6 37.35 154.0 37.85 153.3 37.7 154.25 36.2 155.35 34.8 156.35 33.7 156.55 30.7 157.1 24.5 156.4 L19.2 155.75 Q16.25 155.0 14.9 152.85 L12.8 150.05 14.85 147.85 Q16.1 146.9 16.95 145.1 L17.25 144.7 Q19.35 141.75 20.3 138.0 L20.5 137.15 20.6 136.9" fill="#493e23" fill-rule="evenodd" stroke="none"/>
    <path d="M38.05 142.55 L38.25 147.15 Q38.05 149.85 36.25 151.15 L36.15 144.5 Q35.95 140.2 36.1 137.85 36.6 138.7 36.8 140.7 L37.4 142.3 38.05 142.55" fill="#dacc89" fill-rule="evenodd" stroke="none"/>
    <path d="M34.7 146.45 Q33.65 150.5 32.35 151.3 32.65 149.5 32.6 146.9 L32.5 142.5 Q32.4 140.35 32.75 138.95 33.0 135.75 33.65 134.85 34.05 135.95 34.05 137.95 34.0 140.35 34.1 141.05 L34.7 143.75 Q35.0 145.3 34.7 146.45" fill="#dacc89" fill-rule="evenodd" stroke="none"/>
    <path d="M31.6 143.35 L31.65 145.4 Q31.55 146.55 30.75 147.1 30.4 146.25 30.65 144.7 L31.05 142.25 31.6 143.35" fill="#dacc89" fill-rule="evenodd" stroke="none"/>
  </g>
  <defs>
    <linearGradient gradientTransform="matrix(-0.0787, -4.0E-4, -7.0E-4, -0.0767, 80.85, 134.2)" gradientUnits="userSpaceOnUse" id="gradient0" spreadMethod="pad" x1="-819.2" x2="819.2">
      <stop offset="0.0" stop-color="#000000" stop-opacity="0.29803923"/>
      <stop offset="0.8588235294117647" stop-color="#000000" stop-opacity="0.29803923"/>
      <stop offset="1.0" stop-color="#000000" stop-opacity="0.29803923"/>
    </linearGradient>
    <linearGradient gradientTransform="matrix(-0.0421, 8.0E-4, -0.0014, -0.0411, 32.45, 78.05)" gradientUnits="userSpaceOnUse" id="gradient1" spreadMethod="pad" x1="-819.2" x2="819.2">
      <stop offset="0.0" stop-color="#000000" stop-opacity="0.29803923"/>
      <stop offset="0.8588235294117647" stop-color="#000000" stop-opacity="0.29803923"/>
      <stop offset="1.0" stop-color="#000000" stop-opacity="0.29803923"/>
    </linearGradient>
    <linearGradient gradientTransform="matrix(-0.0531, 0.001, -0.0018, -0.0518, 79.5, 137.2)" gradientUnits="userSpaceOnUse" id="gradient2" spreadMethod="pad" x1="-819.2" x2="819.2">
      <stop offset="0.0" stop-color="#000000" stop-opacity="0.29803923"/>
      <stop offset="0.8588235294117647" stop-color="#000000" stop-opacity="0.29803923"/>
      <stop offset="1.0" stop-color="#000000" stop-opacity="0.29803923"/>
    </linearGradient>
    <linearGradient gradientTransform="matrix(-0.0582, -3.0E-4, -5.0E-4, -0.0567, 81.55, 105.2)" gradientUnits="userSpaceOnUse" id="gradient3" spreadMethod="pad" x1="-819.2" x2="819.2">
      <stop offset="0.0" stop-color="#000000" stop-opacity="0.29803923"/>
      <stop offset="0.8588235294117647" stop-color="#000000" stop-opacity="0.29803923"/>
      <stop offset="1.0" stop-color="#000000" stop-opacity="0.29803923"/>
    </linearGradient>
  </defs>
</svg>
