<?xml version="1.0" encoding="UTF-8" standalone="no"?>
<svg xmlns:xlink="http://www.w3.org/1999/xlink" height="159.0px" width="146.6px" xmlns="http://www.w3.org/2000/svg">
  <g transform="matrix(1.0, 0.0, 0.0, 1.0, 0.0, 0.0)">
    <path d="M40.2 120.2 L53.65 120.95 Q70.3 123.15 91.3 129.1 112.5 135.15 126.55 143.75 L129.0 145.0 Q130.35 145.8 130.15 146.8 129.9 148.0 127.9 148.9 126.25 149.65 124.9 149.65 L115.65 148.95 111.15 148.05 Q108.55 147.45 106.8 146.5 L104.95 145.45 Q104.1 145.0 102.9 144.9 L97.15 144.8 90.75 144.4 88.0 143.35 Q86.25 142.5 85.4 142.3 L81.05 142.0 76.55 141.85 71.85 140.95 67.3 139.85 Q66.05 139.6 63.15 138.1 60.5 136.75 58.95 136.65 L58.25 136.9 57.4 137.15 55.1 136.9 51.3 136.75 46.0 136.3 40.85 135.2 36.4 133.6 Q34.0 132.85 31.7 132.8 L28.5 132.75 25.35 132.4 23.45 131.95 21.45 132.05 20.05 132.75 18.4 132.95 15.2 131.95 12.0 130.9 7.3 129.9 Q4.15 128.95 3.95 127.15 L21.0 120.05 26.75 120.15 40.2 120.2" fill="url(#gradient0)" fill-rule="evenodd" stroke="none"/>
    <path d="M85.15 12.75 Q85.05 11.35 86.0 9.55 87.0 7.75 88.15 7.15 L88.7 9.15 Q89.15 10.1 90.1 10.5 L92.8 10.25 Q94.65 9.55 95.5 9.75 95.55 10.95 95.2 12.25 95.15 13.2 96.6 14.3 L98.05 15.5 Q98.5 15.95 98.75 17.15 99.3 19.7 101.1 22.05 L102.5 23.9 103.45 25.9 104.0 29.6 Q104.3 31.9 104.9 33.25 105.5 34.45 106.55 35.35 107.95 36.5 109.05 35.8 109.9 35.3 110.2 30.15 111.2 33.0 111.75 34.1 112.7 35.9 114.9 36.2 L120.15 36.55 Q123.45 36.8 125.1 37.65 124.3 38.1 120.9 38.85 118.35 39.4 117.55 40.85 116.9 41.95 116.8 43.9 L116.65 47.15 Q116.35 49.75 116.75 51.05 117.15 52.55 118.9 54.2 120.4 55.65 122.8 57.1 L127.0 59.5 124.8 59.7 Q123.9 61.8 124.7 64.55 125.7 68.1 125.65 69.3 125.55 71.2 126.55 74.6 127.5 78.0 127.4 80.05 L126.95 85.45 Q126.85 88.85 127.95 90.4 128.55 91.3 129.85 92.25 L132.2 93.85 Q133.55 94.8 135.4 95.25 L137.4 95.55 133.1 96.1 Q130.1 96.2 129.05 96.9 128.15 97.5 127.85 98.35 L127.45 100.35 126.45 104.1 Q125.9 106.3 125.8 108.05 L125.65 112.55 Q125.7 115.1 126.4 116.85 127.4 119.6 130.45 121.15 L132.95 122.0 Q134.7 122.4 135.45 122.75 L133.75 123.5 131.9 124.1 Q130.85 124.7 129.7 125.95 128.95 126.85 128.6 128.3 L128.25 130.9 127.85 136.25 Q127.75 140.0 128.7 141.3 130.15 143.35 136.1 143.35 L141.45 142.7 146.6 141.35 Q144.4 142.45 140.5 146.3 137.15 149.65 133.9 150.55 L130.15 151.65 126.25 152.3 123.25 151.95 121.4 150.25 119.8 148.35 Q119.15 147.1 119.15 144.8 L119.25 141.05 Q119.15 137.3 119.35 131.8 L119.75 122.5 119.6 115.25 119.35 108.0 119.2 98.0 Q118.9 92.35 117.85 88.15 116.95 84.35 115.65 74.85 L114.85 71.65 113.3 68.65 Q112.35 67.05 111.7 64.95 L110.6 61.05 109.05 54.1 Q108.05 49.95 106.55 47.5 L102.8 42.55 Q100.45 39.55 99.65 37.3 L98.6 33.55 97.4 29.9 96.1 28.15 94.8 26.5 94.15 24.5 93.6 22.4 85.15 12.75" fill="url(#gradient1)" fill-rule="evenodd" stroke="none"/>
    <path d="M46.4 125.05 L65.35 126.85 84.2 129.5 95.5 131.25 Q102.05 132.6 106.2 135.2 109.5 137.25 110.55 139.95 111.85 143.1 108.7 145.1 103.85 148.1 101.45 148.45 L96.7 147.95 91.9 147.25 80.95 147.45 74.5 146.75 Q70.1 146.55 70.55 148.7 67.8 148.9 64.25 147.15 L58.6 143.8 55.55 141.6 Q53.55 140.05 52.35 139.65 L50.2 139.7 48.15 140.15 Q47.15 140.15 45.7 139.4 L43.4 138.2 Q42.25 137.7 35.4 136.65 30.25 135.85 28.6 133.45 L26.45 130.55 Q25.65 129.1 26.1 126.6 L46.4 125.05" fill="url(#gradient2)" fill-rule="evenodd" stroke="none"/>
    <path d="M49.1 20.65 L49.6 20.9 Q49.7 22.3 48.65 24.35 47.35 26.85 47.15 27.65 46.75 29.4 46.55 32.55 L46.2 37.5 44.9 43.6 Q42.6 54.75 40.9 69.9 L38.2 96.45 Q36.9 109.5 36.65 116.2 L36.35 120.9 Q36.2 123.7 36.5 125.65 L37.2 128.55 Q37.5 130.5 36.65 131.3 L34.25 131.8 31.75 131.8 27.65 131.2 23.8 129.65 Q21.3 128.65 20.25 127.9 18.4 126.65 18.05 125.0 17.6 122.7 18.0 118.5 18.45 113.65 18.35 112.0 17.85 103.15 18.1 89.2 18.2 77.95 18.45 72.25 18.9 62.45 20.55 55.4 22.45 47.35 28.45 38.25 L30.6 34.7 Q31.95 32.55 33.15 31.45 35.1 29.7 38.75 27.2 L44.45 23.1 46.55 21.35 Q47.8 20.5 49.1 20.65" fill="#594020" fill-rule="evenodd" stroke="none"/>
    <path d="M44.45 23.1 L46.55 21.35 Q47.8 20.5 49.1 20.65 L49.6 20.9 Q49.7 22.3 48.65 24.35 47.35 26.85 47.15 27.65 46.75 29.4 46.55 32.55 L46.2 37.5 44.9 43.6 Q42.6 54.75 40.9 69.9 L38.2 96.45 Q36.9 109.5 36.65 116.2 L36.35 120.9 Q36.2 123.7 36.5 125.65 L37.2 128.55 Q37.5 130.5 36.65 131.3 L34.25 131.8 31.75 131.8 28.35 131.4 Q28.55 128.45 29.5 126.9 L29.7 127.95 Q29.65 123.8 29.9 122.0 30.45 118.5 32.35 117.2 L32.45 121.75 Q32.6 119.4 33.6 115.3 34.7 110.85 34.8 108.65 L34.65 106.0 34.2 103.45 Q33.9 101.3 34.1 97.75 L34.4 92.0 34.1 87.05 Q33.9 83.95 34.55 82.2 L34.8 89.3 Q34.95 93.6 35.8 96.2 L35.95 92.4 Q36.1 90.1 36.6 88.6 L36.9 91.2 Q36.95 92.95 37.15 93.8 38.2 90.3 37.45 86.65 L35.45 78.0 Q34.55 73.05 34.95 69.15 L36.1 70.55 37.4 71.95 37.7 70.7 37.75 55.6 Q37.75 46.4 38.15 40.55 37.7 43.1 36.6 44.65 L36.05 44.1 Q35.8 43.8 35.8 43.15 35.7 44.5 35.1 45.35 34.4 46.35 33.15 46.05 31.6 49.55 31.3 54.45 31.15 56.6 31.25 63.2 L30.25 61.35 Q28.4 63.85 28.45 68.3 28.45 70.85 28.9 75.65 L28.85 89.95 Q28.8 92.3 27.9 96.4 26.9 101.0 26.75 102.85 L26.65 106.15 26.35 109.4 25.75 112.25 25.5 114.2 Q25.55 109.4 26.25 101.15 L27.1 87.25 Q27.2 83.45 26.65 80.55 26.2 77.8 24.85 73.95 24.75 75.55 25.15 82.5 25.5 87.85 24.55 90.9 L24.25 89.8 24.05 97.3 Q22.5 95.15 22.35 92.4 L21.75 97.35 Q21.3 100.3 21.4 102.4 21.55 105.9 22.95 111.95 L24.85 121.45 25.4 125.2 Q25.6 127.4 25.2 128.95 23.85 127.5 23.05 125.75 22.25 124.0 22.2 122.4 L22.05 128.9 20.9 128.3 17.8 121.35 18.2 116.6 18.35 112.0 Q17.85 103.15 18.1 89.2 18.2 77.95 18.45 72.25 18.9 62.45 20.55 55.4 22.45 47.35 28.45 38.25 L30.6 34.7 Q31.95 32.55 33.15 31.45 35.1 29.7 38.75 27.2 L44.45 23.1" fill="#4b2d02" fill-rule="evenodd" stroke="none"/>
    <path d="M28.2 131.35 L25.5 130.4 Q26.55 127.75 27.95 125.0 28.4 127.0 28.2 131.35" fill="#4b2d02" fill-rule="evenodd" stroke="none"/>
    <path d="M36.9 39.65 L36.25 47.4 Q35.55 52.7 35.5 55.2 L35.35 62.05 35.45 66.65 Q35.45 69.45 34.9 71.1 34.3 68.4 34.2 64.55 L34.15 57.9 34.25 52.35 34.45 46.75 Q34.5 43.1 35.85 38.75 36.85 35.65 38.85 31.2 L36.9 39.65" fill="#4b2d02" fill-rule="evenodd" stroke="none"/>
    <path d="M29.75 71.75 L30.3 69.05 30.25 69.45 30.25 72.8 30.1 80.0 30.1 88.65 29.9 97.35 Q29.6 102.6 29.5 113.15 L29.5 120.5 Q29.2 126.8 27.65 127.1 27.55 122.9 27.95 116.0 L28.5 104.9 29.0 83.0 29.0 77.35 Q29.05 73.85 29.75 71.75" fill="#4b2d02" fill-rule="evenodd" stroke="none"/>
    <path d="M22.65 91.05 L23.5 88.1 23.4 104.8 23.25 108.15 Q23.0 109.95 21.95 111.1 21.2 109.65 21.7 105.6 L22.45 99.85 22.65 91.05" fill="#4b2d02" fill-rule="evenodd" stroke="none"/>
    <path d="M31.35 47.3 L32.5 45.1 33.1 43.4 34.0 41.9 34.7 46.1 Q34.75 43.55 35.05 42.35 35.45 40.65 36.8 38.8 36.9 40.2 37.65 41.1 L38.15 38.05 Q38.4 35.9 39.1 35.25 40.5 36.25 40.4 39.05 L39.85 43.25 Q39.8 44.75 40.2 48.25 40.6 51.5 40.4 53.2 38.75 51.9 37.95 48.95 37.85 50.15 38.05 51.95 L38.65 54.85 39.15 55.85 39.55 57.0 39.25 60.2 38.05 67.1 Q37.2 71.4 37.15 74.1 L36.45 71.85 35.65 69.65 Q35.05 71.25 35.65 73.55 L36.55 77.35 Q36.75 80.9 36.9 81.75 37.5 84.75 39.2 84.95 L39.3 84.95 38.2 96.45 Q36.9 109.5 36.65 116.2 L36.35 120.9 Q36.2 123.7 36.5 125.65 L37.2 128.55 Q37.5 130.5 36.65 131.3 L34.25 131.8 31.75 131.8 27.65 131.2 23.8 129.65 Q21.3 128.65 20.25 127.9 18.4 126.65 18.05 125.0 17.6 122.7 18.0 118.5 18.45 113.65 18.35 112.0 17.85 103.15 18.1 89.2 L18.3 76.75 Q18.5 69.45 19.05 64.3 L19.2 96.75 Q20.35 96.3 21.05 92.85 L21.75 88.05 22.35 89.0 Q23.05 88.05 23.1 85.3 23.05 82.35 23.15 81.3 L23.65 76.95 Q24.25 74.1 25.8 73.65 27.3 75.05 27.35 77.85 27.45 81.55 27.75 82.35 L27.85 66.4 Q27.9 64.65 28.25 61.95 L28.75 57.45 29.0 59.1 Q29.85 57.65 29.9 54.45 29.9 50.7 30.3 49.45 30.55 48.65 31.35 47.3" fill="#594020" fill-rule="evenodd" stroke="none"/>
    <path d="M35.95 78.3 L35.65 71.85 Q36.85 73.65 37.95 76.45 L39.65 81.3 38.2 96.45 Q36.9 109.5 36.65 116.2 L36.35 120.9 Q36.2 123.7 36.5 125.65 L37.2 128.55 Q37.5 130.5 36.65 131.3 L34.25 131.8 31.75 131.8 27.65 131.2 23.8 129.65 Q21.3 128.65 20.25 127.9 18.4 126.65 18.05 125.0 17.6 122.7 18.0 118.5 18.45 113.65 18.35 112.0 L18.05 104.65 Q19.3 101.95 21.1 100.55 21.8 101.9 21.6 105.05 21.3 108.95 21.45 109.85 L22.4 113.75 Q23.05 116.15 23.1 117.65 23.2 121.7 22.1 127.3 23.05 127.0 23.3 126.15 L23.6 124.4 24.6 126.95 Q25.1 127.75 25.45 125.65 25.65 124.5 25.25 119.0 24.95 114.7 26.2 112.9 L26.3 118.05 Q26.2 121.4 26.45 123.15 27.9 119.85 28.35 113.95 L29.2 104.4 Q30.15 99.1 30.0 92.55 29.5 87.55 29.35 84.8 29.05 79.8 30.15 77.25 30.55 78.05 30.7 79.75 L30.85 82.35 Q31.1 85.05 31.0 88.95 L30.75 95.5 30.45 109.25 29.75 115.35 Q29.3 119.15 29.85 121.4 30.45 119.8 30.7 116.6 30.95 113.1 31.35 111.65 L31.35 115.9 32.65 112.15 33.55 108.4 33.55 106.75 33.4 105.05 Q33.3 97.5 33.0 93.65 L32.65 90.05 Q32.5 87.75 32.95 86.4 34.1 89.35 34.3 93.65 L34.2 101.05 Q34.35 99.9 35.3 98.15 36.25 96.35 36.4 95.4 36.65 93.75 35.05 89.15 33.6 85.1 34.6 83.1 L35.3 84.65 Q36.15 82.35 35.95 78.3" fill="#432802" fill-rule="evenodd" stroke="none"/>
    <path d="M45.4 22.3 Q47.65 22.55 49.1 23.4 L48.0 25.5 Q47.35 26.75 47.15 27.65 46.75 29.4 46.55 32.55 L46.2 37.5 44.9 43.6 42.6 56.5 Q41.8 56.45 40.55 54.95 L39.35 53.45 Q38.7 52.45 38.95 51.7 39.35 53.25 40.4 52.65 41.4 52.1 41.5 50.75 L41.35 47.7 41.15 44.5 41.45 39.15 Q41.6 35.6 40.85 34.0 L39.6 33.9 Q38.95 33.5 38.5 33.65 37.95 33.8 37.3 34.75 L36.25 36.15 35.3 36.7 34.45 37.35 Q34.15 37.8 34.15 39.1 34.1 40.3 33.6 40.8 L33.35 40.15 Q32.25 41.15 32.0 43.25 L31.6 46.75 30.5 50.2 29.25 53.7 29.1 54.6 28.8 55.45 28.1 56.1 27.5 56.65 Q26.85 57.7 26.6 59.5 L26.35 62.7 Q26.25 64.25 26.3 67.85 26.2 71.1 25.2 72.75 L24.65 71.2 Q24.65 75.45 24.3 77.9 23.85 81.1 22.5 84.2 L19.9 90.25 Q18.7 93.65 18.7 96.9 L18.0 96.85 18.1 89.3 Q18.2 78.0 18.45 72.3 18.9 62.45 20.55 55.4 22.45 47.35 28.45 38.25 L30.6 34.7 Q31.95 32.55 33.15 31.45 35.1 29.7 38.75 27.2 L44.45 23.1 45.4 22.3" fill="#322310" fill-rule="evenodd" stroke="none"/>
    <path d="M39.6 65.45 L40.9 66.25 39.55 71.35 Q38.2 75.0 36.35 74.1 L35.45 72.95 34.85 71.6 Q34.7 70.6 35.05 68.5 35.35 66.5 35.75 65.45 L35.6 68.95 Q35.6 71.55 36.75 71.65 38.25 71.8 38.55 69.0 38.85 65.85 39.6 65.45" fill="#322310" fill-rule="evenodd" stroke="none"/>
    <path d="M36.05 89.7 Q35.95 87.9 36.3 85.05 L36.8 81.95 Q37.2 80.0 38.05 79.15 38.75 80.65 38.4 83.65 L37.8 88.25 37.75 90.2 37.4 95.1 36.95 93.8 36.35 92.3 Q36.05 91.05 36.05 89.7" fill="#322310" fill-rule="evenodd" stroke="none"/>
    <path d="M34.9 103.35 L37.9 99.75 Q36.9 109.85 36.65 116.2 L36.35 120.9 Q36.2 123.7 36.5 125.65 L37.2 128.55 Q37.5 130.5 36.65 131.3 L34.25 131.8 31.75 131.8 Q28.95 131.85 25.7 130.5 26.5 130.15 26.65 128.4 26.75 126.8 27.7 126.65 27.95 128.55 28.9 129.45 30.0 130.55 31.75 129.8 33.4 129.1 33.2 126.45 32.65 123.4 32.7 122.2 L32.4 124.9 Q32.05 126.8 31.05 127.05 29.4 127.45 29.1 125.0 28.85 123.05 29.35 121.6 29.15 123.5 30.05 124.0 29.9 122.5 31.1 122.45 31.15 121.7 31.65 120.35 L32.25 118.15 32.55 115.55 32.9 112.45 33.35 109.4 33.8 106.35 33.8 101.75 Q33.7 98.8 34.25 97.25 L34.6 100.3 34.9 103.35" fill="#322310" fill-rule="evenodd" stroke="none"/>
    <path d="M25.0 130.2 L22.6 129.15 Q22.95 127.8 24.15 127.6 L24.65 128.85 25.0 130.2" fill="#322310" fill-rule="evenodd" stroke="none"/>
    <path d="M32.45 63.55 L31.35 66.4 Q30.9 67.9 30.85 69.5 L30.65 75.95 Q29.65 74.2 29.9 69.7 L30.45 63.25 Q30.55 60.75 31.8 55.8 33.05 50.9 33.1 48.3 L33.9 48.3 33.75 56.05 Q33.5 60.5 32.45 63.55" fill="#6a4e29" fill-rule="evenodd" stroke="none"/>
    <path d="M33.1 71.05 L33.9 69.3 Q33.85 71.1 34.25 76.2 34.6 80.45 34.3 83.05 32.65 83.15 32.7 77.8 L33.1 71.05" fill="#6a4e29" fill-rule="evenodd" stroke="none"/>
    <path d="M36.45 70.4 Q34.95 71.35 35.7 58.7 37.15 60.85 37.25 64.3 L36.95 70.4 36.45 70.4" fill="#6a4e29" fill-rule="evenodd" stroke="none"/>
    <path d="M26.2 82.65 L26.8 78.9 27.0 85.55 Q27.15 89.7 26.7 92.2 L25.65 96.1 Q24.85 98.55 24.7 100.1 L23.8 100.05 Q23.2 98.45 23.7 96.4 L25.0 92.9 Q25.65 91.4 25.55 87.75 25.45 84.2 26.2 82.65" fill="#6a4e29" fill-rule="evenodd" stroke="none"/>
    <path d="M28.45 99.0 Q28.25 100.3 28.3 102.2 L28.2 106.45 Q28.05 107.55 27.3 109.45 26.95 110.9 26.95 113.4 L26.9 117.4 Q25.45 117.2 25.85 114.45 L26.75 110.65 Q27.6 107.65 27.8 101.95 L28.45 99.0" fill="#6a4e29" fill-rule="evenodd" stroke="none"/>
    <path d="M32.5 96.3 L32.85 93.8 32.65 102.55 32.85 105.85 Q33.05 107.95 32.7 109.05 31.95 111.5 31.8 109.8 31.65 108.2 31.95 106.6 32.4 104.45 32.5 101.5 L32.5 96.3" fill="#6a4e29" fill-rule="evenodd" stroke="none"/>
    <path d="M23.85 106.35 L24.95 102.9 24.7 113.65 24.6 116.2 Q24.4 117.75 23.55 118.4 22.0 117.0 22.6 112.6 L23.85 106.35" fill="#6a4e29" fill-rule="evenodd" stroke="none"/>
    <path d="M41.6 53.65 L47.3 50.45 Q47.7 51.15 47.75 52.9 L47.75 55.1 Q47.6 61.75 45.95 68.2 44.7 73.55 42.6 78.35 L39.85 83.6 Q38.95 84.25 38.4 84.1 37.9 83.95 37.55 82.8 37.0 80.9 37.2 78.35 L37.5 73.9 37.65 69.85 37.4 66.6 37.1 63.35 Q37.2 64.15 37.75 64.15 38.25 64.2 38.75 63.6 39.15 63.2 39.4 62.2 L39.9 60.65 Q41.55 57.4 41.6 53.65" fill="#322310" fill-rule="evenodd" stroke="none"/>
    <path d="M36.8 89.7 Q36.65 86.5 37.45 85.25 L39.5 77.3 39.25 92.8 Q38.9 101.7 37.7 108.15 L36.9 112.0 Q36.1 114.5 34.3 114.0 34.2 113.65 34.4 113.3 L34.75 112.6 Q35.8 109.65 35.8 108.25 L35.65 107.3 35.45 106.5 Q35.25 105.45 35.3 103.65 L35.25 100.7 34.85 99.2 34.45 97.7 Q34.2 95.95 34.6 93.35 L34.7 95.45 Q34.85 96.95 35.5 97.05 36.25 97.2 36.6 96.05 L36.9 94.45 36.8 89.7" fill="#322310" fill-rule="evenodd" stroke="none"/>
    <path d="M44.9 25.8 Q45.55 23.6 46.8 22.2 48.35 20.45 51.25 19.2 52.55 18.65 56.35 17.4 L62.85 15.8 Q68.55 14.55 68.6 14.95 68.75 17.05 68.25 21.2 67.5 28.05 67.0 42.85 66.5 57.05 65.55 64.5 62.75 86.4 61.9 108.05 L61.1 131.6 61.05 134.8 Q60.75 136.15 58.95 136.4 L55.65 136.35 47.25 136.4 Q42.05 136.3 39.25 135.05 36.65 133.85 35.75 132.5 34.8 131.15 34.85 128.55 35.0 122.0 35.65 116.35 L36.8 102.65 37.8 88.9 38.15 80.4 38.5 71.95 38.65 68.7 Q38.75 66.7 39.15 65.5 L40.5 62.4 Q41.4 60.5 41.55 59.15 L42.05 52.0 Q42.25 47.2 42.6 44.75 L44.2 29.8 Q44.5 27.2 44.9 25.8" fill="#594020" fill-rule="evenodd" stroke="none"/>
    <path d="M52.65 76.35 Q52.05 75.45 52.25 73.0 L52.65 76.35" fill="#453219" fill-rule="evenodd" stroke="none"/>
    <path d="M44.9 25.8 Q45.55 23.6 46.8 22.2 48.35 20.45 51.25 19.2 52.55 18.65 56.35 17.4 L62.85 15.8 Q68.55 14.55 68.6 14.95 68.75 17.05 68.25 21.2 67.5 28.05 67.0 42.85 66.5 57.05 65.55 64.5 62.75 86.4 61.9 108.05 L61.1 131.6 61.05 134.8 Q60.75 136.15 58.95 136.4 L55.65 136.35 47.25 136.4 Q42.05 136.3 39.25 135.05 37.15 134.1 36.2 133.05 36.3 129.15 37.85 127.55 38.25 129.3 38.65 133.0 L40.35 132.7 40.6 122.35 Q40.6 115.7 42.6 112.6 43.5 115.35 43.4 119.85 L43.1 127.25 43.1 130.1 Q43.2 131.9 43.9 132.6 43.75 131.35 44.45 130.55 L46.2 130.8 Q47.4 130.75 47.85 130.25 48.2 129.9 48.2 128.85 L48.15 127.45 Q48.2 126.1 48.55 124.25 L49.15 121.05 48.0 124.3 Q47.0 126.3 46.15 124.65 46.05 124.4 46.25 124.1 L46.5 123.65 46.35 118.2 Q46.5 107.6 48.1 98.35 47.45 99.75 47.0 104.65 46.65 108.8 44.9 110.75 42.65 113.3 42.15 109.3 41.95 107.8 42.05 103.55 44.45 105.7 45.0 108.05 L45.85 98.95 Q46.3 93.7 46.2 89.8 L45.3 90.1 Q45.1 89.1 45.3 87.6 L45.5 87.75 Q46.25 87.05 46.45 86.1 L46.65 84.1 46.8 75.2 Q46.95 69.7 48.45 66.6 48.85 68.25 48.65 71.2 L48.35 75.8 Q48.4 79.25 48.8 81.25 49.5 84.85 51.3 86.05 53.45 87.5 53.95 84.7 L54.15 80.15 Q53.65 81.4 52.55 81.3 51.5 81.2 51.85 79.75 L52.8 79.7 52.65 76.35 Q53.3 77.15 54.7 76.5 L54.85 71.6 54.95 66.65 Q54.65 62.05 54.65 59.05 54.65 53.35 56.35 51.65 57.05 52.6 57.8 54.8 58.55 57.0 59.15 57.85 60.35 53.6 60.45 50.55 L60.5 46.85 Q61.4 45.75 61.3 43.7 60.65 44.95 60.5 46.85 59.2 48.7 55.0 49.1 55.5 45.5 55.4 39.7 L55.25 30.55 Q55.25 32.65 54.5 35.7 L53.0 41.25 Q51.85 45.35 49.65 44.9 49.35 44.15 49.6 43.45 52.8 43.0 52.1 31.95 51.3 32.75 50.65 34.65 L49.75 37.6 Q49.25 39.3 48.9 42.2 L48.25 46.8 Q47.6 50.05 47.35 54.55 L47.15 59.15 47.25 47.15 Q47.35 38.05 47.85 31.9 47.1 35.0 46.15 35.75 45.9 34.7 45.95 34.15 45.1 37.6 43.6 38.5 L43.5 37.65 43.25 39.0 44.2 29.8 Q44.5 27.2 44.9 25.8" fill="#453219" fill-rule="evenodd" stroke="none"/>
    <path d="M51.7 24.15 Q50.25 24.6 49.85 25.15 49.25 26.0 49.1 28.6 48.95 31.2 48.35 32.15 L48.5 29.1 Q48.6 27.15 47.95 26.4 47.65 27.0 46.85 27.25 46.05 27.5 45.8 27.85 45.45 28.35 45.0 30.3 L43.7 34.65 44.2 29.8 Q44.5 27.2 44.9 25.8 45.55 23.6 46.8 22.2 48.35 20.45 51.25 19.2 52.55 18.65 56.35 17.4 L62.85 15.8 Q68.55 14.55 68.6 14.95 68.75 17.05 68.25 21.2 67.5 28.05 67.0 42.85 66.5 57.05 65.55 64.5 62.75 86.4 61.9 108.05 L61.1 131.6 61.05 134.8 Q60.75 136.15 58.95 136.4 L55.65 136.35 47.5 136.45 Q42.45 136.35 39.6 135.15 41.05 134.25 41.3 130.8 41.6 127.05 42.55 126.0 L42.65 130.95 Q43.0 133.5 45.1 135.1 45.8 134.25 45.8 133.15 46.95 133.4 47.5 133.7 L48.25 132.95 Q48.15 133.95 48.65 134.9 L49.9 135.05 51.25 135.2 52.5 129.3 Q52.95 126.2 52.85 123.05 51.7 125.05 50.4 123.2 49.1 121.35 49.95 119.75 50.9 121.15 51.4 121.55 51.95 120.7 52.15 118.05 52.35 115.0 52.6 114.15 L53.05 118.2 54.25 117.75 54.15 116.05 Q53.95 114.95 54.1 114.3 L55.0 114.75 55.85 115.05 Q56.35 114.15 56.2 112.7 L55.8 110.3 Q55.55 108.6 55.6 104.8 55.7 101.15 55.35 99.35 53.75 101.7 53.2 98.35 52.75 95.25 53.25 93.8 L53.3 96.9 Q53.6 98.85 55.0 98.3 55.7 98.05 56.05 96.65 56.4 95.0 56.75 94.6 L56.8 96.8 Q56.85 98.45 57.25 98.8 57.95 99.4 58.2 98.45 L58.35 97.15 Q58.8 92.9 59.2 90.85 L59.3 88.35 59.1 85.85 Q58.95 82.45 59.25 77.25 L59.75 68.65 Q59.5 70.15 58.2 69.1 57.45 68.5 57.75 66.05 57.85 67.15 59.25 66.9 59.35 64.0 59.65 63.15 61.1 63.3 61.9 55.2 L62.6 44.95 Q63.05 41.65 62.95 40.45 L62.55 38.5 62.3 36.65 Q62.1 40.35 61.6 42.2 L61.75 40.95 61.7 39.7 Q61.65 39.4 61.2 39.05 L60.7 38.4 Q60.5 37.55 60.6 36.05 L60.8 33.65 60.75 27.5 60.85 21.35 Q60.5 23.05 59.05 26.2 57.6 29.35 57.25 31.0 L57.55 26.85 Q57.55 24.35 56.65 23.15 55.7 25.65 54.45 31.15 L53.65 33.8 53.7 30.95 53.95 27.25 Q54.1 24.9 53.65 23.6 L51.7 24.15" fill="#322310" fill-rule="evenodd" stroke="none"/>
    <path d="M38.3 132.45 L38.75 133.65 38.9 134.85 37.55 134.1 Q37.8 132.95 38.3 132.45" fill="#322310" fill-rule="evenodd" stroke="none"/>
    <path d="M54.55 84.25 Q54.25 86.35 53.65 87.7 52.35 90.45 50.2 89.45 48.05 88.4 48.65 85.65 50.45 88.4 52.75 86.65 54.0 85.65 54.55 84.25" fill="#322310" fill-rule="evenodd" stroke="none"/>
    <path d="M46.55 97.1 L47.3 93.75 Q47.1 95.6 47.5 98.35 48.15 102.8 47.1 105.15 L46.0 107.65 Q45.1 109.25 44.0 109.1 42.8 108.95 42.4 107.25 42.15 106.05 42.35 104.65 L43.35 106.65 Q43.9 107.3 44.9 106.1 46.55 104.05 46.55 97.1" fill="#322310" fill-rule="evenodd" stroke="none"/>
    <path d="M49.5 113.95 L50.15 107.2 50.35 115.35 Q50.2 120.8 48.2 122.9 L47.2 123.8 Q46.5 124.15 46.2 123.35 46.0 122.9 46.75 122.3 L47.55 121.65 48.45 120.4 49.1 118.85 49.15 116.35 Q49.1 114.75 49.5 113.95" fill="#322310" fill-rule="evenodd" stroke="none"/>
    <path d="M48.45 127.15 L50.6 121.95 50.1 126.4 Q49.8 129.3 49.1 130.7 L48.35 131.85 46.8 131.9 Q44.95 131.2 45.7 130.9 L47.3 130.4 48.6 129.15 Q49.0 128.3 48.45 127.15" fill="#322310" fill-rule="evenodd" stroke="none"/>
    <path d="M55.5 53.8 L56.3 51.6 Q56.15 52.55 56.65 59.55 56.85 65.9 55.0 65.25 54.9 63.05 55.15 59.55 L55.5 53.8" fill="#322310" fill-rule="evenodd" stroke="none"/>
    <path d="M58.6 39.25 Q58.2 48.3 56.15 47.8 56.05 47.0 56.3 46.05 L56.75 44.35 Q57.0 43.15 56.8 38.8 56.6 35.15 57.5 33.6 L58.6 29.15 58.6 39.25" fill="#322310" fill-rule="evenodd" stroke="none"/>
    <path d="M55.55 73.55 L57.25 67.1 56.7 73.15 Q56.45 76.8 55.65 79.05 54.25 79.0 53.25 78.3 52.05 77.5 52.9 76.35 54.1 77.55 54.95 76.15 55.7 74.95 55.55 73.55" fill="#322310" fill-rule="evenodd" stroke="none"/>
    <path d="M53.45 90.9 L53.6 90.55 53.6 90.6 54.45 89.05 Q55.25 87.6 55.5 86.35 55.45 87.5 55.75 91.35 55.95 94.9 55.3 96.15 53.6 99.4 53.6 90.6 L53.45 90.9" fill="#594020" fill-rule="evenodd" stroke="none"/>
    <path d="M50.2 94.2 L51.3 91.75 Q51.25 94.05 51.75 97.95 L52.3 104.1 52.55 112.1 Q52.4 118.65 50.45 118.95 L49.95 106.6 Q49.8 99.55 50.2 94.2" fill="#594020" fill-rule="evenodd" stroke="none"/>
    <path d="M54.3 105.55 L54.85 103.8 55.0 108.45 Q55.1 111.65 54.4 112.85 53.85 111.95 54.0 109.3 L54.3 105.55" fill="#594020" fill-rule="evenodd" stroke="none"/>
    <path d="M43.95 44.55 L45.8 42.1 45.85 50.85 Q45.8 56.15 45.15 59.5 L44.65 61.85 43.75 64.0 43.0 64.65 42.3 65.25 Q41.95 65.9 41.85 66.9 L41.65 68.7 41.35 73.45 Q41.15 76.6 40.4 77.85 39.7 76.55 39.85 73.2 L40.3 68.35 Q40.45 66.75 41.2 64.0 L42.25 59.75 42.35 57.6 42.4 55.45 43.3 50.05 Q43.9 46.7 43.95 44.55" fill="#6a4e29" fill-rule="evenodd" stroke="none"/>
    <path d="M49.25 46.4 L51.05 45.7 50.85 54.45 50.45 58.1 Q50.2 60.45 50.7 61.7 L51.35 61.75 Q51.75 64.15 51.55 68.1 L51.2 74.55 51.05 79.55 Q51.05 80.45 51.55 82.35 52.0 84.15 51.9 85.0 47.9 84.2 47.85 77.95 48.65 70.75 48.55 68.5 48.85 65.2 48.4 64.15 L47.7 63.2 Q47.25 62.8 47.15 62.05 47.1 61.4 47.45 60.2 L47.95 58.35 Q48.85 54.05 48.9 51.45 L48.9 48.9 Q48.9 47.35 49.25 46.4" fill="#6a4e29" fill-rule="evenodd" stroke="none"/>
    <path d="M51.55 35.45 Q51.75 36.9 51.1 39.05 50.5 41.1 49.65 42.15 48.85 40.6 49.95 37.5 51.2 33.8 51.1 32.7 L51.55 35.45" fill="#6a4e29" fill-rule="evenodd" stroke="none"/>
    <path d="M43.65 68.3 L45.8 63.6 45.7 80.3 Q45.0 90.25 40.5 95.65 40.25 92.9 40.3 91.6 40.35 90.45 40.8 89.9 L41.95 88.6 Q42.85 87.25 43.05 84.35 L43.2 75.6 43.2 71.7 Q43.3 68.5 43.65 68.3" fill="#6a4e29" fill-rule="evenodd" stroke="none"/>
    <path d="M44.6 93.05 L45.45 91.1 45.35 98.8 Q44.85 105.55 42.85 105.25 42.45 95.95 44.6 93.05" fill="#6a4e29" fill-rule="evenodd" stroke="none"/>
    <path d="M39.1 98.7 L40.65 98.0 40.3 106.05 39.8 114.05 38.95 124.85 38.6 128.75 Q38.4 131.15 37.85 132.45 37.5 131.6 37.6 130.15 L37.7 127.75 Q37.1 121.5 37.3 118.65 L37.5 114.05 Q37.55 111.1 37.85 109.4 L38.4 104.05 Q38.65 100.55 39.1 98.7" fill="#6a4e29" fill-rule="evenodd" stroke="none"/>
    <path d="M51.3 114.5 L50.0 115.45 Q49.3 113.9 49.45 109.2 49.6 104.15 50.8 103.2 51.85 104.85 52.0 108.7 52.15 112.55 51.3 114.5" fill="#6a4e29" fill-rule="evenodd" stroke="none"/>
    <path d="M44.55 112.9 L45.3 119.45 Q45.1 124.85 44.55 128.1 42.8 126.8 43.1 120.35 43.4 114.3 44.55 112.9" fill="#6a4e29" fill-rule="evenodd" stroke="none"/>
    <path d="M46.15 126.35 L46.7 124.65 46.6 127.15 Q46.5 128.6 46.1 129.4 45.55 128.4 46.15 126.35" fill="#6a4e29" fill-rule="evenodd" stroke="none"/>
    <path d="M54.9 90.55 L55.2 88.3 55.25 91.95 Q55.2 95.05 54.55 95.1 53.85 95.15 54.0 92.95 54.15 90.8 54.9 90.55" fill="#6a4e29" fill-rule="evenodd" stroke="none"/>
    <path d="M57.8 50.35 Q57.6 50.65 58.5 52.95 59.35 55.25 58.6 56.05 57.1 57.7 57.05 54.55 57.0 51.45 57.8 50.35" fill="#6a4e29" fill-rule="evenodd" stroke="none"/>
    <path d="M66.7 21.5 Q66.45 16.2 67.75 13.6 L76.3 16.3 77.3 16.3 84.8 17.25 Q86.1 17.45 86.75 17.8 L88.25 18.8 Q90.7 20.3 91.6 21.05 93.0 22.35 93.0 24.35 L92.9 27.95 Q92.7 36.4 91.55 51.55 90.25 68.05 90.0 75.15 L88.65 101.8 Q87.7 118.55 87.45 128.5 L87.3 136.25 87.35 138.25 Q87.3 139.55 86.65 140.1 85.95 140.8 82.0 141.15 79.2 141.4 71.6 140.95 L66.7 140.3 Q64.55 139.8 62.1 138.7 58.85 137.25 58.3 135.95 58.1 135.4 58.4 134.1 L58.8 132.15 59.2 126.15 Q59.9 115.8 61.45 106.6 L62.2 100.05 62.6 93.5 62.9 85.55 Q63.05 80.55 63.45 77.65 64.35 71.25 64.65 59.8 L64.75 51.5 Q64.95 46.5 65.6 43.25 67.0 35.95 67.15 29.75 L66.7 21.5" fill="#594020" fill-rule="evenodd" stroke="none"/>
    <path d="M70.7 25.35 L70.05 27.85 Q69.6 29.35 68.8 29.95 68.0 29.35 67.9 27.35 L67.05 31.65 67.15 29.75 66.7 21.5 Q66.45 16.2 67.75 13.6 L76.3 16.3 77.3 16.3 84.8 17.25 Q86.1 17.45 86.75 17.8 L88.25 18.8 Q90.7 20.3 91.6 21.05 93.0 22.35 93.0 24.35 L92.9 27.95 Q92.7 36.4 91.55 51.55 90.25 68.05 90.0 75.15 L88.65 101.8 Q87.7 118.55 87.45 128.5 L87.3 136.25 87.35 138.25 Q87.3 139.55 86.65 140.1 85.95 140.8 82.0 141.15 79.2 141.4 71.6 140.95 L66.7 140.3 Q63.45 139.5 60.4 137.85 L60.65 137.0 60.9 137.6 Q61.8 135.65 62.2 129.7 62.55 124.25 64.3 121.8 64.7 123.65 64.6 126.65 L64.45 131.5 64.1 135.0 Q63.85 137.7 64.25 138.6 64.75 139.5 65.15 139.5 L66.3 139.1 Q66.8 138.25 67.15 138.1 L68.55 138.0 70.0 137.65 69.95 134.1 Q69.85 135.6 67.95 135.85 66.1 136.1 65.45 134.85 65.05 134.1 65.2 131.85 65.4 129.8 65.7 128.95 65.8 131.7 67.75 131.4 69.4 131.1 69.15 130.15 68.5 129.1 68.4 128.65 68.0 126.65 68.2 123.7 68.4 120.85 69.0 119.0 69.5 119.85 69.95 123.7 70.65 126.65 72.8 124.25 74.35 122.55 74.7 119.85 L74.75 115.0 71.75 115.45 Q71.65 111.95 71.9 109.65 73.65 112.25 74.5 110.7 75.25 109.25 74.7 106.8 73.65 106.55 73.6 104.75 73.55 103.45 74.0 102.1 L74.6 104.6 Q75.15 105.95 76.5 105.85 L76.7 101.2 76.75 96.5 77.2 92.45 Q77.45 89.1 76.75 88.5 76.35 88.1 75.3 88.0 L73.7 87.95 73.65 85.0 Q73.5 83.35 72.0 82.75 71.75 83.9 71.15 84.2 70.5 84.5 69.7 83.85 69.05 83.3 69.1 81.2 69.15 79.45 69.45 78.55 69.7 81.05 70.9 81.25 72.0 81.45 73.6 79.5 74.35 78.55 74.55 77.65 L74.6 75.6 74.15 76.25 Q72.6 75.65 72.4 72.2 L72.55 67.55 Q72.85 69.0 74.7 71.5 76.75 74.25 77.8 73.55 78.55 73.1 78.55 70.95 L78.4 68.1 78.4 66.9 77.95 65.8 77.05 65.45 Q76.4 65.35 76.2 65.1 75.75 64.4 76.0 61.8 L76.35 58.4 Q76.45 53.55 77.5 51.4 L77.55 55.55 Q77.65 57.95 78.3 59.55 78.4 54.1 78.75 51.1 79.35 45.7 81.5 43.4 L82.2 44.55 Q82.45 43.9 82.15 42.35 L81.65 40.15 Q81.4 38.1 81.55 34.4 L81.6 28.6 77.85 38.6 76.9 41.15 Q76.15 42.95 75.45 43.35 L75.15 34.8 Q75.0 29.55 74.25 26.35 73.8 27.15 73.0 30.1 72.3 32.55 71.3 33.55 70.2 32.75 70.35 29.7 L70.7 25.35" fill="#453219" fill-rule="evenodd" stroke="none"/>
    <path d="M72.0 55.05 Q71.6 54.35 71.9 53.2 74.2 53.8 74.45 49.9 74.3 45.5 74.6 44.75 L75.7 31.25 Q75.2 39.35 74.95 51.5 74.95 54.1 73.55 55.7 72.4 55.8 72.0 55.05" fill="#453219" fill-rule="evenodd" stroke="none"/>
    <path d="M73.15 107.05 Q72.75 108.2 71.35 108.45 69.95 108.65 69.25 107.85 68.55 107.05 68.9 105.7 71.1 107.75 71.8 106.65 72.2 105.95 72.25 102.75 72.65 89.5 73.5 81.25 L76.55 72.55 Q76.45 76.2 75.25 83.6 74.1 90.8 74.0 94.6 L73.5 104.35 73.15 107.05" fill="#453219" fill-rule="evenodd" stroke="none"/>
    <path d="M70.05 87.3 L69.95 91.7 Q69.85 94.9 69.3 96.1 68.05 96.35 67.7 95.45 L67.6 93.5 68.4 93.9 Q69.35 92.85 69.25 90.1 L69.05 85.9 71.55 77.25 Q70.15 82.8 70.05 87.3" fill="#453219" fill-rule="evenodd" stroke="none"/>
    <path d="M70.6 52.15 L72.65 41.95 72.7 52.1 Q72.7 58.25 71.85 62.15 L71.35 63.6 Q70.9 64.6 70.8 65.15 L69.85 65.05 Q69.65 64.35 70.05 63.8 L70.65 62.7 Q71.15 60.35 71.25 57.25 71.3 53.6 70.6 52.15" fill="#453219" fill-rule="evenodd" stroke="none"/>
    <path d="M66.9 102.35 L67.65 93.1 67.45 102.6 Q67.35 108.55 66.7 112.1 66.05 115.45 64.9 113.8 64.4 113.1 65.25 111.55 L66.45 109.25 Q66.75 108.25 66.6 105.8 66.5 103.5 66.9 102.35" fill="#453219" fill-rule="evenodd" stroke="none"/>
    <path d="M73.35 21.95 Q72.4 22.3 71.85 23.1 L71.8 20.45 69.0 20.45 Q67.45 20.6 66.65 21.35 66.45 16.15 67.75 13.6 L76.3 16.3 77.3 16.3 84.8 17.25 Q86.1 17.45 86.75 17.8 L88.25 18.8 Q90.7 20.3 91.6 21.05 93.0 22.35 93.0 24.35 L92.9 27.95 Q92.7 36.4 91.55 51.55 90.25 68.05 90.0 75.15 L88.65 101.8 Q87.7 118.55 87.45 128.5 L87.3 136.25 87.35 138.25 Q87.3 139.55 86.65 140.1 85.95 140.8 82.0 141.15 79.2 141.4 71.6 140.95 L66.7 140.3 65.15 139.85 66.8 139.65 Q68.6 139.0 69.6 138.9 71.35 138.75 71.45 140.4 72.65 140.7 73.4 139.25 L73.75 139.9 74.25 140.4 Q74.15 139.6 74.35 138.55 L74.85 136.8 Q76.55 137.65 77.85 135.55 79.15 133.45 78.0 132.1 77.3 132.45 76.6 133.5 L75.5 135.25 73.1 134.3 Q72.5 133.75 72.65 132.05 73.95 133.7 74.8 132.6 75.5 131.7 75.55 130.05 L75.35 128.35 Q75.25 127.25 75.5 126.55 75.45 126.95 75.85 127.75 76.6 127.85 78.55 126.5 79.75 125.7 80.0 127.6 81.05 126.9 81.8 124.55 82.55 122.2 82.15 120.9 81.95 120.25 80.65 119.05 79.8 118.25 80.3 116.7 L80.35 117.85 Q82.85 118.6 83.3 114.75 L83.35 109.15 Q83.45 105.9 82.9 103.7 L82.5 101.65 Q82.4 100.45 83.0 99.7 L83.6 100.45 84.35 101.05 Q85.0 99.85 84.95 96.75 L84.8 92.2 85.0 83.55 Q84.6 85.1 83.55 85.0 82.6 84.9 81.95 83.7 81.25 82.3 81.9 80.3 82.45 81.6 83.6 83.1 83.8 82.45 84.7 81.15 85.45 80.0 85.6 78.9 L85.7 73.7 85.65 68.95 84.35 65.7 Q83.55 63.75 84.1 62.3 84.6 64.15 85.8 65.15 86.7 64.65 86.9 62.95 L87.1 60.25 Q87.75 55.95 87.5 53.75 87.2 49.85 87.35 47.8 L87.95 44.35 Q88.35 42.05 87.7 41.1 86.9 41.7 87.15 43.05 85.6 43.4 85.5 42.25 85.35 41.1 86.95 41.5 87.25 37.25 85.3 36.95 85.2 36.05 85.4 34.0 85.6 32.05 85.4 31.0 85.0 28.45 84.5 27.45 L83.5 26.1 Q83.05 25.4 83.25 24.5 82.2 24.65 81.45 23.8 80.6 22.75 80.0 22.65 L79.85 26.2 Q79.75 28.55 79.05 29.6 78.4 30.65 77.45 30.55 76.5 30.45 76.55 29.1 L78.55 29.05 Q78.7 26.6 78.45 25.3 78.05 22.85 76.55 22.25 L73.35 21.95" fill="#322310" fill-rule="evenodd" stroke="none"/>
    <path d="M62.25 135.0 Q62.75 138.65 64.05 139.45 61.0 138.4 59.45 137.2 61.0 134.9 62.25 135.0" fill="#322310" fill-rule="evenodd" stroke="none"/>
    <path d="M83.5 46.95 L84.25 37.45 84.25 46.6 84.1 55.75 Q84.0 57.8 83.75 58.25 83.35 59.0 81.65 58.95 78.8 58.85 79.2 57.15 81.05 57.3 81.75 56.45 82.25 55.8 82.55 53.7 L82.8 50.3 Q82.95 48.2 83.5 46.95" fill="#322310" fill-rule="evenodd" stroke="none"/>
    <path d="M80.9 66.0 L82.65 61.45 82.5 69.0 82.6 72.7 Q82.6 75.65 82.15 76.55 81.75 77.4 80.9 77.85 L79.05 77.75 Q77.7 76.65 78.95 76.2 80.7 75.85 80.9 75.5 81.55 74.6 81.45 70.75 81.3 67.4 80.9 66.0" fill="#322310" fill-rule="evenodd" stroke="none"/>
    <path d="M80.25 87.9 L81.15 83.15 81.2 90.8 Q80.9 97.55 79.1 97.1 79.0 96.4 79.3 95.7 L79.8 94.65 80.2 91.3 80.25 87.9" fill="#322310" fill-rule="evenodd" stroke="none"/>
    <path d="M77.1 80.8 L76.4 82.05 76.4 83.05 Q76.05 85.6 74.25 84.95 L74.25 84.05 Q75.4 84.15 76.05 82.9 L76.4 82.05 76.4 79.3 77.1 80.8" fill="#322310" fill-rule="evenodd" stroke="none"/>
    <path d="M78.3 106.35 L79.0 99.35 78.6 105.7 78.2 112.0 78.2 114.15 Q78.1 115.65 77.35 115.85 75.95 116.25 75.85 114.55 75.75 112.95 78.1 113.35 L78.3 106.35" fill="#322310" fill-rule="evenodd" stroke="none"/>
    <path d="M78.25 119.85 L80.7 114.4 Q80.7 117.25 79.75 120.7 78.4 125.75 75.95 123.85 75.1 123.15 75.45 122.85 L76.15 122.3 77.2 121.95 77.75 120.95 78.25 119.85" fill="#322310" fill-rule="evenodd" stroke="none"/>
    <path d="M73.0 125.25 L73.8 125.75 73.0 127.6 72.95 128.25 Q72.6 130.1 70.9 129.35 70.8 128.5 71.15 128.0 72.05 129.75 72.75 128.15 L73.0 127.6 73.0 125.25" fill="#322310" fill-rule="evenodd" stroke="none"/>
    <path d="M70.0 131.4 Q69.9 134.0 69.05 134.35 68.05 134.75 67.2 133.75 66.4 132.75 66.95 131.85 L68.0 132.1 69.9 127.9 70.0 131.4" fill="#322310" fill-rule="evenodd" stroke="none"/>
    <path d="M81.8 54.9 L80.5 55.15 Q79.85 54.55 79.95 51.2 80.05 47.85 80.95 47.65 82.0 47.45 82.0 50.8 L81.8 54.9" fill="#594020" fill-rule="evenodd" stroke="none"/>
    <path d="M85.05 46.75 Q85.1 48.65 85.95 53.1 86.5 57.2 85.35 59.4 84.6 60.85 83.6 60.5 82.6 60.15 82.8 58.5 82.9 57.7 83.55 56.25 L84.45 54.0 Q85.05 50.95 85.05 46.75" fill="#594020" fill-rule="evenodd" stroke="none"/>
    <path d="M83.45 72.45 L84.3 67.75 Q84.75 70.0 84.8 73.1 84.85 76.65 84.25 78.65 83.95 79.85 83.25 80.25 82.45 80.75 81.65 79.5 81.1 78.5 81.8 77.8 L83.05 76.5 83.45 74.55 83.45 72.45" fill="#594020" fill-rule="evenodd" stroke="none"/>
    <path d="M77.9 79.35 L79.45 79.6 79.25 84.9 Q78.75 89.35 77.25 87.05 76.9 86.45 77.25 85.2 L77.8 83.5 77.9 79.35" fill="#594020" fill-rule="evenodd" stroke="none"/>
    <path d="M81.1 96.4 L81.9 83.45 Q82.3 88.25 82.2 94.75 L81.9 106.1 82.0 110.85 Q81.85 114.25 80.3 114.65 79.25 113.3 79.55 105.0 79.85 96.7 81.1 96.4" fill="#594020" fill-rule="evenodd" stroke="none"/>
    <path d="M72.1 131.8 Q71.1 131.1 72.1 129.7 72.95 128.55 74.0 128.0 L74.25 128.5 73.7 130.9 Q73.2 132.5 72.1 131.8" fill="#594020" fill-rule="evenodd" stroke="none"/>
    <path d="M68.2 34.1 L70.0 33.65 Q69.85 34.75 70.0 36.8 L70.1 39.95 Q70.05 41.95 69.6 44.7 L68.7 49.4 Q67.95 53.35 67.7 61.05 67.5 69.0 66.8 72.8 L66.9 60.25 66.9 47.7 Q66.95 45.35 67.55 40.9 L68.2 34.1" fill="#6a4e29" fill-rule="evenodd" stroke="none"/>
    <path d="M72.15 50.4 Q71.8 49.8 72.0 47.3 L72.35 44.0 72.4 40.8 Q72.5 38.95 73.0 37.7 L74.15 31.75 Q73.95 42.65 73.6 46.7 L73.4 49.6 Q73.05 51.65 72.15 50.4" fill="#6a4e29" fill-rule="evenodd" stroke="none"/>
    <path d="M76.95 44.05 L78.85 38.85 78.35 45.15 Q77.6 50.2 75.8 49.75 L75.75 46.6 Q75.9 44.6 76.95 44.05" fill="#6a4e29" fill-rule="evenodd" stroke="none"/>
    <path d="M63.45 77.65 L64.05 72.05 64.3 72.7 65.15 71.4 65.7 69.9 64.9 75.5 Q64.35 78.95 64.6 81.2 65.9 80.3 67.1 78.0 L68.85 74.25 68.95 84.0 Q68.55 90.55 65.9 92.85 65.7 91.9 65.8 89.6 65.8 87.5 65.5 86.4 L65.0 87.8 64.95 84.75 Q63.85 86.15 63.2 88.5 L63.0 91.05 Q62.95 93.0 62.6 93.9 L62.6 93.5 62.9 85.55 Q63.05 80.55 63.45 77.65" fill="#6a4e29" fill-rule="evenodd" stroke="none"/>
    <path d="M64.7 98.05 L65.55 95.05 Q65.4 96.35 66.1 102.9 66.6 107.7 64.9 110.6 L63.95 110.5 Q63.15 108.05 63.5 104.2 63.75 100.9 64.7 98.05" fill="#6a4e29" fill-rule="evenodd" stroke="none"/>
    <path d="M63.8 114.0 L64.35 112.8 63.1 121.95 Q62.0 129.35 60.7 129.15 60.6 124.0 61.0 121.15 61.65 116.25 63.8 114.0" fill="#6a4e29" fill-rule="evenodd" stroke="none"/>
    <path d="M67.35 110.8 L67.05 118.65 Q67.0 120.2 67.25 124.2 67.3 127.85 66.5 129.55 63.55 129.45 64.6 124.05 65.4 119.95 66.8 117.6 L67.35 110.8" fill="#6a4e29" fill-rule="evenodd" stroke="none"/>
    <path d="M71.7 116.45 L72.75 114.45 Q72.75 113.95 73.15 113.8 74.8 115.55 75.0 117.3 75.2 118.75 74.4 120.75 73.5 122.9 72.35 123.3 69.25 124.35 69.2 120.95 69.15 117.6 71.7 116.45" fill="#6a4e29" fill-rule="evenodd" stroke="none"/>
    <path d="M69.85 97.1 L70.15 93.75 70.3 90.45 Q71.05 91.3 71.0 94.3 L70.85 98.7 70.8 101.45 Q70.6 103.25 69.7 103.8 68.85 102.55 69.2 100.5 L69.85 97.1" fill="#6a4e29" fill-rule="evenodd" stroke="none"/>
    <path d="M74.8 103.75 Q73.35 102.65 73.65 96.85 73.95 91.2 75.1 90.05 76.75 91.75 76.65 96.1 L76.1 102.8 74.8 103.75" fill="#6a4e29" fill-rule="evenodd" stroke="none"/>
    <path d="M70.3 71.2 L70.8 67.9 72.1 72.45 Q72.6 75.45 71.35 76.95 69.9 78.6 69.9 75.45 69.9 73.4 70.3 71.2" fill="#6a4e29" fill-rule="evenodd" stroke="none"/>
    <path d="M74.65 68.35 Q72.5 67.5 72.9 62.85 73.75 57.75 73.55 56.3 L74.2 60.85 Q74.65 63.45 75.35 65.25 L76.4 67.8 Q76.65 69.2 74.65 68.35" fill="#6a4e29" fill-rule="evenodd" stroke="none"/>
    <path d="M69.4 60.65 L69.9 60.65 69.85 62.5 Q69.75 63.5 69.2 64.05 67.85 62.5 67.95 59.2 68.05 55.65 70.25 55.4 L70.3 58.15 Q70.15 59.75 69.4 60.65" fill="#6a4e29" fill-rule="evenodd" stroke="none"/>
    <path d="M92.55 20.9 L95.05 22.7 Q94.85 23.8 95.6 25.15 L97.0 27.35 99.95 31.95 102.85 36.5 Q109.15 47.35 111.4 55.55 L113.5 63.15 115.15 70.85 Q115.65 74.15 115.7 78.5 L115.6 86.25 Q115.5 91.2 114.75 98.1 L113.45 109.85 112.75 120.95 Q112.4 127.8 111.75 131.95 L111.3 137.05 Q110.9 140.3 109.75 141.8 108.45 143.5 105.5 143.85 L100.5 143.85 95.55 143.85 90.75 143.4 Q89.65 143.2 88.1 142.3 L85.5 141.0 Q84.8 131.4 85.6 116.45 L86.85 91.85 Q87.2 74.8 88.75 62.15 L90.05 51.65 90.35 49.6 Q91.75 43.65 92.2 35.4 L92.55 20.9" fill="#594020" fill-rule="evenodd" stroke="none"/>
    <path d="M92.5 22.55 L95.0 23.25 Q95.0 24.2 95.75 25.4 L97.0 27.35 99.95 31.95 102.85 36.5 Q109.15 47.35 111.4 55.55 L113.5 63.15 115.15 70.85 Q115.65 74.15 115.7 78.5 L115.6 86.25 Q115.5 91.2 114.75 98.1 L113.45 109.85 112.75 120.95 Q112.4 127.8 111.75 131.95 L111.3 137.05 Q110.9 140.3 109.75 141.8 108.45 143.5 105.5 143.85 L100.5 143.85 93.7 143.75 93.85 142.7 94.25 138.25 Q92.85 140.2 92.4 143.65 L90.75 143.4 88.5 142.55 86.4 141.4 87.2 140.3 Q87.65 139.05 87.75 135.85 87.85 132.85 88.4 131.6 L88.7 134.25 88.9 136.95 Q89.15 136.15 90.5 134.75 91.85 133.45 92.1 132.4 92.55 130.65 92.45 127.45 L92.25 122.4 92.7 114.95 92.55 110.85 Q92.55 108.15 93.35 107.15 L93.25 111.95 93.45 118.3 93.95 122.5 Q94.3 125.0 94.25 126.7 L94.1 128.9 Q94.0 130.45 94.35 131.05 95.25 132.6 96.3 131.75 97.25 131.0 97.2 129.4 L96.8 126.6 Q96.65 124.8 97.75 123.6 97.95 125.8 99.25 127.4 100.7 129.1 101.65 126.7 102.15 125.45 102.1 122.15 102.05 119.05 101.65 117.45 L98.9 118.85 Q97.85 118.95 97.3 116.9 L97.05 114.55 97.45 110.25 Q97.65 107.55 96.65 106.35 L96.05 106.75 Q95.4 105.8 95.4 104.15 95.35 102.7 95.75 101.5 96.5 103.5 97.6 104.5 L98.3 102.0 Q98.1 105.45 98.2 106.7 98.35 108.6 98.9 110.6 99.55 113.3 100.45 113.95 102.8 115.7 103.4 112.4 L103.6 107.8 103.75 104.8 103.75 101.75 Q103.65 97.85 102.5 96.3 100.75 94.55 100.8 95.0 100.65 94.3 101.15 94.05 L102.1 93.15 Q102.5 92.2 102.35 89.7 L102.15 86.15 Q100.45 88.0 99.5 88.1 98.3 88.25 98.0 85.85 97.25 79.05 98.5 76.9 99.3 77.65 99.6 80.45 99.9 83.5 100.55 84.4 L101.05 84.3 Q100.95 82.25 102.25 81.55 102.45 82.35 103.1 82.75 L104.6 82.9 Q104.95 80.85 104.95 77.45 L104.95 71.9 104.35 74.6 Q103.75 75.9 102.25 75.65 101.0 75.45 99.95 73.8 99.0 72.2 99.25 71.05 99.9 71.25 100.8 71.75 L102.25 72.6 Q102.7 71.2 102.2 68.15 L101.55 63.45 Q101.65 59.95 101.25 57.85 L100.75 54.85 Q100.45 54.2 99.65 53.55 L98.2 52.35 Q97.9 52.75 97.2 56.4 96.6 59.4 95.25 59.5 94.2 59.55 93.75 58.55 93.3 57.65 93.7 56.7 94.4 56.85 94.8 57.3 95.7 56.4 95.7 52.95 L95.5 48.2 Q95.45 46.55 94.0 42.9 92.65 39.5 92.85 37.55 L92.05 38.05 92.5 22.55" fill="#453219" fill-rule="evenodd" stroke="none"/>
    <path d="M92.5 22.8 L95.1 24.0 Q95.3 24.75 95.95 25.75 L97.0 27.35 99.95 31.95 102.85 36.5 Q109.15 47.35 111.4 55.55 L113.5 63.15 115.15 70.85 Q115.65 74.15 115.7 78.5 L115.6 86.25 Q115.5 91.2 114.75 98.1 L113.45 109.85 112.75 120.95 Q112.4 127.8 111.75 131.95 L111.3 137.05 Q110.9 140.3 109.75 141.8 108.45 143.5 105.5 143.85 L100.5 143.85 95.1 143.8 95.9 142.35 96.9 141.05 97.25 142.3 Q99.85 140.95 98.3 137.7 96.5 134.05 97.55 132.8 L99.15 134.6 Q99.6 134.0 99.7 132.9 L100.05 131.15 Q100.45 132.6 100.45 135.1 102.0 135.55 102.3 133.65 102.3 131.35 102.5 130.75 102.65 131.3 103.35 131.5 L104.6 131.4 Q105.3 131.05 105.4 130.25 L105.4 128.7 Q105.85 124.65 105.6 119.2 L104.95 119.15 Q104.6 117.8 105.4 115.8 107.0 117.7 108.15 113.3 109.15 109.45 108.95 108.05 108.5 111.4 106.6 111.95 106.5 109.95 107.2 105.3 107.8 101.25 107.4 98.75 L107.0 97.75 Q106.8 97.2 106.9 96.7 107.05 96.15 107.55 96.05 L108.25 95.5 Q108.5 94.95 108.3 92.3 L108.05 88.5 107.75 84.7 Q107.65 86.1 107.05 86.5 106.2 87.1 105.35 86.5 104.55 85.95 104.65 85.0 L105.9 84.95 Q106.8 83.0 106.9 79.7 L107.1 74.3 Q107.6 70.95 107.3 69.4 L106.7 66.15 Q106.15 63.8 105.45 63.15 105.1 63.75 104.85 65.1 L104.3 67.15 104.35 64.3 Q104.35 62.65 103.9 61.45 L102.7 58.15 Q102.25 56.0 100.5 52.65 98.45 48.75 97.3 49.45 L97.35 45.7 96.85 44.3 96.2 42.95 96.2 42.1 96.2 41.25 94.75 37.8 Q93.5 35.4 92.2 35.0 L92.5 22.8" fill="#322310" fill-rule="evenodd" stroke="none"/>
    <path d="M89.5 139.9 L89.1 139.8 Q88.9 136.6 90.15 137.8 L91.5 135.35 Q92.2 133.7 92.95 133.0 93.15 134.35 92.8 138.35 92.45 141.9 93.05 143.7 L90.75 143.4 89.25 142.9 89.5 139.9" fill="#322310" fill-rule="evenodd" stroke="none"/>
    <path d="M102.9 71.15 L103.55 64.4 103.5 69.4 103.3 74.35 Q102.15 74.6 101.25 73.8 100.25 72.95 100.7 71.85 L102.05 72.1 Q102.7 71.9 102.9 71.15" fill="#322310" fill-rule="evenodd" stroke="none"/>
    <path d="M100.85 83.1 L101.9 82.65 Q102.3 85.05 100.05 85.2 97.75 85.4 98.6 82.95 98.8 84.2 99.65 84.25 100.45 84.3 100.85 83.1" fill="#322310" fill-rule="evenodd" stroke="none"/>
    <path d="M98.15 111.8 L99.4 111.6 99.4 114.05 Q101.85 114.25 102.75 111.1 L103.4 106.25 103.35 111.2 Q103.05 114.6 101.6 115.65 99.5 117.15 98.6 115.4 98.0 114.15 98.15 111.8" fill="#322310" fill-rule="evenodd" stroke="none"/>
    <path d="M101.4 126.65 L102.75 121.4 102.05 125.9 101.25 130.35 Q100.0 130.6 99.3 129.15 98.65 127.85 98.85 126.6 99.05 127.85 100.15 127.85 101.25 127.8 101.4 126.65" fill="#322310" fill-rule="evenodd" stroke="none"/>
    <path d="M92.65 71.15 Q92.1 70.15 92.7 69.1 L94.5 70.5 Q96.6 69.25 96.85 65.55 L96.8 59.75 98.95 53.05 Q98.9 56.65 99.45 62.75 99.95 66.9 99.4 68.85 98.9 70.65 97.5 71.85 95.95 73.15 94.25 72.55 93.1 72.1 92.65 71.15" fill="#453219" fill-rule="evenodd" stroke="none"/>
    <path d="M95.35 76.25 L97.2 74.75 97.45 80.15 Q97.45 84.0 95.75 84.8 94.1 85.65 93.1 84.4 92.25 83.35 92.45 81.7 94.9 82.75 95.8 80.4 96.6 78.15 95.35 76.25" fill="#453219" fill-rule="evenodd" stroke="none"/>
    <path d="M96.25 89.05 L96.15 91.0 Q95.6 91.75 95.0 91.55 94.4 91.35 94.7 90.25 95.75 90.3 96.1 89.5 L96.25 89.05" fill="#453219" fill-rule="evenodd" stroke="none"/>
    <path d="M91.35 97.0 Q91.0 99.25 92.4 97.5 94.15 95.3 94.5 93.0 L94.55 96.7 Q94.5 99.25 93.6 100.2 92.75 101.15 91.7 100.65 90.7 100.15 91.0 98.65 L91.35 97.0" fill="#453219" fill-rule="evenodd" stroke="none"/>
    <path d="M99.85 90.75 L100.15 95.4 Q100.1 99.0 98.85 99.55 97.2 100.2 98.35 95.9 L99.85 90.75" fill="#453219" fill-rule="evenodd" stroke="none"/>
    <path d="M91.65 104.4 L93.35 98.7 93.5 104.6 Q93.55 108.55 92.55 110.4 91.75 111.95 90.0 112.1 88.15 112.2 88.4 110.0 90.8 111.8 91.3 108.95 91.45 105.3 91.65 104.4" fill="#453219" fill-rule="evenodd" stroke="none"/>
    <path d="M96.65 109.0 L98.35 103.05 98.1 111.0 Q97.65 118.0 95.95 118.25 94.85 118.45 94.7 116.95 L94.8 114.75 Q96.75 115.0 96.85 112.75 L96.65 109.0" fill="#453219" fill-rule="evenodd" stroke="none"/>
    <path d="M93.3 43.9 L94.35 42.7 94.6 49.2 Q94.65 54.2 93.4 55.4 92.25 53.15 92.15 49.6 92.0 45.8 93.3 43.9" fill="#6a4e29" fill-rule="evenodd" stroke="none"/>
    <path d="M95.8 57.0 L96.05 57.75 95.7 63.8 Q95.2 67.2 93.75 69.45 92.45 68.9 92.5 65.45 92.5 62.6 93.15 61.0 93.35 60.45 94.85 59.15 96.05 58.15 95.8 57.0" fill="#6a4e29" fill-rule="evenodd" stroke="none"/>
    <path d="M99.7 59.6 L101.2 55.6 100.95 66.85 101.15 68.85 Q101.25 70.5 100.95 70.8 99.65 72.1 99.05 70.05 98.85 69.35 99.15 67.95 L99.65 65.85 99.75 62.7 99.7 59.6" fill="#6a4e29" fill-rule="evenodd" stroke="none"/>
    <path d="M100.5 76.35 L101.3 74.1 101.4 78.8 Q101.3 82.4 99.85 82.8 99.45 81.4 99.5 79.4 99.6 77.0 100.5 76.35" fill="#6a4e29" fill-rule="evenodd" stroke="none"/>
    <path d="M95.2 73.0 L95.95 74.0 95.15 78.95 Q94.35 82.3 92.1 81.2 90.75 80.55 90.35 77.8 89.95 75.05 91.25 74.25 L92.05 75.65 Q92.45 76.45 93.2 76.2 93.7 76.05 94.3 74.75 L95.2 73.0" fill="#6a4e29" fill-rule="evenodd" stroke="none"/>
    <path d="M91.3 85.9 L92.4 83.9 92.4 89.7 Q92.2 93.25 90.85 95.1 89.95 93.95 90.1 90.25 90.3 86.55 91.3 85.9" fill="#6a4e29" fill-rule="evenodd" stroke="none"/>
    <path d="M90.55 73.6 L90.55 74.1 Q89.9 72.7 90.05 70.35 L90.5 66.45 Q90.8 62.65 90.8 51.1 L91.0 55.05 Q91.1 57.55 91.95 58.7 L93.15 56.95 94.05 55.0 Q94.4 57.95 93.3 62.35 L91.25 69.5 90.8 71.8 Q90.5 73.4 90.55 73.6" fill="#6a4e29" fill-rule="evenodd" stroke="none"/>
    <path d="M97.15 88.25 L98.55 82.55 Q99.15 85.0 98.75 89.0 L98.05 95.55 97.95 98.8 97.6 102.0 Q95.95 100.75 96.5 97.2 97.0 93.65 97.15 88.25" fill="#6a4e29" fill-rule="evenodd" stroke="none"/>
    <path d="M88.8 96.8 L88.9 92.35 Q88.9 96.3 90.2 100.35 91.05 103.0 90.75 104.7 90.45 106.65 88.5 108.35 87.5 107.35 87.75 105.3 L88.4 102.05 88.8 96.8" fill="#6a4e29" fill-rule="evenodd" stroke="none"/>
    <path d="M88.65 123.9 Q88.2 123.65 88.55 119.8 L89.1 115.3 89.65 113.3 Q90.2 112.15 91.3 112.45 92.4 112.75 92.4 114.4 L92.15 116.95 91.9 127.05 91.8 132.1 Q91.45 135.45 89.7 136.1 88.7 134.1 89.05 130.0 89.45 125.55 88.9 123.8 L88.65 123.9" fill="#6a4e29" fill-rule="evenodd" stroke="none"/>
    <path d="M85.75 125.95 L85.3 122.55 85.75 113.65 86.3 114.55 Q86.25 113.5 87.15 110.85 87.25 112.7 88.65 116.35 90.0 119.8 90.0 121.75 L89.55 129.3 89.35 131.75 Q89.0 132.95 87.5 132.55 86.1 132.2 85.85 129.65 L85.75 125.95" fill="#6a4e29" fill-rule="evenodd" stroke="none"/>
    <path d="M101.3 99.2 Q102.1 101.65 101.75 105.4 101.3 109.95 98.95 110.05 98.35 109.0 98.35 107.35 L98.65 104.6 99.3 101.9 Q99.75 100.1 99.55 99.4 L99.7 100.65 99.65 102.05 Q101.2 101.4 101.3 99.2" fill="#6a4e29" fill-rule="evenodd" stroke="none"/>
    <path d="M94.25 114.7 L94.0 109.95 Q93.95 106.9 95.3 105.6 96.25 107.0 96.05 110.0 L95.6 114.7 95.8 120.1 Q95.75 123.4 94.5 125.2 93.8 123.5 93.9 120.05 L94.25 114.7" fill="#6a4e29" fill-rule="evenodd" stroke="none"/>
    <path d="M23.4 85.4 Q23.6 89.25 23.4 91.45 L22.9 90.25 22.25 89.15 Q22.1 90.55 23.0 95.9 23.7 100.3 22.65 102.5 22.6 101.3 21.65 98.85 L19.85 100.35 Q18.7 99.45 18.3 97.25 18.1 96.15 18.05 93.7 17.95 90.75 18.7 85.2 19.45 79.5 19.4 76.75 L23.2 79.35 Q23.15 80.95 23.4 85.4" fill="#322310" fill-rule="evenodd" stroke="none"/>
    <path d="M20.7 98.8 L21.25 101.3 21.6 103.85 21.5 105.05 Q21.45 105.8 21.55 106.25 L22.0 107.35 22.5 108.3 Q22.9 109.8 22.6 112.75 22.3 116.1 22.4 117.2 23.7 116.35 24.1 114.25 24.65 111.4 25.0 110.8 24.5 114.7 24.2 122.35 23.95 122.15 23.45 121.9 23.05 121.65 22.9 121.15 L21.85 121.95 20.95 122.9 Q18.5 119.3 18.55 113.0 18.6 104.8 18.05 102.7 L20.7 98.8" fill="#322310" fill-rule="evenodd" stroke="none"/>
    <path d="M35.7 35.1 L38.65 30.15 Q38.7 31.25 38.05 33.4 37.3 35.75 37.2 36.65 L36.7 39.65 35.4 48.8 35.6 41.95 35.7 35.1" fill="#322310" fill-rule="evenodd" stroke="none"/>
    <path d="M41.85 34.65 Q41.95 39.55 40.9 42.45 L39.7 45.35 Q38.7 47.15 37.5 47.1 37.7 46.2 38.45 44.55 L39.4 42.0 Q39.75 40.05 39.65 37.35 L39.35 32.7 41.55 26.75 41.85 34.65" fill="#322310" fill-rule="evenodd" stroke="none"/>
    <path d="M31.35 32.9 Q34.2 28.45 41.4 24.5 L43.8 31.05 43.4 34.05 Q43.05 35.85 42.35 36.9 41.25 35.9 40.3 37.95 L38.95 40.9 38.55 38.9 Q37.85 39.2 36.9 40.4 33.0 45.05 32.0 48.15 31.7 49.05 31.8 50.4 L32.05 52.8 Q32.1 54.65 31.0 58.0 30.4 59.85 30.15 61.25 L30.2 60.3 Q30.25 58.5 29.7 57.55 28.3 59.0 28.1 62.25 L28.15 67.55 27.95 83.05 27.7 85.0 27.6 85.85 Q27.75 78.3 24.9 74.0 24.15 74.9 23.9 76.85 L23.65 79.9 23.25 83.3 Q23.0 85.6 23.25 86.75 23.5 88.2 25.35 90.0 27.3 91.9 27.65 93.0 27.9 93.8 27.6 95.2 L27.1 97.4 27.05 99.4 26.8 101.4 26.5 100.55 Q25.95 101.1 25.65 102.35 L25.25 104.35 Q24.2 109.05 24.05 111.05 L24.2 105.35 24.3 103.45 Q24.3 102.2 23.8 101.7 22.6 102.35 22.15 104.95 L21.6 108.75 21.2 107.8 20.95 106.7 Q19.65 101.5 15.6 90.05 14.5 87.05 14.25 84.95 13.9 82.2 14.7 79.8 L23.25 52.35 24.65 47.15 Q25.55 44.15 26.6 42.2 L28.9 37.5 Q30.35 34.5 31.35 32.9" fill="#322310" fill-rule="evenodd" stroke="none"/>
    <path d="M39.15 21.15 L41.0 19.25 43.0 17.5 Q43.7 17.05 45.95 15.95 47.8 15.1 48.9 14.2 51.1 12.5 53.35 12.1 L58.45 11.75 65.05 11.35 Q68.95 11.1 71.75 11.25 L76.4 11.95 Q79.3 12.4 81.0 12.0 83.3 11.5 84.95 9.3 L87.3 5.1 Q87.85 6.65 87.75 8.7 87.65 11.05 86.6 12.1 87.8 12.3 89.3 11.3 L91.8 9.8 94.75 9.3 97.7 9.6 Q98.5 10.45 97.1 11.35 L94.65 12.65 Q82.5 18.6 70.0 17.95 65.6 17.7 63.15 18.05 60.05 18.5 56.8 20.2 47.35 25.0 41.8 29.2 L37.05 32.5 Q34.55 34.45 33.5 36.7 32.85 38.15 31.9 42.0 L30.3 46.7 28.35 51.3 Q26.3 56.6 25.0 64.2 L23.1 77.5 21.65 83.0 Q20.45 86.65 20.15 88.5 19.7 91.25 20.25 95.4 L21.05 102.15 Q21.2 105.3 20.75 113.25 L20.75 119.5 Q20.8 123.35 20.4 125.65 20.0 128.05 18.0 129.35 16.55 130.3 13.55 130.95 7.2 132.45 2.7 127.4 1.1 125.65 1.0 124.0 0.95 122.8 1.8 120.15 2.75 117.25 3.05 112.3 3.45 106.35 3.8 104.4 4.2 102.3 6.0 99.0 7.9 95.45 8.35 93.65 10.25 86.05 10.75 81.4 L11.5 72.2 Q12.0 66.6 12.85 63.15 L14.8 55.9 Q15.7 51.8 15.65 48.3 15.6 46.4 14.4 44.45 L12.05 40.95 Q11.1 39.15 10.95 37.35 L11.05 33.3 11.6 25.3 Q12.05 20.9 12.95 17.55 L13.35 21.5 13.5 25.6 13.2 30.45 Q13.05 33.35 13.3 35.3 13.6 37.3 15.1 38.95 18.65 42.75 22.25 37.7 L23.85 34.0 Q24.75 31.5 25.7 30.8 26.45 30.2 28.35 29.55 L31.15 28.4 Q32.95 27.35 35.3 24.95 L39.15 21.15" fill="#a59558" fill-rule="evenodd" stroke="none"/>
    <path d="M114.5 100.3 Q112.9 102.9 110.35 103.3 107.65 103.75 105.25 102.35 103.0 101.05 101.45 98.4 99.85 95.6 100.65 91.95 100.95 90.4 101.6 89.6 L103.3 87.65 110.75 84.85 Q111.25 85.6 113.35 86.75 115.35 87.85 115.85 88.9 116.3 89.85 116.2 91.9 L115.9 95.05 Q115.85 97.95 114.5 100.3" fill="#d7c47b" fill-rule="evenodd" stroke="none"/>
    <path d="M114.0 89.15 L114.45 91.25 Q114.65 94.15 113.25 98.15 L112.4 100.3 Q111.7 101.45 110.6 101.9 L108.05 102.1 Q106.5 101.75 106.6 100.5 L108.45 100.6 Q109.5 100.55 109.5 99.7 105.35 100.35 106.05 98.35 106.45 99.7 107.6 99.1 L107.2 98.95 108.5 97.8 Q107.45 97.65 106.95 96.65 108.2 97.0 108.15 95.3 108.1 93.65 107.05 93.5 L106.8 92.5 Q106.5 93.0 105.5 95.85 104.75 98.05 103.8 98.8 103.95 96.65 105.6 94.45 106.15 93.2 106.05 91.75 L105.45 93.25 Q106.25 89.9 106.7 89.1 107.65 87.6 110.5 86.6 L113.55 87.15 Q113.6 87.85 114.0 89.15 M107.05 93.5 L106.85 95.15 106.75 95.5 106.75 95.6 106.45 97.7 Q106.35 97.05 106.75 95.5 L107.0 93.5 107.05 93.5" fill="#ac9b65" fill-rule="evenodd" stroke="none"/>
    <path d="M114.85 85.45 L115.55 90.4 Q115.9 93.3 115.6 95.45 115.3 97.85 114.65 99.6 113.65 102.4 112.15 102.65 110.9 102.8 110.2 101.5 109.65 100.45 109.7 99.15 L109.2 99.55 109.0 96.95 Q108.8 95.65 109.35 94.35 L110.15 93.2 Q110.5 92.7 110.3 91.6 L108.4 92.2 110.2 90.1 Q111.3 89.05 112.7 89.15 L114.85 85.45" fill="#715d2d" fill-rule="evenodd" stroke="none"/>
    <path d="M35.75 28.05 Q37.35 27.9 38.85 27.0 L40.8 25.6 42.7 24.2 44.6 23.35 Q45.8 22.75 46.05 22.05 L44.75 21.85 Q44.35 19.9 46.1 19.0 46.0 19.55 46.2 20.85 47.65 19.95 50.2 19.05 L54.3 17.5 54.4 18.45 Q55.5 18.2 56.85 17.4 L59.15 15.9 58.6 15.8 62.85 15.55 67.2 16.1 73.4 16.15 Q73.35 14.55 71.5 14.2 L68.1 13.75 73.3 13.8 Q72.4 13.35 69.5 12.75 66.9 12.2 65.9 11.45 L67.15 11.25 71.75 11.25 76.3 11.9 80.9 12.05 Q81.95 13.0 82.35 13.15 L85.3 13.3 84.55 13.5 88.95 13.1 Q91.45 12.55 93.05 11.6 L96.65 9.3 Q97.4 9.3 97.7 9.6 98.5 10.45 97.1 11.35 L94.65 12.65 Q82.5 18.6 70.0 17.95 65.6 17.7 63.15 18.05 60.05 18.5 56.8 20.2 47.35 25.0 41.8 29.2 L37.05 32.5 Q34.55 34.45 33.5 36.7 32.85 38.15 31.9 42.0 L30.3 46.7 28.35 51.3 Q26.3 56.6 25.0 64.2 L23.1 77.5 21.65 83.0 Q20.45 86.65 20.15 88.5 19.7 91.25 20.25 95.4 L21.05 102.15 21.05 107.35 Q20.05 111.4 20.7 115.8 L20.75 117.55 Q20.85 123.05 20.4 125.65 20.0 128.05 18.0 129.35 16.55 130.3 13.55 130.95 7.5 132.35 3.1 127.8 L3.8 123.55 Q4.4 121.25 5.5 120.05 6.05 121.35 5.85 125.25 5.65 128.75 6.6 130.05 6.7 129.05 7.2 128.45 7.8 127.75 8.75 127.8 L8.9 128.95 9.05 130.05 Q10.6 128.55 11.05 127.15 11.35 126.1 11.35 123.55 9.8 123.65 9.45 122.55 9.05 121.45 10.7 121.1 10.35 120.15 10.35 118.0 7.45 118.8 6.75 114.95 6.15 111.6 7.25 109.2 L7.6 110.4 Q8.6 109.6 9.05 106.75 L9.7 102.45 9.35 109.3 Q9.0 113.7 9.6 116.0 10.45 114.8 11.6 115.05 L13.9 115.25 Q14.05 113.5 13.0 106.65 12.2 101.2 13.55 98.2 L13.55 104.25 Q13.55 108.05 14.4 110.05 15.3 108.2 15.95 105.5 16.7 102.25 16.3 100.6 16.1 99.75 15.0 98.25 13.9 96.75 13.65 95.55 13.2 93.05 14.3 89.0 L15.75 82.5 Q13.9 84.55 13.25 81.5 12.7 78.65 13.45 76.95 13.35 77.3 13.4 77.9 L13.45 78.85 Q15.55 79.5 15.9 76.65 15.9 73.2 16.15 72.35 17.2 75.65 18.25 76.55 20.9 75.8 20.2 69.7 19.25 62.1 19.5 61.35 20.55 63.65 20.95 64.15 21.7 63.25 21.8 61.25 L21.7 58.05 18.3 57.95 Q18.6 56.2 17.55 54.85 16.2 53.2 16.05 52.35 L15.25 53.35 15.6 48.5 16.55 45.95 15.45 46.9 Q15.15 45.55 14.0 43.95 L12.05 40.95 Q11.1 39.15 10.95 37.35 L11.05 33.3 11.35 27.95 11.8 27.3 Q12.55 29.75 12.95 33.6 L13.65 39.7 Q13.6 39.2 13.85 38.8 L14.3 38.0 15.75 40.4 Q16.6 42.0 17.5 42.3 L17.8 41.75 19.4 43.6 20.75 42.65 Q21.5 42.05 22.1 41.95 L22.7 43.05 23.4 44.0 Q24.1 43.1 24.2 42.5 27.6 42.95 26.95 39.9 26.5 40.85 25.55 41.25 L23.5 41.4 Q23.3 40.25 23.9 38.75 24.45 37.55 25.35 36.5 L25.85 39.05 27.55 35.65 Q28.55 33.5 29.75 32.8 L30.8 33.9 Q31.8 32.95 31.65 31.25 L31.25 28.35 32.1 27.75 35.75 28.05" fill="#907e4a" fill-rule="evenodd" stroke="none"/>
    <path d="M1.8 126.25 L2.45 126.0 2.75 127.5 2.7 127.4 1.8 126.25" fill="#907e4a" fill-rule="evenodd" stroke="none"/>
    <path d="M48.2 20.7 L51.95 20.45 Q53.65 20.25 55.4 19.45 L59.8 17.5 Q62.5 16.4 64.2 16.0 L70.6 16.25 76.85 15.9 75.85 14.5 Q75.5 13.65 76.0 12.95 L74.85 11.65 80.1 12.15 Q82.4 13.25 83.75 13.45 L87.25 13.3 Q89.5 13.0 92.25 12.15 95.45 11.1 97.8 9.8 98.35 10.55 97.0 11.45 L94.65 12.65 Q82.5 18.6 70.0 17.95 65.6 17.7 63.15 18.05 60.05 18.5 56.8 20.2 47.35 25.0 41.8 29.2 L37.05 32.5 Q34.55 34.45 33.5 36.7 32.85 38.15 31.9 42.0 L30.3 46.7 28.35 51.3 Q26.3 56.6 25.0 64.2 L23.1 77.5 21.65 83.0 Q20.45 86.65 20.15 88.5 19.7 91.25 20.25 95.4 L21.05 102.15 21.05 107.35 Q20.05 111.4 20.7 115.8 L20.75 117.55 Q20.85 123.05 20.4 125.65 20.0 128.05 18.0 129.35 16.55 130.3 13.55 130.95 L12.65 131.15 14.4 124.3 14.35 123.4 Q14.3 122.75 14.4 122.55 14.6 122.2 15.15 122.1 L15.75 121.9 16.65 120.3 Q17.0 119.4 16.9 118.35 14.1 118.8 15.0 116.75 L16.7 113.65 Q17.3 111.05 17.1 106.65 L16.7 99.65 Q16.6 94.4 16.1 91.9 L15.65 90.6 Q15.35 89.85 15.6 89.2 15.95 88.15 16.95 87.35 17.8 86.6 18.05 85.05 L18.1 82.8 Q18.1 81.5 18.45 80.7 L18.75 81.6 19.0 82.55 Q20.75 79.75 21.65 74.8 22.5 69.9 21.85 66.5 21.3 63.5 23.8 58.9 26.6 53.75 26.7 50.95 25.65 52.1 24.35 52.4 L24.35 51.5 24.35 50.55 22.2 52.55 Q20.65 53.65 19.5 53.65 L18.85 50.15 18.6 51.2 18.1 52.0 17.8 50.75 17.35 49.55 16.6 49.3 15.9 49.2 15.7 48.15 15.5 47.25 Q15.25 45.8 14.1 44.05 L12.05 40.95 11.85 40.45 12.2 39.4 Q13.3 39.95 13.95 40.95 14.5 41.85 14.55 42.9 14.6 40.85 14.95 40.15 L16.95 43.65 Q18.15 45.35 18.9 45.6 L21.35 45.6 24.9 44.5 Q26.65 43.9 27.8 45.35 L29.5 41.25 Q30.5 38.7 31.35 37.15 32.3 35.4 32.6 33.9 L32.95 30.35 35.15 30.95 37.3 30.5 39.1 29.45 40.8 28.2 Q44.6 26.4 46.35 25.2 49.45 23.0 48.2 20.7" fill="#5e4b2a" fill-rule="evenodd" stroke="none"/>
    <path d="M50.55 12.8 L49.5 12.7 53.9 12.3 58.25 11.85 60.95 11.95 64.55 11.85 Q66.85 11.85 67.85 12.4 66.5 13.55 63.3 13.5 L58.4 13.2 Q52.7 13.15 47.35 15.85 L51.4 13.0 50.55 12.8" fill="#dacc89" fill-rule="evenodd" stroke="none"/>
    <path d="M55.1 14.8 L54.9 14.8 Q54.4 15.4 53.7 15.65 L51.05 15.6 Q51.5 14.65 52.75 14.6 L54.9 14.8 55.45 13.8 55.1 14.8" fill="#dacc89" fill-rule="evenodd" stroke="none"/>
    <path d="M45.65 16.1 L48.3 14.7 Q47.75 16.9 44.9 18.9 43.3 20.0 39.9 21.6 L40.85 21.95 Q39.85 23.35 37.35 24.8 L33.25 26.95 33.2 26.9 36.2 24.05 39.15 21.15 41.0 19.25 43.0 17.5 45.65 16.1" fill="#dacc89" fill-rule="evenodd" stroke="none"/>
    <path d="M12.1 21.35 L12.95 17.55 13.3 21.35 13.55 25.2 13.4 24.6 12.1 21.35" fill="#dacc89" fill-rule="evenodd" stroke="none"/>
    <path d="M29.8 30.2 Q29.5 30.6 28.2 31.05 26.9 31.45 26.4 32.1 26.1 32.5 25.75 33.95 L25.0 35.95 Q21.55 40.4 20.4 41.05 18.85 41.9 17.4 40.45 19.85 41.05 22.25 37.7 L23.85 34.0 Q24.75 31.5 25.7 30.8 26.4 30.25 27.75 29.75 L30.1 28.9 29.8 30.2" fill="#dacc89" fill-rule="evenodd" stroke="none"/>
    <path d="M11.0 78.6 L11.65 70.75 Q12.1 66.2 12.85 63.15 L13.8 59.55 13.35 64.55 15.05 63.35 Q16.05 62.85 16.95 63.0 L15.6 66.2 Q14.6 68.15 14.65 69.5 L15.95 69.95 16.0 72.55 Q16.0 74.1 15.6 75.0 14.35 73.65 13.8 71.2 L12.6 75.0 11.3 78.8 11.0 78.6" fill="#dacc89" fill-rule="evenodd" stroke="none"/>
    <path d="M9.5 97.5 L11.4 93.3 13.25 89.1 Q13.0 93.1 11.0 97.5 9.55 100.6 6.65 105.0 L5.55 107.2 5.1 109.95 4.9 107.15 4.7 104.5 4.45 108.6 4.1 112.7 Q3.6 115.9 2.15 118.9 2.8 116.35 3.1 111.65 3.4 106.5 3.8 104.4 4.2 102.3 6.0 99.0 7.9 95.45 8.35 93.65 L8.7 92.2 9.7 90.55 Q9.85 93.65 9.5 97.5" fill="#dacc89" fill-rule="evenodd" stroke="none"/>
    <path d="M11.2 103.15 Q11.55 100.2 12.25 98.5 L13.05 94.55 Q12.9 102.1 12.3 107.9 L12.3 111.45 Q12.3 113.8 11.9 114.9 11.3 116.5 10.3 116.75 9.2 117.0 8.45 115.05 8.0 113.95 9.0 111.4 L10.45 107.8 11.2 103.15" fill="#dacc89" fill-rule="evenodd" stroke="none"/>
    <path d="M14.0 97.55 L14.0 98.2 Q14.8 100.3 14.5 103.6 14.25 106.95 13.05 108.8 L12.95 103.05 Q12.95 99.5 14.0 97.55" fill="#dacc89" fill-rule="evenodd" stroke="none"/>
    <path d="M5.75 116.05 L7.1 115.05 7.7 121.2 Q7.8 126.45 5.9 125.65 4.7 125.15 4.95 120.95 5.2 117.25 5.75 116.05" fill="#dacc89" fill-rule="evenodd" stroke="none"/>
    <path d="M20.95 49.75 Q20.0 49.85 18.5 49.0 15.3 47.1 15.25 44.9 18.8 46.75 19.65 47.0 22.35 47.85 24.3 46.45 L24.4 47.05 Q25.3 47.0 25.85 46.35 26.4 45.7 26.45 44.8 L27.45 45.2 Q28.95 44.2 29.45 43.65 29.0 44.3 28.45 46.0 L27.4 48.15 25.65 49.05 23.35 49.15 20.95 49.75" fill="#402c0b" fill-rule="evenodd" stroke="none"/>
    <path d="M31.2 46.45 Q29.55 48.8 29.0 50.2 27.8 53.4 26.4 59.4 L23.95 68.7 23.35 70.8 23.6 64.55 Q23.85 61.15 25.7 56.5 26.35 54.85 29.15 48.9 29.65 47.85 29.95 45.5 30.25 43.25 30.85 42.15 31.25 41.4 32.75 39.65 L34.5 37.0 38.7 31.1 36.25 34.8 Q35.2 36.65 34.7 38.65 L33.45 42.7 Q32.9 44.05 31.2 46.45" fill="#4c3c21" fill-rule="evenodd" stroke="none"/>
    <path d="M22.65 75.5 Q22.9 72.8 23.35 70.8 23.15 77.0 22.25 80.45 L22.25 80.4 22.65 75.5" fill="#4c3c21" fill-rule="evenodd" stroke="none"/>
    <path d="M18.35 100.95 L17.45 95.65 Q17.05 92.55 17.3 90.35 17.5 88.55 18.35 87.5 L20.15 85.3 Q21.45 83.25 22.25 80.45 L21.6 84.85 Q21.15 87.55 21.35 89.4 21.95 96.15 21.95 104.5 L21.55 105.5 Q19.9 110.45 20.7 115.85 20.65 117.2 20.9 119.1 L21.35 122.4 21.7 124.15 Q20.7 130.7 16.0 130.15 L16.35 126.75 Q16.6 124.55 17.75 124.0 L18.4 125.9 19.45 121.8 Q19.65 119.7 16.85 118.45 18.7 117.1 19.2 116.1 19.85 114.75 19.15 112.75 L18.2 112.95 Q17.9 112.25 18.15 111.35 20.3 111.4 19.6 106.65 L18.35 100.95" fill="#4c3c21" fill-rule="evenodd" stroke="none"/>
    <path d="M17.3 49.05 L17.15 51.75 15.85 54.25 Q14.95 55.75 15.1 56.85 L16.05 56.3 Q16.25 57.5 15.3 59.55 L13.8 62.8 12.65 65.3 11.45 67.85 Q11.5 65.0 12.3 60.95 L13.75 54.15 Q15.45 50.65 15.8 46.75 L17.3 48.65 17.3 49.05" fill="#dacc89" fill-rule="evenodd" stroke="none"/>
    <path d="M18.65 78.5 L22.25 75.3 22.65 80.8 20.85 85.15 Q19.7 87.85 18.55 88.75 L17.6 89.15 Q17.05 89.3 16.65 90.0 L16.15 91.4 15.95 92.9 Q15.4 91.6 15.35 90.2 L15.65 87.4 15.75 84.9 Q15.8 83.25 16.0 82.4 16.5 80.4 18.65 78.5" fill="#4c3c21" fill-rule="evenodd" stroke="none"/>
    <path d="M51.75 1.45 Q62.65 1.95 67.65 3.65 76.25 6.55 78.65 14.45 L78.1 14.9 Q76.9 15.0 75.95 13.35 L74.5 10.75 72.0 7.75 Q70.3 6.0 68.9 5.35 67.35 4.6 64.9 4.05 L60.8 3.15 56.05 2.05 51.75 1.45" fill="#5e4b2a" fill-rule="evenodd" stroke="none"/>
    <path d="M72.3 99.2 Q70.4 98.5 67.4 98.6 64.4 98.7 62.55 99.5 61.7 99.85 61.5 100.6 L61.3 102.15 61.25 106.15 Q61.2 108.5 60.65 110.0 L60.05 108.6 59.75 107.1 Q59.5 105.9 58.85 104.75 L57.45 102.7 56.1 100.45 Q55.35 99.25 54.2 98.8 L52.35 98.2 50.65 97.2 Q49.65 96.25 48.85 96.0 L46.6 95.65 45.3 95.35 44.0 95.25 42.7 95.4 41.4 95.35 39.65 94.35 37.75 94.25 Q37.1 94.65 37.0 95.85 L36.95 97.75 36.5 102.75 Q36.05 102.3 36.05 101.1 36.05 99.85 35.65 99.45 L35.45 96.5 Q35.2 94.65 34.4 93.85 34.25 93.7 33.8 93.5 L33.2 93.1 33.25 92.65 33.25 92.2 Q32.6 91.55 31.0 91.3 L30.2 90.65 29.5 89.95 Q28.65 89.35 26.85 89.4 24.95 89.4 24.6 90.1 24.3 90.7 24.3 91.8 24.3 92.75 23.65 93.45 L23.1 93.6 Q22.8 93.6 22.6 93.9 21.9 94.9 21.95 98.0 22.05 101.0 21.15 102.0 20.0 99.15 20.45 94.6 L21.25 87.05 23.85 84.6 Q31.15 86.65 42.8 86.9 L61.95 87.5 Q70.45 88.25 81.5 90.95 L95.75 93.45 Q104.5 94.9 109.65 97.0 112.35 98.15 113.2 99.5 113.95 100.85 113.7 103.65 L113.35 108.65 112.35 120.3 Q111.95 124.95 111.05 126.3 110.85 121.45 110.2 118.85 109.65 116.9 108.8 112.2 108.55 110.4 108.0 109.55 107.2 108.35 105.6 108.0 L102.55 107.35 99.85 105.95 Q98.2 104.95 97.05 104.75 L93.05 104.35 89.5 104.75 85.95 104.85 Q85.6 107.65 85.5 110.55 85.4 109.6 84.5 108.4 L83.25 106.25 82.05 104.2 Q80.55 102.1 78.15 101.8 76.85 101.65 75.15 100.65 73.1 99.45 72.3 99.2" fill="url(#gradient3)" fill-rule="evenodd" stroke="none"/>
    <path d="M18.75 78.1 Q20.5 75.9 21.45 75.6 L24.9 76.0 28.3 76.95 Q31.1 77.8 33.9 77.85 36.75 77.9 40.75 78.95 L47.5 80.65 50.05 80.9 52.6 81.0 56.4 81.6 60.1 82.65 Q65.05 84.0 71.95 84.4 L84.05 84.7 107.95 85.0 112.05 84.1 Q111.6 85.05 109.2 86.55 106.4 88.25 105.75 88.95 L104.1 91.0 Q103.35 92.15 103.15 93.4 102.65 96.6 103.85 99.4 105.1 102.15 107.7 103.95 L103.45 103.6 100.2 103.2 96.95 103.05 Q93.2 102.75 87.45 101.0 80.35 98.9 78.05 98.45 L73.3 97.4 68.5 96.55 59.55 95.25 Q52.5 93.55 43.1 93.05 40.25 92.85 35.15 91.55 29.9 90.15 27.3 89.95 20.8 89.25 18.15 87.15 17.05 86.25 16.65 84.45 16.3 82.8 16.75 81.2 17.05 80.2 18.75 78.1" fill="#a59558" fill-rule="evenodd" stroke="none"/>
    <path d="M71.6 88.7 Q70.45 88.8 70.0 89.6 L70.15 89.65 69.5 89.7 Q70.3 90.6 71.9 90.9 L69.75 90.65 67.85 90.55 66.1 90.8 Q66.9 91.45 68.9 91.45 L72.0 91.45 82.5 92.2 74.5 91.2 75.7 91.25 82.0 91.4 81.6 90.85 88.4 91.35 95.2 91.7 Q95.25 89.45 90.9 89.05 L84.5 88.75 92.65 88.75 Q97.55 88.8 100.65 89.8 L104.35 90.65 103.6 91.95 100.5 91.9 98.6 91.85 97.95 91.85 97.6 91.3 Q97.35 91.75 96.5 91.85 L95.25 91.85 93.75 91.75 92.5 91.85 92.6 91.9 87.1 92.1 93.2 92.85 99.4 93.05 103.15 93.55 103.0 95.65 98.65 95.1 98.8 95.05 98.4 95.1 79.5 93.7 Q80.15 92.5 83.35 92.7 L87.65 92.85 72.1 92.25 Q72.85 92.8 74.65 93.05 76.55 93.3 77.15 93.65 L71.9 93.8 68.9 93.3 66.6 92.85 70.2 92.9 62.05 91.2 Q58.0 90.35 49.65 90.0 53.45 92.45 61.6 92.8 47.1 92.65 47.75 90.15 L52.1 89.95 56.5 90.05 54.5 89.55 52.3 89.5 44.65 88.8 46.75 88.85 51.6 89.15 56.45 89.35 47.8 87.9 43.35 87.75 39.0 87.75 39.85 88.05 37.3 87.6 41.05 88.7 Q43.35 89.4 44.55 90.05 L40.45 89.8 42.45 90.75 Q39.9 90.85 35.55 89.85 31.05 89.2 25.1 87.2 L21.9 86.5 Q19.95 86.05 19.3 85.1 L20.15 85.3 19.7 84.8 19.55 84.25 20.1 84.3 Q22.35 86.25 27.55 86.75 30.5 87.05 35.7 86.85 L35.5 86.7 39.4 86.7 39.15 86.65 43.45 86.85 Q42.65 86.2 41.1 85.5 L43.25 85.9 42.95 85.95 Q45.95 87.1 51.75 87.85 L55.4 88.85 59.75 89.95 Q62.95 90.5 63.35 89.25 L61.7 88.85 Q60.8 88.65 60.6 87.95 L61.2 87.95 Q60.6 87.35 59.3 86.9 L66.45 87.6 73.55 88.55 71.6 88.7" fill="#907e4a" fill-rule="evenodd" stroke="none"/>
    <path d="M103.1 96.65 L103.1 96.75 95.2 96.75 95.65 97.15 Q95.9 97.4 96.35 97.5 L90.25 97.5 Q89.7 97.0 88.0 97.0 L88.75 96.8 88.5 96.6 88.25 96.55 87.25 95.8 78.7 95.15 93.1 96.15 103.1 96.65" fill="#907e4a" fill-rule="evenodd" stroke="none"/>
    <path d="M20.35 78.0 L23.35 75.65 25.6 76.15 24.75 76.35 25.3 77.0 26.05 77.4 24.0 77.25 Q22.8 77.25 22.2 77.75 L23.35 78.6 21.45 79.0 Q20.4 79.35 20.25 80.25 21.7 81.05 24.9 81.85 L27.5 82.9 29.05 83.1 30.6 83.2 Q32.4 83.8 33.5 84.7 31.2 85.4 27.45 84.75 L30.5 84.3 Q26.75 83.75 19.85 81.45 L19.3 79.55 Q19.35 79.05 20.35 78.0" fill="#907e4a" fill-rule="evenodd" stroke="none"/>
    <path d="M41.1 85.5 Q35.35 84.35 32.65 82.8 37.0 83.55 41.1 85.5" fill="#907e4a" fill-rule="evenodd" stroke="none"/>
    <path d="M59.3 86.9 L52.7 85.8 55.75 86.2 59.3 86.9" fill="#907e4a" fill-rule="evenodd" stroke="none"/>
    <path d="M80.65 96.15 L79.9 96.15 80.2 96.55 79.25 96.3 80.3 96.65 Q81.2 97.45 83.45 97.85 L87.5 98.15 Q90.5 98.8 92.8 99.7 L88.2 99.6 83.7 99.15 78.15 97.6 73.85 96.6 Q70.9 95.75 70.1 94.7 L73.55 94.9 77.2 95.0 78.55 95.15 80.65 96.15" fill="#907e4a" fill-rule="evenodd" stroke="none"/>
    <path d="M104.45 86.3 L109.2 86.55 106.75 88.15 102.3 88.25 95.0 87.55 94.75 87.5 Q103.7 87.85 107.1 87.7 105.75 86.9 103.55 86.75 L99.8 86.55 104.45 86.3" fill="#907e4a" fill-rule="evenodd" stroke="none"/>
    <path d="M72.15 94.55 Q71.05 94.4 70.35 93.9 L71.9 93.8 77.3 93.75 77.15 93.65 79.5 93.7 79.3 94.55 77.2 95.0 74.35 94.75 72.15 94.55" fill="#5e4b2a" fill-rule="evenodd" stroke="none"/>
    <path d="M19.8 84.05 L23.55 84.2 27.45 84.75 20.1 84.3 19.8 84.05" fill="#5e4b2a" fill-rule="evenodd" stroke="none"/>
    <path d="M25.15 83.15 L23.3 82.95 21.4 82.85 Q21.7 83.8 24.05 84.05 L27.45 84.2 25.15 83.15 M21.45 75.6 L23.35 75.65 20.35 78.0 Q19.35 79.05 19.3 79.55 L19.85 81.45 Q26.75 83.75 30.5 84.3 L27.45 84.75 23.55 84.2 19.8 84.05 20.1 84.3 19.55 84.25 19.7 84.8 20.15 85.3 19.3 85.1 Q19.95 86.05 21.9 86.5 L25.1 87.2 Q31.05 89.2 35.55 89.85 39.9 90.85 42.45 90.75 L40.45 89.8 44.55 90.05 Q43.35 89.4 41.05 88.7 L37.3 87.6 39.85 88.05 Q41.65 88.7 44.65 88.8 L52.3 89.5 54.5 89.55 56.5 90.05 52.1 89.95 47.75 90.15 Q47.1 92.65 61.6 92.8 L66.6 92.85 68.9 93.3 71.9 93.8 70.35 93.9 Q71.05 94.4 72.15 94.55 L74.35 94.75 77.2 95.0 73.55 94.9 70.1 94.7 Q70.9 95.75 73.85 96.6 L78.15 97.6 83.7 99.15 88.2 99.6 92.8 99.7 Q90.5 98.8 87.5 98.15 L90.0 97.85 90.45 97.85 90.25 97.5 96.35 97.5 Q95.9 97.4 95.65 97.15 L95.2 96.75 103.1 96.75 103.5 98.4 103.1 98.4 97.9 98.75 100.9 99.0 Q102.65 99.4 102.1 101.1 101.45 101.3 100.75 101.1 100.35 99.6 98.45 99.8 97.05 99.9 95.6 100.7 L97.4 101.05 90.4 100.85 Q92.0 101.1 93.25 101.9 L90.45 101.85 84.3 100.05 78.05 98.45 73.05 97.35 70.6 96.5 69.05 95.55 67.65 94.6 64.8 94.15 61.9 94.2 Q56.6 94.15 51.5 92.75 L47.5 91.55 43.45 91.45 43.95 92.05 38.25 91.8 32.65 90.0 29.1 89.45 25.55 88.7 20.8 86.7 Q19.35 86.05 18.95 85.2 18.6 84.45 18.85 82.75 L20.2 82.7 18.3 81.7 Q17.35 81.25 17.9 79.45 L18.1 78.95 Q20.2 75.95 21.45 75.6" fill="#5e4b2a" fill-rule="evenodd" stroke="none"/>
    <path d="M87.65 92.85 L83.35 92.7 Q80.15 92.5 79.5 93.7 L77.15 93.65 Q76.55 93.3 74.65 93.05 72.85 92.8 72.1 92.25 L87.65 92.85" fill="#5e4b2a" fill-rule="evenodd" stroke="none"/>
    <path d="M102.15 92.2 L100.5 91.9 103.6 91.95 Q103.3 92.6 103.15 93.4 L103.15 93.55 99.4 93.05 93.2 92.85 87.1 92.1 92.6 91.9 97.85 92.75 Q101.95 93.2 102.15 92.2" fill="#5e4b2a" fill-rule="evenodd" stroke="none"/>
    <path d="M98.6 91.85 L98.1 92.05 97.95 91.85 98.6 91.85" fill="#5e4b2a" fill-rule="evenodd" stroke="none"/>
    <path d="M101.0 88.55 L102.3 88.25 Q104.7 88.7 105.55 89.2 L105.5 89.3 103.2 89.0 101.0 88.55" fill="#5e4b2a" fill-rule="evenodd" stroke="none"/>
    <path d="M102.3 88.25 L106.75 88.15 105.75 88.95 105.55 89.2 Q104.7 88.7 102.3 88.25" fill="#5e4b2a" fill-rule="evenodd" stroke="none"/>
    <path d="M95.6 100.7 Q97.05 99.9 98.45 99.8 100.35 99.6 100.75 101.1 101.45 101.3 102.1 101.1 102.65 99.4 100.9 99.0 L97.9 98.75 103.1 98.4 103.5 98.4 Q104.6 101.85 107.7 103.95 L103.45 103.6 100.2 103.2 96.95 103.05 90.45 101.85 93.25 101.9 Q92.0 101.1 90.4 100.85 L97.4 101.05 95.6 100.7" fill="#4c3c21" fill-rule="evenodd" stroke="none"/>
    <path d="M67.65 94.6 L69.05 95.55 70.6 96.5 73.05 97.35 68.5 96.55 59.55 95.25 Q52.5 93.55 43.1 93.05 40.25 92.85 35.15 91.55 29.9 90.15 27.3 89.95 20.8 89.25 18.15 87.15 17.05 86.25 16.65 84.45 16.3 82.8 16.75 81.2 17.0 80.35 18.1 78.95 L17.9 79.45 Q17.35 81.25 18.3 81.7 L20.2 82.7 18.85 82.75 Q18.6 84.45 18.95 85.2 19.35 86.05 20.8 86.7 L25.55 88.7 29.1 89.45 32.65 90.0 38.25 91.8 43.95 92.05 43.45 91.45 47.5 91.55 51.5 92.75 Q56.6 94.15 61.9 94.2 L64.8 94.15 67.65 94.6" fill="#4c3c21" fill-rule="evenodd" stroke="none"/>
    <path d="M46.75 88.85 L44.65 88.8 39.85 88.05 39.0 87.75 43.35 87.75 47.8 87.9 56.45 89.35 51.6 89.15 46.75 88.85" fill="#4c3c21" fill-rule="evenodd" stroke="none"/>
    <path d="M69.75 90.65 L71.9 90.9 74.5 91.2 82.5 92.2 72.0 91.45 68.9 91.45 Q66.9 91.45 66.1 90.8 L67.85 90.55 69.75 90.65" fill="#4c3c21" fill-rule="evenodd" stroke="none"/>
    <path d="M97.6 91.3 L97.95 91.85 96.5 91.85 Q97.35 91.75 97.6 91.3" fill="#4c3c21" fill-rule="evenodd" stroke="none"/>
    <path d="M97.95 91.85 L98.1 92.05 98.6 91.85 100.5 91.9 102.15 92.2 Q101.95 93.2 97.85 92.75 L92.6 91.9 95.25 91.85 96.5 91.85 97.95 91.85" fill="#4c3c21" fill-rule="evenodd" stroke="none"/>
    <path d="M80.65 96.15 L78.55 95.15 78.7 95.15 87.25 95.8 88.25 96.55 88.5 96.6 88.75 96.8 88.0 97.0 Q89.7 97.0 90.25 97.5 L89.7 97.55 89.25 97.1 Q87.85 97.85 85.1 97.15 L80.65 96.15" fill="#4c3c21" fill-rule="evenodd" stroke="none"/>
    <path d="M90.0 97.85 L89.7 97.55 90.25 97.5 90.45 97.85 90.0 97.85" fill="#4c3c21" fill-rule="evenodd" stroke="none"/>
    <path d="M27.45 84.2 L24.05 84.05 Q21.7 83.8 21.4 82.85 L23.3 82.95 25.15 83.15 27.45 84.2" fill="#4c3c21" fill-rule="evenodd" stroke="none"/>
    <path d="M37.6 80.9 L43.7 82.4 Q47.3 83.45 49.5 84.65 L46.65 84.35 43.75 83.85 40.1 83.65 Q38.05 83.4 36.7 82.45 L39.2 82.4 Q34.1 80.25 32.45 79.8 L30.15 79.5 28.3 79.05 37.6 80.9" fill="#dacc89" fill-rule="evenodd" stroke="none"/>
    <path d="M29.9 78.0 L35.4 78.45 40.9 79.0 46.45 80.45 42.75 80.3 39.1 80.45 42.15 80.8 45.15 81.65 37.55 80.5 Q33.15 79.75 29.9 78.0" fill="#dacc89" fill-rule="evenodd" stroke="none"/>
    <path d="M48.15 81.3 L51.0 81.15 53.95 81.15 Q55.3 81.3 60.1 82.65 65.05 84.0 71.95 84.4 L84.05 84.7 93.15 84.85 95.4 85.7 96.8 86.05 74.95 85.25 69.15 85.2 63.4 84.75 55.75 83.25 48.15 81.3" fill="#dacc89" fill-rule="evenodd" stroke="none"/>
    <path d="M57.95 85.95 L63.25 86.4 69.0 86.45 79.95 86.8 87.35 86.7 94.75 87.5 93.65 87.45 95.0 87.55 98.5 88.55 Q91.7 88.25 77.95 88.15 66.05 87.8 57.95 85.95" fill="#dacc89" fill-rule="evenodd" stroke="none"/>
    <path d="M75.7 91.25 L74.45 91.0 Q70.85 90.2 70.15 89.65 L74.55 89.7 78.95 89.85 80.45 91.15 75.7 91.25" fill="#dacc89" fill-rule="evenodd" stroke="none"/>
    <path d="M71.9 90.9 Q70.3 90.6 69.5 89.7 L70.15 89.65 Q70.85 90.2 74.45 91.0 L75.7 91.25 71.9 90.9" fill="#dacc89" fill-rule="evenodd" stroke="none"/>
    <path d="M51.75 87.85 L47.25 86.65 43.25 85.9 48.05 85.7 53.0 86.25 Q57.7 86.8 59.05 87.9 L61.3 89.45 Q59.4 88.9 56.65 88.5 L51.75 87.85" fill="#dacc89" fill-rule="evenodd" stroke="none"/>
    <path d="M51.75 87.85 Q45.95 87.1 42.95 85.95 L43.25 85.9 47.25 86.65 51.75 87.85" fill="#dacc89" fill-rule="evenodd" stroke="none"/>
    <path d="M39.15 86.65 L34.25 86.05 35.5 86.7 Q31.0 86.7 28.75 85.25 L35.05 85.35 39.15 86.65" fill="#dacc89" fill-rule="evenodd" stroke="none"/>
    <path d="M39.15 86.65 L39.4 86.7 35.5 86.7 34.25 86.05 39.15 86.65" fill="#dacc89" fill-rule="evenodd" stroke="none"/>
    <path d="M32.55 83.55 L30.6 83.2 24.9 81.85 Q21.85 80.4 20.75 80.25 L29.05 81.45 32.55 83.55" fill="#dacc89" fill-rule="evenodd" stroke="none"/>
    <path d="M30.6 83.2 L29.05 83.1 27.5 82.9 24.9 81.85 30.6 83.2" fill="#dacc89" fill-rule="evenodd" stroke="none"/>
    <path d="M80.3 96.65 L83.4 97.25 87.5 98.15 83.45 97.85 Q81.2 97.45 80.3 96.65" fill="#dacc89" fill-rule="evenodd" stroke="none"/>
    <path d="M85.55 97.45 L83.4 97.25 80.2 96.55 79.9 96.15 80.65 96.15 85.55 97.45" fill="#dacc89" fill-rule="evenodd" stroke="none"/>
    <path d="M85.55 97.45 L90.0 97.85 87.5 98.15 83.4 97.25 85.55 97.45" fill="#dacc89" fill-rule="evenodd" stroke="none"/>
    <path d="M89.7 97.55 L85.55 97.45 80.65 96.15 85.1 97.15 Q87.85 97.85 89.25 97.1 L89.7 97.55" fill="#dacc89" fill-rule="evenodd" stroke="none"/>
    <path d="M85.55 97.45 L89.7 97.55 90.0 97.85 85.55 97.45" fill="#dacc89" fill-rule="evenodd" stroke="none"/>
    <path d="M82.9 94.65 L90.5 94.35 98.4 95.1 98.65 95.1 97.75 95.55 82.9 94.65" fill="#dacc89" fill-rule="evenodd" stroke="none"/>
    <path d="M65.25 92.8 L61.6 92.8 Q53.45 92.45 49.65 90.0 58.0 90.35 62.05 91.2 L70.2 92.9 66.6 92.85 64.05 92.25 65.25 92.8" fill="#dacc89" fill-rule="evenodd" stroke="none"/>
    <path d="M66.6 92.85 L64.35 92.8 65.25 92.8 64.05 92.25 66.6 92.85" fill="#dacc89" fill-rule="evenodd" stroke="none"/>
    <path d="M62.7 2.65 L60.0 2.05 57.25 1.9 Q56.25 2.05 55.3 2.8 L53.45 4.1 48.95 4.35 45.45 3.65 49.4 3.6 Q52.5 3.4 53.35 1.45 52.55 1.4 51.1 0.65 L49.2 0.0 68.6 1.4 Q80.1 3.5 85.8 9.55 L87.8 11.95 89.85 14.25 93.55 16.8 Q96.05 18.25 97.15 19.4 L99.3 22.05 Q101.55 24.8 104.05 28.8 L108.25 35.85 Q109.55 33.6 109.05 28.05 108.5 22.35 109.55 20.2 110.95 23.0 111.75 27.9 112.55 32.75 112.15 36.05 L111.5 39.9 Q111.1 42.2 111.4 43.75 111.65 45.2 113.4 46.7 115.35 48.35 115.75 49.3 116.05 50.0 115.95 51.85 115.85 53.75 116.2 54.6 117.0 56.45 119.15 59.8 L123.15 65.3 Q125.1 68.2 125.4 71.4 125.9 76.8 125.45 85.4 L124.75 99.4 124.55 115.55 Q124.5 125.0 125.05 131.7 125.5 137.15 126.6 141.15 L126.85 141.7 128.25 145.35 Q128.35 146.05 127.95 146.55 127.2 147.6 121.95 148.0 117.05 148.55 113.25 147.9 108.15 147.0 106.05 144.05 106.95 140.5 107.15 137.7 L107.15 133.5 Q107.05 130.8 107.35 129.3 107.6 128.1 108.4 126.25 L109.65 123.3 Q111.15 118.1 111.9 112.15 112.65 106.05 112.4 100.75 L111.85 97.1 111.15 93.4 Q110.7 90.35 110.55 84.1 110.35 77.85 109.9 74.8 109.7 73.55 109.75 70.3 109.8 67.2 109.5 65.65 109.25 64.25 108.2 62.55 L106.2 59.6 Q103.9 56.0 97.85 39.75 94.65 31.2 88.7 25.4 81.75 18.65 79.25 13.95 76.8 9.45 72.3 6.5 68.15 3.8 62.7 2.65" fill="#9e8f53" fill-rule="evenodd" stroke="none"/>
    <path d="M82.65 13.35 Q87.5 13.7 90.95 16.25 87.4 12.9 84.75 11.1 81.5 8.85 77.6 7.55 79.25 7.95 82.25 9.1 L86.85 10.75 89.85 14.25 93.55 16.8 Q96.05 18.25 97.15 19.4 L99.3 22.05 103.45 27.85 107.1 33.9 107.25 44.95 Q103.65 44.35 103.95 42.35 L105.3 43.35 Q106.0 42.0 105.5 40.45 L104.0 37.7 Q103.3 36.55 102.35 34.35 L100.75 30.9 Q101.6 33.6 103.4 36.85 L100.4 31.95 Q98.65 29.1 96.65 27.5 L99.15 29.4 Q99.75 26.6 95.55 23.75 90.65 20.45 90.15 18.85 92.75 19.45 96.25 21.3 92.3 17.0 82.65 13.35" fill="#907e4a" fill-rule="evenodd" stroke="none"/>
    <path d="M86.05 9.8 L83.4 7.9 81.1 5.85 Q83.9 7.6 85.8 9.55 L86.05 9.8" fill="#907e4a" fill-rule="evenodd" stroke="none"/>
    <path d="M109.1 28.7 Q108.75 25.25 108.75 24.2 108.75 21.8 109.55 20.2 110.95 23.0 111.75 27.9 112.55 32.75 112.15 36.05 L111.5 39.9 Q111.1 42.2 111.4 43.75 111.65 45.2 113.4 46.7 115.35 48.35 115.75 49.3 116.05 50.0 115.95 51.85 115.85 53.75 116.2 54.6 117.0 56.45 119.15 59.8 L123.15 65.3 Q125.1 68.2 125.4 71.4 125.9 76.8 125.45 85.4 L124.75 99.4 124.55 115.55 Q124.5 125.0 125.05 131.7 125.5 137.15 126.6 141.15 L126.85 141.7 128.25 145.35 Q128.35 146.05 127.95 146.55 127.2 147.6 121.95 148.0 116.7 148.6 112.75 147.8 L112.85 143.85 Q115.4 143.95 115.9 143.35 116.55 142.7 115.6 140.3 113.25 141.95 111.75 139.0 110.35 136.15 111.3 134.15 112.25 135.1 112.7 137.15 114.1 137.15 114.55 136.1 L114.7 133.85 114.2 125.85 113.65 125.8 113.65 121.65 Q114.7 123.95 116.45 123.3 118.15 122.65 117.75 120.3 116.7 120.45 116.15 119.85 115.6 119.25 115.85 118.25 118.7 119.8 118.85 112.35 118.95 106.1 117.95 102.7 L116.9 103.25 115.85 103.5 Q115.45 102.15 117.35 100.8 119.3 99.45 118.95 97.65 117.1 99.7 116.4 96.6 116.15 95.45 116.0 92.25 L117.2 94.4 Q117.9 95.65 118.65 96.3 L118.75 93.85 Q119.0 92.6 120.5 93.0 121.3 90.95 121.15 87.45 121.05 83.95 120.1 82.0 L118.3 85.85 Q117.1 85.7 116.85 84.6 116.7 83.6 117.35 82.55 117.95 82.8 118.35 83.2 L118.6 78.75 Q118.75 75.9 118.1 74.4 L117.75 75.4 117.4 76.55 116.1 76.85 Q114.45 74.5 113.7 71.1 113.05 68.05 113.25 64.8 115.3 70.8 117.2 73.95 L117.6 71.75 117.6 69.5 121.2 72.15 Q120.55 69.75 118.75 66.1 L116.0 60.15 Q113.55 60.25 113.8 55.3 113.45 57.25 111.3 56.05 109.2 54.9 109.1 53.05 L110.8 53.75 Q111.45 51.85 109.0 50.35 106.55 48.85 106.9 47.35 L108.2 47.3 Q107.3 46.15 107.85 44.4 L108.7 41.4 108.25 38.55 Q107.9 36.85 108.55 35.7 L109.35 36.05 Q109.85 36.2 110.15 36.55 109.8 34.9 111.2 34.35 111.45 32.15 111.0 30.95 110.55 29.75 109.1 28.7" fill="#907e4a" fill-rule="evenodd" stroke="none"/>
    <path d="M109.3 146.65 L110.35 144.5 Q110.2 146.3 110.8 147.3 L109.3 146.65" fill="#907e4a" fill-rule="evenodd" stroke="none"/>
    <path d="M107.7 145.45 L107.9 145.85 107.5 145.55 107.7 145.45" fill="#907e4a" fill-rule="evenodd" stroke="none"/>
    <path d="M94.8 17.55 L97.15 19.4 99.3 22.05 Q101.55 24.8 104.05 28.8 L108.25 35.85 108.45 35.4 Q108.65 39.85 106.05 40.25 L104.4 36.45 Q103.4 34.25 103.15 32.6 L103.75 32.5 Q103.8 31.3 103.0 29.85 L101.6 27.35 101.35 28.8 Q100.65 28.35 100.1 27.45 L99.25 25.75 Q99.0 25.3 99.0 24.65 99.0 24.1 98.5 23.5 L97.4 22.9 96.2 22.2 Q95.3 21.4 94.25 19.0 93.25 16.75 92.25 16.0 94.0 17.0 94.8 17.55" fill="#605127" fill-rule="evenodd" stroke="none"/>
    <path d="M91.2 15.3 L91.6 15.6 90.7 15.3 91.2 15.3" fill="#605127" fill-rule="evenodd" stroke="none"/>
    <path d="M84.35 8.15 L75.55 4.45 Q70.05 2.15 66.4 1.05 78.1 2.8 84.35 8.15" fill="#605127" fill-rule="evenodd" stroke="none"/>
    <path d="M111.05 28.05 L110.05 24.35 Q109.25 21.9 109.85 21.05 L109.9 21.0 Q111.2 24.0 111.85 28.45 112.55 33.0 112.15 36.05 L111.5 39.9 Q111.1 42.2 111.4 43.75 111.6 44.85 112.4 45.75 L113.95 47.15 Q113.55 49.45 112.95 49.75 111.95 50.35 111.25 49.45 110.45 48.25 109.8 48.2 109.85 47.4 109.1 46.65 L108.3 45.7 Q108.25 45.15 109.0 42.7 110.55 37.55 110.8 35.35 111.2 32.1 111.05 28.05" fill="#605127" fill-rule="evenodd" stroke="none"/>
    <path d="M120.75 64.65 Q120.5 64.05 117.45 60.0 115.2 57.0 115.6 54.9 L116.25 54.7 Q116.9 56.3 119.15 59.8 L123.15 65.3 Q125.1 68.2 125.4 71.4 125.9 76.8 125.45 85.4 L124.75 99.4 124.55 115.55 Q124.5 125.0 125.05 131.7 125.5 137.15 126.6 141.15 L126.85 141.7 128.25 145.35 Q128.35 146.05 127.95 146.55 127.2 147.6 121.95 148.0 L117.2 148.25 Q114.55 146.0 116.55 144.55 L118.4 144.5 Q119.7 145.1 120.3 144.95 L121.9 143.85 123.1 142.45 Q119.45 142.15 118.35 140.55 L120.5 140.9 Q121.65 140.9 122.2 139.7 L121.0 138.55 Q120.25 137.8 120.1 137.25 119.95 136.65 120.45 135.1 121.05 133.45 120.95 132.7 L120.8 131.3 120.3 130.05 118.35 129.15 Q117.25 128.7 117.7 127.3 120.95 127.75 120.75 124.7 119.9 121.2 119.9 120.4 121.35 120.65 122.1 120.15 122.95 119.5 122.55 118.05 121.35 118.2 120.8 117.35 120.3 116.55 120.7 115.4 121.05 115.75 121.5 115.8 L122.3 115.95 122.45 111.95 Q122.5 110.75 122.15 109.45 L121.5 107.35 Q121.25 106.3 121.3 104.5 L121.3 101.6 120.85 99.85 Q120.55 98.8 120.8 98.05 L121.75 98.05 122.7 98.0 Q123.05 97.1 122.75 96.05 121.85 95.9 121.55 95.25 121.25 94.6 121.55 93.7 L122.55 93.7 123.5 93.65 123.75 88.3 Q123.65 85.1 122.75 83.15 L122.5 83.3 122.35 80.05 Q122.15 78.25 121.6 76.9 L121.2 77.95 Q120.25 77.75 119.75 76.05 119.3 74.35 119.8 73.35 L120.3 74.2 120.85 74.6 121.0 73.35 121.95 73.6 122.9 73.65 Q123.2 72.45 122.75 71.4 L121.8 69.35 121.3 67.0 120.75 64.65" fill="#605127" fill-rule="evenodd" stroke="none"/>
    <path d="M118.15 118.95 L118.3 112.6 118.5 119.05 Q118.4 124.05 116.7 124.9 115.15 125.75 114.2 124.55 113.3 123.3 114.15 122.95 L115.7 122.55 Q117.25 121.8 117.65 121.35 118.25 120.75 118.15 118.95" fill="#605127" fill-rule="evenodd" stroke="none"/>
    <path d="M117.2 131.95 Q117.3 135.4 116.65 136.9 116.0 138.45 114.15 138.85 112.25 139.25 112.4 137.15 114.2 137.55 115.0 136.2 115.65 135.1 115.45 133.2 L117.3 126.9 117.2 131.95" fill="#605127" fill-rule="evenodd" stroke="none"/>
    <path d="M119.6 86.6 L120.0 84.3 Q119.85 85.65 119.95 90.45 120.0 94.2 119.3 96.55 L117.5 96.3 Q116.8 95.75 117.15 94.75 L117.9 95.35 118.65 95.55 Q119.55 89.8 119.6 86.6" fill="#605127" fill-rule="evenodd" stroke="none"/>
    <path d="M119.1 78.6 L119.3 69.95 Q120.4 73.75 120.65 77.0 121.05 82.65 118.55 83.85 116.5 84.85 117.45 82.5 L119.1 78.6" fill="#605127" fill-rule="evenodd" stroke="none"/>
    <path d="M112.2 53.1 L111.85 52.75 Q111.35 51.45 111.55 49.6 L113.45 51.55 Q114.3 52.65 113.45 54.05 112.7 55.4 111.4 55.45 110.1 55.45 109.2 54.1 L111.0 54.15 Q111.85 54.0 112.2 53.1" fill="#605127" fill-rule="evenodd" stroke="none"/>
    <path d="M98.35 28.55 L97.35 25.9 Q96.7 24.2 96.55 23.2 L98.7 27.35 100.75 31.5 100.65 33.15 Q99.55 33.35 99.05 31.6 L98.35 28.55" fill="#605127" fill-rule="evenodd" stroke="none"/>
    <path d="M78.7 9.15 L76.25 7.45 Q74.85 6.4 74.55 5.15 77.9 6.7 79.9 7.9 83.6 10.15 83.9 11.95 84.3 14.25 81.85 12.2 L78.7 9.15" fill="#dacc89" fill-rule="evenodd" stroke="none"/>
    <path d="M92.9 18.0 L96.2 21.05 Q94.85 20.45 90.35 19.2 86.4 17.85 85.7 16.0 L89.25 17.3 Q91.35 18.05 92.9 18.0" fill="#dacc89" fill-rule="evenodd" stroke="none"/>
    <path d="M92.45 22.65 L97.1 26.45 Q97.5 27.75 97.7 29.4 97.9 31.3 97.6 32.45 L96.0 29.55 Q95.1 27.5 94.45 26.6 L91.05 22.3 Q88.8 19.85 86.75 19.15 90.05 19.8 92.45 22.65" fill="#dacc89" fill-rule="evenodd" stroke="none"/>
    <path d="M97.6 35.8 L98.65 33.8 Q98.75 35.45 100.9 37.25 103.15 39.1 103.3 40.25 103.6 42.4 100.8 39.45 L97.6 35.8" fill="#dacc89" fill-rule="evenodd" stroke="none"/>
    <path d="M102.2 41.55 L102.9 42.55 Q104.4 43.4 103.6 44.8 102.05 42.8 102.2 41.55" fill="#dacc89" fill-rule="evenodd" stroke="none"/>
    <path d="M100.5 42.2 Q101.55 42.65 102.35 44.25 L103.5 46.9 104.85 49.25 106.05 51.6 Q104.15 51.4 102.65 47.75 L100.85 42.5 100.5 42.2" fill="#dacc89" fill-rule="evenodd" stroke="none"/>
    <path d="M106.15 47.65 L108.85 50.35 Q109.0 51.1 108.65 52.65 107.2 52.95 106.3 50.85 105.45 48.8 106.15 47.65" fill="#dacc89" fill-rule="evenodd" stroke="none"/>
    <path d="M107.05 54.65 L109.75 55.4 Q113.8 60.75 115.55 63.45 118.65 68.25 117.3 72.85 116.15 71.45 115.05 68.6 L113.2 64.1 Q112.45 62.5 110.0 59.4 107.75 56.55 107.05 54.65" fill="#dacc89" fill-rule="evenodd" stroke="none"/>
    <path d="M109.2 64.7 L110.25 63.75 Q111.0 64.95 111.15 66.65 L111.1 69.7 Q109.8 69.75 109.4 67.8 L109.2 64.7" fill="#dacc89" fill-rule="evenodd" stroke="none"/>
    <path d="M114.45 72.15 Q114.3 74.1 115.2 77.75 116.05 81.3 115.85 83.25 114.5 82.1 113.95 77.6 113.35 72.3 112.8 71.15 L114.45 72.15" fill="#dacc89" fill-rule="evenodd" stroke="none"/>
    <path d="M115.5 85.85 L116.9 86.25 117.0 90.15 Q117.0 92.55 116.2 93.85 115.1 93.4 115.2 90.05 L115.5 85.85" fill="#dacc89" fill-rule="evenodd" stroke="none"/>
    <path d="M113.9 83.45 L114.35 89.15 Q114.65 93.35 113.75 95.15 112.45 94.35 112.45 92.2 L112.8 88.8 112.8 86.05 113.8 87.5 113.9 83.45 M112.8 86.05 Q112.0 84.7 111.45 83.1 110.65 80.6 110.7 78.4 L112.35 83.55 112.8 86.05" fill="#dacc89" fill-rule="evenodd" stroke="none"/>
    <path d="M112.85 102.8 Q112.35 101.35 112.55 100.0 112.75 98.55 113.75 97.6 114.0 99.1 113.35 101.35 L112.85 102.8" fill="#dacc89" fill-rule="evenodd" stroke="none"/>
    <path d="M114.8 102.85 L116.55 99.55 Q116.85 107.2 116.55 114.9 L116.6 117.05 Q116.5 118.6 115.8 118.95 114.85 119.4 114.7 117.6 L114.75 115.4 114.2 117.05 Q114.6 113.0 114.8 102.85" fill="#dacc89" fill-rule="evenodd" stroke="none"/>
    <path d="M110.95 120.35 L110.8 118.85 110.75 118.9 Q112.05 112.95 112.35 106.75 L113.0 107.5 113.1 114.3 Q112.9 117.75 110.95 120.35" fill="#dacc89" fill-rule="evenodd" stroke="none"/>
    <path d="M113.0 121.15 L113.0 121.5 Q113.9 124.65 113.9 129.3 113.9 134.85 112.1 136.55 111.45 135.9 111.45 134.6 L111.7 132.3 110.95 132.8 Q110.4 132.95 110.2 133.05 110.1 128.8 110.4 126.7 110.95 122.9 113.0 121.15" fill="#dacc89" fill-rule="evenodd" stroke="none"/>
    <path d="M108.4 126.25 L109.65 123.3 109.65 123.25 110.05 125.5 110.1 127.75 Q109.95 128.75 108.85 130.8 107.8 132.8 107.65 134.0 107.5 135.2 107.65 137.5 L107.75 141.0 Q107.2 141.15 106.75 140.7 L107.15 137.7 107.15 133.5 Q107.05 130.8 107.35 129.3 107.6 128.1 108.4 126.25" fill="#dacc89" fill-rule="evenodd" stroke="none"/>
    <path d="M110.2 139.1 L110.25 137.1 Q111.9 140.1 109.9 148.7 108.9 147.1 109.2 144.0 109.4 142.15 110.2 139.1" fill="#dacc89" fill-rule="evenodd" stroke="none"/>
    <path d="M114.0 138.7 L114.3 143.1 114.65 148.1 111.9 147.6 114.0 138.7" fill="#dacc89" fill-rule="evenodd" stroke="none"/>
    <path d="M107.1 22.65 L107.6 19.7 Q110.35 21.55 110.1 29.7 109.85 37.75 107.35 39.95 L107.55 32.65 Q107.6 28.15 106.95 26.45 106.3 24.55 103.35 21.55 L107.1 22.65" fill="#dacc89" fill-rule="evenodd" stroke="none"/>
    <path d="M60.85 1.65 L56.15 1.0 51.35 1.25 55.8 0.95 56.15 1.0 61.95 0.65 Q69.25 0.2 73.75 2.0 78.05 3.8 82.65 6.3 84.4 7.3 86.2 9.55 L89.05 12.9 Q88.45 12.4 87.4 11.8 85.65 10.85 85.25 10.5 83.25 8.95 80.35 7.2 L75.45 4.35 Q72.5 2.85 70.1 2.5 L60.85 1.65" fill="#dacc89" fill-rule="evenodd" stroke="none"/>
    <path d="M0.3 125.05 Q0.85 123.45 2.55 119.9 4.1 116.6 4.65 114.65 L3.85 119.65 Q3.45 123.05 4.6 124.35 5.0 124.8 6.25 125.0 L8.05 124.95 Q8.95 124.6 9.5 123.55 10.1 122.3 10.65 121.95 12.9 124.7 14.05 124.75 15.4 124.85 16.55 121.75 L16.85 123.35 Q18.0 123.65 19.1 122.15 L20.9 119.15 21.35 122.4 Q21.75 125.65 24.05 129.35 26.05 132.5 27.95 134.55 30.15 136.95 33.0 138.7 L28.05 139.45 18.1 138.7 11.05 137.65 Q7.3 136.75 5.0 134.6 2.25 132.05 1.2 130.45 -0.55 127.7 0.3 125.05" fill="#a59558" fill-rule="evenodd" stroke="none"/>
    <path d="M108.0 136.95 Q107.9 139.25 108.1 140.5 108.3 141.8 109.2 142.55 110.2 143.35 110.8 141.7 110.75 142.95 111.75 143.65 112.75 144.35 113.9 143.85 114.55 143.55 115.05 142.4 L115.75 140.65 Q116.4 143.1 116.95 143.9 117.8 145.25 120.05 144.75 L121.2 144.25 122.25 143.7 123.0 143.85 124.05 143.95 Q125.25 143.6 126.8 141.65 L127.0 142.3 Q128.25 146.85 131.3 150.7 L131.2 152.35 Q130.35 155.65 125.8 156.45 L118.05 157.5 114.65 157.85 Q112.5 157.75 110.75 156.9 109.7 156.35 106.95 153.2 106.4 152.55 106.3 151.5 L106.1 149.65 Q105.6 146.9 106.15 142.75 L107.05 135.7 108.15 133.5 108.0 136.95" fill="#9e8f53" fill-rule="evenodd" stroke="none"/>
    <path d="M3.3 128.2 L2.7 126.85 6.65 129.45 Q9.5 131.1 11.05 130.85 L11.1 130.05 12.8 130.15 14.5 130.05 14.5 129.75 12.05 128.3 Q10.6 127.3 10.3 126.2 L11.0 125.7 10.9 124.85 9.9 123.6 Q9.2 122.95 9.4 122.0 L10.05 121.75 11.0 121.8 11.65 122.55 13.85 122.7 14.75 122.25 Q15.2 121.8 15.45 121.75 16.1 121.55 16.6 122.15 17.1 122.75 17.8 122.5 L18.55 121.9 19.15 121.1 20.8 118.5 21.35 122.4 Q21.75 125.65 24.05 129.35 26.1 132.55 28.05 134.65 30.3 137.1 33.2 138.85 L34.65 139.65 28.3 140.05 21.8 139.75 15.4 138.8 Q10.1 137.35 6.7 135.35 L4.85 134.2 3.45 132.55 2.0 130.35 Q1.0 128.8 1.15 128.1 2.55 129.8 3.75 129.55 3.8 129.05 3.3 128.2" fill="#907e4a" fill-rule="evenodd" stroke="none"/>
    <path d="M20.7 117.8 L20.75 117.7 21.35 122.4 Q21.75 125.65 24.05 129.35 26.1 132.55 28.05 134.65 30.3 137.1 33.2 138.85 L36.1 140.35 Q35.6 140.9 32.9 140.9 L28.2 140.75 23.5 140.45 18.2 139.75 21.8 139.7 Q19.9 138.7 16.25 138.55 L10.5 138.0 Q8.9 137.6 6.6 135.85 4.15 133.9 3.95 132.6 4.15 133.35 5.2 134.15 6.25 134.85 7.05 134.9 L6.55 133.65 6.0 132.4 9.5 133.7 13.1 133.95 Q13.2 133.15 11.75 132.4 L9.6 131.3 14.15 133.3 Q16.75 134.45 18.9 134.4 L18.1 133.4 21.5 133.5 Q21.45 132.8 19.25 131.85 17.05 130.85 16.9 129.85 L19.3 129.9 Q19.3 129.65 17.5 128.15 16.1 126.9 17.2 126.5 17.1 125.9 16.25 124.8 15.45 123.85 15.55 122.9 15.6 121.75 16.35 120.1 L18.05 119.7 18.05 120.85 Q19.4 119.85 20.7 117.8" fill="#5e4b2a" fill-rule="evenodd" stroke="none"/>
    <path d="M20.65 115.35 L20.7 115.85 Q20.65 117.2 20.9 119.1 L21.35 122.4 Q21.75 125.65 24.05 129.35 L24.3 129.7 22.95 128.45 21.8 127.1 21.35 125.5 Q21.15 124.5 20.75 123.85 20.15 123.0 20.05 122.45 L19.85 120.95 Q19.7 120.3 18.85 119.65 18.0 119.0 17.95 118.5 L20.1 116.6 20.65 115.35" fill="#4c3c21" fill-rule="evenodd" stroke="none"/>
    <path d="M22.8 135.6 L25.25 135.3 Q26.45 135.1 26.4 133.6 26.4 132.4 25.65 131.9 L24.45 131.75 Q23.7 131.7 23.5 130.95 L24.7 130.65 24.5 130.0 Q26.15 132.6 28.15 134.35 29.85 135.8 33.0 137.65 L34.75 139.15 36.55 140.6 Q36.15 141.25 34.0 141.1 L31.25 140.85 22.2 140.25 18.1 139.9 14.05 139.4 10.35 138.35 8.9 137.5 7.85 136.75 10.55 137.1 Q12.45 136.85 11.35 135.2 12.3 135.8 14.0 136.2 16.25 136.7 16.15 135.45 L17.1 135.75 17.95 136.2 20.4 136.5 22.25 136.6 Q23.45 136.45 22.8 135.6" fill="#493e23" fill-rule="evenodd" stroke="none"/>
    <path d="M8.0 127.55 Q7.8 126.7 7.9 124.95 7.95 124.05 8.55 122.4 L8.75 120.9 Q8.85 119.95 9.3 119.5 L9.75 119.95 9.65 124.25 9.75 127.25 9.5 130.1 8.85 128.95 8.0 127.55" fill="#dacc89" fill-rule="evenodd" stroke="none"/>
    <path d="M4.75 113.15 L4.6 114.5 4.3 115.85 4.15 117.9 3.9 119.9 3.7 121.5 3.35 123.0 1.8 125.4 Q0.95 126.6 0.85 127.65 L0.9 126.0 Q0.95 124.7 1.3 123.9 L1.9 122.9 2.5 121.9 2.8 120.55 Q2.85 119.7 3.05 119.35 L4.75 113.15" fill="#dacc89" fill-rule="evenodd" stroke="none"/>
    <path d="M2.9 124.85 L3.45 123.9 2.9 129.35 Q1.95 128.25 2.1 127.1 2.15 126.45 2.9 124.85" fill="#dacc89" fill-rule="evenodd" stroke="none"/>
    <path d="M113.1 158.2 Q112.45 158.05 111.8 157.55 L110.65 156.6 Q110.2 156.3 109.4 155.9 L108.45 154.9 107.6 153.55 Q107.05 152.6 107.15 152.1 L108.4 153.25 Q109.1 154.1 109.75 154.35 L110.05 153.25 Q110.85 154.25 111.65 154.15 L111.65 153.05 113.25 154.5 Q114.4 155.45 115.15 155.3 L115.35 154.15 Q115.55 153.6 115.4 152.95 L114.75 150.85 Q114.55 150.0 114.5 148.85 L114.55 146.8 Q116.55 151.35 117.3 150.45 117.55 150.15 117.4 149.05 117.2 147.8 117.3 147.45 L117.95 148.5 118.8 149.3 Q119.25 148.95 119.15 148.05 119.05 147.1 118.4 147.05 118.75 146.15 117.7 144.9 116.6 143.65 116.8 142.9 L117.6 142.3 Q118.85 143.45 119.65 143.75 L122.0 143.65 Q124.7 142.3 126.95 142.25 L127.3 144.4 Q127.55 145.65 128.0 146.35 L128.9 147.4 129.8 148.45 130.3 149.25 130.9 150.0 Q131.2 150.3 131.65 150.45 L133.1 152.2 Q131.95 153.35 131.3 154.3 L129.8 155.85 127.8 156.6 122.8 157.7 117.6 158.35 113.1 158.2" fill="#907e4a" fill-rule="evenodd" stroke="none"/>
    <path d="M112.95 158.6 Q111.85 158.3 110.5 157.25 109.05 156.1 108.9 155.15 109.4 155.9 111.45 156.6 113.6 157.35 113.55 156.3 113.85 156.75 115.1 156.9 L116.9 156.75 Q117.4 156.45 117.45 155.3 L117.55 153.6 118.4 154.6 Q119.05 155.15 119.55 154.9 L119.8 154.15 119.85 153.3 Q121.15 154.3 122.25 154.15 L121.9 152.5 Q121.6 151.45 121.9 150.9 L123.7 151.0 Q124.8 150.8 124.25 149.75 124.15 149.6 123.0 149.2 121.7 148.25 121.45 146.65 122.6 147.45 123.25 146.95 123.9 146.45 123.2 145.4 L122.2 144.05 Q121.55 143.4 120.75 143.45 121.35 143.0 121.45 142.4 121.6 141.65 120.7 141.6 L122.9 141.2 Q123.65 141.15 124.65 140.45 L126.25 139.4 126.5 140.5 Q127.5 144.5 129.4 147.35 L129.7 147.75 Q130.65 149.75 131.75 150.6 L133.75 152.85 131.55 155.6 Q130.2 157.75 127.3 158.35 L122.05 158.85 112.95 158.6" fill="#493e23" fill-rule="evenodd" stroke="none"/>
    <path d="M108.9 144.4 L109.55 144.2 110.2 142.6 Q110.45 140.6 110.9 139.75 L110.8 146.45 110.55 153.1 Q108.8 151.75 108.65 149.05 L108.9 144.4" fill="#dacc89" fill-rule="evenodd" stroke="none"/>
    <path d="M112.15 148.45 Q111.9 147.25 112.2 145.7 L112.85 143.05 113.0 139.9 Q113.0 137.95 113.4 136.85 113.8 137.4 113.95 138.85 L114.2 141.0 Q114.55 142.75 114.4 144.55 114.05 150.95 114.4 153.35 113.05 152.5 112.15 148.45" fill="#dacc89" fill-rule="evenodd" stroke="none"/>
    <path d="M115.25 145.45 L115.85 144.35 116.2 146.8 Q116.35 148.35 116.0 149.25 115.25 148.65 115.2 147.5 L115.25 145.45" fill="#dacc89" fill-rule="evenodd" stroke="none"/>
  </g>
  <defs>
    <linearGradient gradientTransform="matrix(0.0773, 0.0017, 0.0018, -0.077, 67.1, 134.6)" gradientUnits="userSpaceOnUse" id="gradient0" spreadMethod="pad" x1="-819.2" x2="819.2">
      <stop offset="0.0" stop-color="#000000" stop-opacity="0.29803923"/>
      <stop offset="0.8588235294117647" stop-color="#000000" stop-opacity="0.29803923"/>
      <stop offset="1.0" stop-color="#000000" stop-opacity="0.29803923"/>
    </linearGradient>
    <linearGradient gradientTransform="matrix(0.0412, 0.002, 0.002, -0.0411, 115.7, 80.2)" gradientUnits="userSpaceOnUse" id="gradient1" spreadMethod="pad" x1="-819.2" x2="819.2">
      <stop offset="0.0" stop-color="#000000" stop-opacity="0.29803923"/>
      <stop offset="0.8588235294117647" stop-color="#000000" stop-opacity="0.29803923"/>
      <stop offset="1.0" stop-color="#000000" stop-opacity="0.29803923"/>
    </linearGradient>
    <linearGradient gradientTransform="matrix(0.0522, 0.0025, 0.0025, -0.052, 68.3, 137.35)" gradientUnits="userSpaceOnUse" id="gradient2" spreadMethod="pad" x1="-819.2" x2="819.2">
      <stop offset="0.0" stop-color="#000000" stop-opacity="0.29803923"/>
      <stop offset="0.8588235294117647" stop-color="#000000" stop-opacity="0.29803923"/>
      <stop offset="1.0" stop-color="#000000" stop-opacity="0.29803923"/>
    </linearGradient>
    <linearGradient gradientTransform="matrix(0.0571, 0.0013, 0.0013, -0.0569, 66.9, 105.45)" gradientUnits="userSpaceOnUse" id="gradient3" spreadMethod="pad" x1="-819.2" x2="819.2">
      <stop offset="0.0" stop-color="#000000" stop-opacity="0.29803923"/>
      <stop offset="0.8588235294117647" stop-color="#000000" stop-opacity="0.29803923"/>
      <stop offset="1.0" stop-color="#000000" stop-opacity="0.29803923"/>
    </linearGradient>
  </defs>
</svg>
